<svg xmlns="http://www.w3.org/2000/svg" xmlns:xlink="http://www.w3.org/1999/xlink" version="1.2" width="210.00mm" height="297.00mm" viewBox="0 0 79.6677 112.6729">
<style type="text/css">
<![CDATA[
tspan { white-space: pre; }
]]>
</style>
<!-- Page: 3/3 -->
<g transform="translate(3.7937, 3.5213)">
<text font-family="IPAexGothic" font-size="2.2003" text-anchor="start" fill="currentColor">
<tspan> </tspan>
</text>
</g>
<g transform="translate(74.4855, 3.5213)">
<text font-family="IPAexGothic" font-size="2.2003" text-anchor="start" fill="currentColor">
<tspan>3</tspan>
</text>
</g>
<g transform="translate(3.7937, 10.3120)">
<line stroke-linejoin="round" stroke-linecap="round" stroke-width="0.0781" stroke="currentColor" x1="0.0390" y1="0" x2="72.0413" y2="0"/>
</g>
<g transform="translate(3.7937, 9.3120)">
<line stroke-linejoin="round" stroke-linecap="round" stroke-width="0.0781" stroke="currentColor" x1="0.0390" y1="0" x2="72.0413" y2="0"/>
</g>
<g transform="translate(3.7937, 8.3120)">
<line stroke-linejoin="round" stroke-linecap="round" stroke-width="0.0781" stroke="currentColor" x1="0.0390" y1="0" x2="72.0413" y2="0"/>
</g>
<g transform="translate(3.7937, 7.3120)">
<line stroke-linejoin="round" stroke-linecap="round" stroke-width="0.0781" stroke="currentColor" x1="0.0390" y1="0" x2="72.0413" y2="0"/>
</g>
<g transform="translate(3.7937, 6.3120)">
<line stroke-linejoin="round" stroke-linecap="round" stroke-width="0.0781" stroke="currentColor" x1="0.0390" y1="0" x2="72.0413" y2="0"/>
</g>
<g transform="translate(21.0848, 8.3120)">
<rect x="0.0000" y="-2.0000" width="0.1484" height="4.0390" ry="0.0000" fill="currentColor"/>
</g>
<g transform="translate(21.0848, 18.8583)">
<rect x="0.0000" y="-1.5390" width="0.1484" height="3.0390" ry="0.0000" fill="currentColor"/>
</g>
<g transform="translate(21.0848, 4.5320)">
<rect x="0.0000" y="5.8190" width="0.1484" height="7.0072" ry="0.0000" fill="currentColor"/>
</g>
<g transform="translate(63.0756, 8.3120)">
<rect x="0.0000" y="-2.0000" width="0.1484" height="4.0390" ry="0.0000" fill="currentColor"/>
</g>
<g transform="translate(48.4699, 4.5320)">
<rect x="0.0000" y="5.8190" width="0.1484" height="7.0072" ry="0.0000" fill="currentColor"/>
</g>
<g transform="translate(63.0756, 18.8583)">
<rect x="0.0000" y="-1.5390" width="0.1484" height="3.0390" ry="0.0000" fill="currentColor"/>
</g>
<g transform="translate(48.4699, 18.8583)">
<rect x="0.0000" y="-1.5390" width="0.1484" height="3.0390" ry="0.0000" fill="currentColor"/>
</g>
<g transform="translate(63.0756, 4.5320)">
<rect x="0.0000" y="5.8190" width="0.1484" height="7.0072" ry="0.0000" fill="currentColor"/>
</g>
<g transform="translate(48.4699, 8.3120)">
<rect x="0.0000" y="-2.0000" width="0.1484" height="4.0390" ry="0.0000" fill="currentColor"/>
</g>
<g transform="translate(34.1268, 8.3120)">
<rect x="0.0000" y="-2.0000" width="0.1484" height="4.0390" ry="0.0000" fill="currentColor"/>
</g>
<g transform="translate(75.4054, 8.3120)">
<rect x="0.0000" y="-2.0000" width="0.4686" height="4.0390" ry="0.0000" fill="currentColor"/>
</g>
<g transform="translate(75.0228, 8.3120)">
<rect x="0.0000" y="-2.0000" width="0.1484" height="4.0390" ry="0.0000" fill="currentColor"/>
</g>
<g transform="translate(75.4054, 18.8583)">
<rect x="0.0000" y="-1.5390" width="0.4686" height="3.0390" ry="0.0000" fill="currentColor"/>
</g>
<g transform="translate(75.0228, 18.8583)">
<rect x="0.0000" y="-1.5390" width="0.1484" height="3.0390" ry="0.0000" fill="currentColor"/>
</g>
<g transform="translate(75.4054, 4.5320)">
<rect x="0.0000" y="5.8190" width="0.4686" height="7.0072" ry="0.0000" fill="currentColor"/>
</g>
<g transform="translate(75.0228, 4.5320)">
<rect x="0.0000" y="5.8190" width="0.1484" height="7.0072" ry="0.0000" fill="currentColor"/>
</g>
<g transform="translate(34.1268, 18.8583)">
<rect x="0.0000" y="-1.5390" width="0.1484" height="3.0390" ry="0.0000" fill="currentColor"/>
</g>
<g transform="translate(34.1268, 4.5320)">
<rect x="0.0000" y="5.8190" width="0.1484" height="7.0072" ry="0.0000" fill="currentColor"/>
</g>
<g transform="translate(3.7937, 20.3583)">
<line stroke-linejoin="round" stroke-linecap="round" stroke-width="0.0781" stroke="currentColor" x1="0.0390" y1="0" x2="72.0413" y2="0"/>
</g>
<g transform="translate(3.7937, 18.8583)">
<line stroke-linejoin="round" stroke-linecap="round" stroke-width="0.0781" stroke="currentColor" x1="0.0390" y1="0" x2="72.0413" y2="0"/>
</g>
<g transform="translate(3.7937, 17.3583)">
<line stroke-linejoin="round" stroke-linecap="round" stroke-width="0.0781" stroke="currentColor" x1="0.0390" y1="0" x2="72.0413" y2="0"/>
</g>
<g transform="translate(3.7937, 5.3120)">
<rect x="41.0830" y="-0.0890" width="1.9587" height="0.1781" ry="0.0890" fill="currentColor"/>
</g>
<g transform="translate(52.4441, 13.6944)">
<text font-family="IPAexGothic" font-size="2.4696" text-anchor="start" fill="currentColor">
<tspan>っ</tspan>
</text>
</g>
<g color="rgb(100.0000%, 100.0000%, 100.0000%)">
<g transform="translate(53.0204, 17.3583)">
<rect x="-0.2208" y="-0.7473" width="1.7527" height="1.4946" ry="0.0000" fill="currentColor"/>
</g>
</g>
<g transform="scale(1.0000, 1.0000)">
<g transform="translate(52.7996, 18.0220)">
<text font-family="IPAexGothic" font-weight="bold" font-size="1.7461" text-anchor="start" fill="currentColor">
<tspan>♯</tspan>
</text>
</g>
</g>
<g transform="translate(53.0204, 6.8120)">
<path transform="scale(0.0040, -0.0040)" d="M222 135c53 0 104 -27 104 -86c0 -71 -56 -120 -103 -148c-36 -22 -76 -36 -118 -36c-53 0 -105 27 -105 86c0 71 57 120 104 148c36 22 76 36 118 36z" fill="currentColor"/>
</g>
<g transform="translate(56.4832, 8.3120)">
<rect x="-0.0508" y="-0.3033" width="0.1015" height="3.3033" ry="0.0267" fill="currentColor"/>
</g>
<g color="rgb(100.0000%, 100.0000%, 100.0000%)">
<g transform="translate(56.4325, 17.3583)">
<rect x="0.1093" y="-0.6488" width="1.0926" height="1.2976" ry="0.0000" fill="currentColor"/>
</g>
</g>
<g transform="scale(1.0000, 1.0000)">
<g transform="translate(56.5417, 17.9985)">
<text font-family="IPAexGothic" font-weight="bold" font-size="1.7461" text-anchor="start" fill="currentColor">
<tspan>0</tspan>
</text>
</g>
</g>
<g transform="translate(55.8562, 13.6944)">
<text font-family="IPAexGothic" font-size="2.4696" text-anchor="start" fill="currentColor">
<tspan>ち</tspan>
</text>
</g>
<g transform="translate(56.4325, 7.8120)">
<path transform="scale(0.0040, -0.0040)" d="M222 135c53 0 104 -27 104 -86c0 -71 -56 -120 -103 -148c-36 -22 -76 -36 -118 -36c-53 0 -105 27 -105 86c0 71 57 120 104 148c36 22 76 36 118 36z" fill="currentColor"/>
</g>
<g transform="translate(53.0204, 16.1479)">
<text font-family="Libertinus Serif" font-size="1.5556" text-anchor="start" fill="currentColor">
<tspan> Ⅰ</tspan>
</text>
</g>
<g transform="translate(53.0711, 8.3120)">
<rect x="-0.0508" y="-1.3033" width="0.1015" height="3.3033" ry="0.0267" fill="currentColor"/>
</g>
<g transform="translate(42.1349, 8.3120)">
<path transform="scale(0.0040, -0.0040)" d="M-23 -113c0 26 10 40 36 40c34 0 85 -15 130 -37l-137 164c-7 8 -10 17 -10 25c0 33 49 64 86 96c26 22 39 54 39 85c0 24 -8 47 -24 67l-39 46c-2 3 -3 6 -3 9c0 7 7 14 14 14c3 0 7 -1 10 -5l152 -182c7 -8 10 -17 10 -25c0 -33 -49 -64 -86 -96
c-26 -22 -39 -54 -39 -85c0 -24 8 -47 24 -67l87 -104c2 -3 3 -5 3 -8c0 -7 -7 -14 -14 -14c-3 0 -7 1 -10 5c-19 22 -66 43 -102 43c-40 0 -52 -29 -52 -70c0 -35 11 -75 28 -96c6 -7 -4 -16 -10 -9c-46 55 -93 150 -93 204z" fill="currentColor"/>
</g>
<g transform="translate(45.2539, 8.3120)">
<rect x="-0.0508" y="-2.8033" width="0.1015" height="3.3033" ry="0.0267" fill="currentColor"/>
</g>
<g transform="translate(42.5849, 18.8583)">
<circle stroke-linejoin="round" stroke-linecap="round" fill="currentColor" stroke="currentColor" stroke-width="0" r="0.4500"/>
</g>
<g color="rgb(100.0000%, 100.0000%, 100.0000%)">
<g transform="translate(45.2032, 17.3583)">
<rect x="0.1093" y="-0.6565" width="1.0926" height="1.3130" ry="0.0000" fill="currentColor"/>
</g>
</g>
<g transform="scale(1.0000, 1.0000)">
<g transform="translate(45.3124, 17.9994)">
<text font-family="IPAexGothic" font-weight="bold" font-size="1.7461" text-anchor="start" fill="currentColor">
<tspan>8</tspan>
</text>
</g>
</g>
<g transform="translate(45.2032, 16.2387)">
<text font-family="Libertinus Serif" font-size="1.5556" text-anchor="start" fill="currentColor">
<tspan> Ⅲ</tspan>
</text>
</g>
<g transform="translate(44.6269, 13.6944)">
<text font-family="IPAexGothic" font-size="2.4696" text-anchor="start" fill="currentColor">
<tspan>り</tspan>
</text>
</g>
<g transform="translate(45.2032, 5.3120)">
<path transform="scale(0.0040, -0.0040)" d="M222 135c53 0 104 -27 104 -86c0 -71 -56 -120 -103 -148c-36 -22 -76 -36 -118 -36c-53 0 -105 27 -105 86c0 71 57 120 104 148c36 22 76 36 118 36z" fill="currentColor"/>
</g>
<g transform="translate(49.8240, 8.3120)">
<rect x="-0.0508" y="-2.3033" width="0.1015" height="3.3033" ry="0.0267" fill="currentColor"/>
</g>
<g color="rgb(100.0000%, 100.0000%, 100.0000%)">
<g transform="translate(49.7733, 17.3583)">
<rect x="0.1093" y="-0.6488" width="1.0926" height="1.2976" ry="0.0000" fill="currentColor"/>
</g>
</g>
<g transform="scale(1.0000, 1.0000)">
<g transform="translate(49.8825, 17.9985)">
<text font-family="IPAexGothic" font-weight="bold" font-size="1.7461" text-anchor="start" fill="currentColor">
<tspan>6</tspan>
</text>
</g>
</g>
<g transform="translate(49.7733, 16.2464)">
<text font-family="Libertinus Serif" font-size="1.5556" text-anchor="start" fill="currentColor">
<tspan> Ⅰ</tspan>
</text>
</g>
<g transform="translate(49.1970, 13.6944)">
<text font-family="IPAexGothic" font-size="2.4696" text-anchor="start" fill="currentColor">
<tspan>ぼ</tspan>
</text>
</g>
<g transform="translate(49.7733, 5.8120)">
<path transform="scale(0.0040, -0.0040)" d="M222 135c53 0 104 -27 104 -86c0 -71 -56 -120 -103 -148c-36 -22 -76 -36 -118 -36c-53 0 -105 27 -105 86c0 71 57 120 104 148c36 22 76 36 118 36z" fill="currentColor"/>
</g>
<g transform="translate(68.2858, 18.8583)">
<path stroke-width="0.1200" stroke-linejoin="round" stroke-linecap="square" stroke="currentColor" fill="none" d="M2 -0.6700l1 0"/>
</g>
<g transform="translate(68.9515, 8.3120)">
<rect x="-0.0508" y="-3.6667" width="0.1015" height="4.3983" ry="0.0267" fill="currentColor"/>
</g>
<g color="rgb(100.0000%, 100.0000%, 100.0000%)">
<g transform="translate(67.6303, 17.3583)">
<rect x="0.1093" y="-0.6488" width="1.0926" height="1.2976" ry="0.0000" fill="currentColor"/>
</g>
</g>
<g transform="scale(1.0000, 1.0000)">
<g transform="translate(67.7395, 17.9985)">
<text font-family="IPAexGothic" font-weight="bold" font-size="1.7461" text-anchor="start" fill="currentColor">
<tspan>0</tspan>
</text>
</g>
</g>
<g color="rgb(100.0000%, 100.0000%, 100.0000%)">
<g transform="translate(67.6303, 18.8583)">
<rect x="0.1093" y="-0.6488" width="1.0926" height="1.2976" ry="0.0000" fill="currentColor"/>
</g>
</g>
<g transform="scale(1.0000, 1.0000)">
<g transform="translate(67.7395, 19.4985)">
<text font-family="IPAexGothic" font-weight="bold" font-size="1.7461" text-anchor="start" fill="currentColor">
<tspan>0</tspan>
</text>
</g>
</g>
<g transform="translate(67.0871, 13.6944)">
<text font-family="IPAexGothic" font-size="2.4696" text-anchor="start" fill="currentColor">
<tspan>る</tspan>
</text>
</g>
<g transform="translate(67.6303, 7.8120)">
<path transform="scale(0.0040, -0.0040)" d="M316 67c0 25 -20 42 -42 42c-4 0 -9 -1 -13 -2c-31 -9 -79 -41 -117 -65s-86 -55 -107 -80c-7 -8 -10 -19 -10 -29c0 -25 20 -42 42 -42c4 0 9 1 13 2c31 9 79 41 117 65s86 55 107 80c7 8 10 19 10 29zM265 135c44 0 78 -21 78 -68c0 -19 -5 -39 -11 -57
c-12 -37 -33 -71 -65 -93c-53 -36 -114 -52 -189 -52c-44 0 -78 21 -78 68c0 19 5 39 11 57c12 37 33 71 65 93c53 36 114 52 189 52z" fill="currentColor"/>
</g>
<g transform="translate(67.6303, 9.3120)">
<path transform="scale(0.0040, -0.0040)" d="M316 67c0 25 -20 42 -42 42c-4 0 -9 -1 -13 -2c-31 -9 -79 -41 -117 -65s-86 -55 -107 -80c-7 -8 -10 -19 -10 -29c0 -25 20 -42 42 -42c4 0 9 1 13 2c31 9 79 41 117 65s86 55 107 80c7 8 10 19 10 29zM265 135c44 0 78 -21 78 -68c0 -19 -5 -39 -11 -57
c-12 -37 -33 -71 -65 -93c-53 -36 -114 -52 -189 -52c-44 0 -78 21 -78 68c0 19 5 39 11 57c12 37 33 71 65 93c53 36 114 52 189 52z" fill="currentColor"/>
</g>
<g color="rgb(100.0000%, 100.0000%, 100.0000%)">
<g transform="translate(64.2582, 17.3583)">
<rect x="0.1093" y="-0.6488" width="1.0926" height="1.2976" ry="0.0000" fill="currentColor"/>
</g>
</g>
<g transform="scale(1.0000, 1.0000)">
<g transform="translate(64.3674, 17.9985)">
<text font-family="IPAexGothic" font-weight="bold" font-size="1.7461" text-anchor="start" fill="currentColor">
<tspan>0</tspan>
</text>
</g>
</g>
<g color="rgb(100.0000%, 100.0000%, 100.0000%)">
<g transform="translate(64.2582, 18.8583)">
<rect x="0.1093" y="-0.6488" width="1.0926" height="1.2976" ry="0.0000" fill="currentColor"/>
</g>
</g>
<g transform="scale(1.0000, 1.0000)">
<g transform="translate(64.3674, 19.4985)">
<text font-family="IPAexGothic" font-weight="bold" font-size="1.7461" text-anchor="start" fill="currentColor">
<tspan>0</tspan>
</text>
</g>
</g>
<g transform="translate(63.6819, 13.6944)">
<text font-family="IPAexGothic" font-size="2.4696" text-anchor="start" fill="currentColor">
<tspan>よ</tspan>
</text>
</g>
<g transform="translate(64.2582, 7.8120)">
<path transform="scale(0.0040, -0.0040)" d="M222 135c53 0 104 -27 104 -86c0 -71 -56 -120 -103 -148c-36 -22 -76 -36 -118 -36c-53 0 -105 27 -105 86c0 71 57 120 104 148c36 22 76 36 118 36z" fill="currentColor"/>
</g>
<g transform="translate(64.2582, 9.3120)">
<path transform="scale(0.0040, -0.0040)" d="M222 135c53 0 104 -27 104 -86c0 -71 -56 -120 -103 -148c-36 -22 -76 -36 -118 -36c-53 0 -105 27 -105 86c0 71 57 120 104 148c36 22 76 36 118 36z" fill="currentColor"/>
</g>
<g transform="translate(65.5132, 8.3120)">
<rect x="-0.0508" y="-3.6667" width="0.1015" height="4.4699" ry="0.0267" fill="currentColor"/>
</g>
<g transform="translate(60.8913, 8.3120)">
<rect x="-0.0508" y="-3.0000" width="0.1015" height="3.3033" ry="0.0267" fill="currentColor"/>
</g>
<g color="rgb(100.0000%, 100.0000%, 100.0000%)">
<g transform="translate(59.6363, 18.8583)">
<rect x="0.1093" y="-0.6445" width="1.0926" height="1.2891" ry="0.0000" fill="currentColor"/>
</g>
</g>
<g transform="scale(1.0000, 1.0000)">
<g transform="translate(59.7455, 19.5028)">
<text font-family="IPAexGothic" font-weight="bold" font-size="1.7461" text-anchor="start" fill="currentColor">
<tspan>2</tspan>
</text>
</g>
</g>
<g transform="translate(59.0600, 13.6944)">
<text font-family="IPAexGothic" font-size="2.4696" text-anchor="start" fill="currentColor">
<tspan>の</tspan>
</text>
</g>
<g transform="translate(59.6363, 8.8120)">
<path transform="scale(0.0040, -0.0040)" d="M222 135c53 0 104 -27 104 -86c0 -71 -56 -120 -103 -148c-36 -22 -76 -36 -118 -36c-53 0 -105 27 -105 86c0 71 57 120 104 148c36 22 76 36 118 36z" fill="currentColor"/>
</g>
<g transform="translate(14.4417, 7.8120)">
<path transform="scale(0.0040, -0.0040)" d="M222 135c53 0 104 -27 104 -86c0 -71 -56 -120 -103 -148c-36 -22 -76 -36 -118 -36c-53 0 -105 27 -105 86c0 71 57 120 104 148c36 22 76 36 118 36z" fill="currentColor"/>
</g>
<g transform="translate(14.4924, 8.3120)">
<rect x="-0.0508" y="-0.3033" width="0.1015" height="3.3033" ry="0.0267" fill="currentColor"/>
</g>
<g color="rgb(100.0000%, 100.0000%, 100.0000%)">
<g transform="translate(14.4417, 17.3583)">
<rect x="0.1093" y="-0.6488" width="1.0926" height="1.2976" ry="0.0000" fill="currentColor"/>
</g>
</g>
<g transform="scale(1.0000, 1.0000)">
<g transform="translate(14.5509, 17.9985)">
<text font-family="IPAexGothic" font-weight="bold" font-size="1.7461" text-anchor="start" fill="currentColor">
<tspan>0</tspan>
</text>
</g>
</g>
<g transform="translate(13.8654, 13.6944)">
<text font-family="IPAexGothic" font-size="2.4696" text-anchor="start" fill="currentColor">
<tspan>ち</tspan>
</text>
</g>
<g transform="translate(17.6454, 8.8120)">
<path transform="scale(0.0040, -0.0040)" d="M222 135c53 0 104 -27 104 -86c0 -71 -56 -120 -103 -148c-36 -22 -76 -36 -118 -36c-53 0 -105 27 -105 86c0 71 57 120 104 148c36 22 76 36 118 36z" fill="currentColor"/>
</g>
<g transform="translate(11.0803, 8.3120)">
<rect x="-0.0508" y="-1.3033" width="0.1015" height="3.3033" ry="0.0267" fill="currentColor"/>
</g>
<g color="rgb(100.0000%, 100.0000%, 100.0000%)">
<g transform="translate(11.0296, 17.3583)">
<rect x="-0.2208" y="-0.7473" width="1.7527" height="1.4946" ry="0.0000" fill="currentColor"/>
</g>
</g>
<g transform="scale(1.0000, 1.0000)">
<g transform="translate(10.8088, 18.0220)">
<text font-family="IPAexGothic" font-weight="bold" font-size="1.7461" text-anchor="start" fill="currentColor">
<tspan>♯</tspan>
</text>
</g>
</g>
<g transform="translate(23.5224, 8.3120)">
<rect x="-0.0508" y="-3.6667" width="0.1015" height="4.4699" ry="0.0267" fill="currentColor"/>
</g>
<g color="rgb(100.0000%, 100.0000%, 100.0000%)">
<g transform="translate(22.2674, 18.8583)">
<rect x="0.1093" y="-0.6488" width="1.0926" height="1.2976" ry="0.0000" fill="currentColor"/>
</g>
</g>
<g transform="scale(1.0000, 1.0000)">
<g transform="translate(22.3766, 19.4985)">
<text font-family="IPAexGothic" font-weight="bold" font-size="1.7461" text-anchor="start" fill="currentColor">
<tspan>0</tspan>
</text>
</g>
</g>
<g transform="translate(21.6911, 13.6944)">
<text font-family="IPAexGothic" font-size="2.4696" text-anchor="start" fill="currentColor">
<tspan>よ</tspan>
</text>
</g>
<g transform="translate(22.2674, 7.8120)">
<path transform="scale(0.0040, -0.0040)" d="M222 135c53 0 104 -27 104 -86c0 -71 -56 -120 -103 -148c-36 -22 -76 -36 -118 -36c-53 0 -105 27 -105 86c0 71 57 120 104 148c36 22 76 36 118 36z" fill="currentColor"/>
</g>
<g transform="translate(22.2674, 9.3120)">
<path transform="scale(0.0040, -0.0040)" d="M222 135c53 0 104 -27 104 -86c0 -71 -56 -120 -103 -148c-36 -22 -76 -36 -118 -36c-53 0 -105 27 -105 86c0 71 57 120 104 148c36 22 76 36 118 36z" fill="currentColor"/>
</g>
<g transform="translate(11.0296, 16.1479)">
<text font-family="Libertinus Serif" font-size="1.5556" text-anchor="start" fill="currentColor">
<tspan> Ⅰ</tspan>
</text>
</g>
<g transform="translate(18.9005, 8.3120)">
<rect x="-0.0508" y="-3.0000" width="0.1015" height="3.3033" ry="0.0267" fill="currentColor"/>
</g>
<g color="rgb(100.0000%, 100.0000%, 100.0000%)">
<g transform="translate(17.6454, 18.8583)">
<rect x="0.1093" y="-0.6445" width="1.0926" height="1.2891" ry="0.0000" fill="currentColor"/>
</g>
</g>
<g transform="scale(1.0000, 1.0000)">
<g transform="translate(17.7547, 19.5028)">
<text font-family="IPAexGothic" font-weight="bold" font-size="1.7461" text-anchor="start" fill="currentColor">
<tspan>2</tspan>
</text>
</g>
</g>
<g transform="translate(17.0692, 13.6944)">
<text font-family="IPAexGothic" font-size="2.4696" text-anchor="start" fill="currentColor">
<tspan>の</tspan>
</text>
</g>
<g transform="translate(5.1872, 12.8450)">
<text font-family="IPAexGothic" font-style="italic" font-size="1.3860" text-anchor="start" fill="currentColor">
<tspan>8</tspan>
</text>
</g>
<g transform="translate(4.5937, 9.3120)">
<path transform="scale(0.0040, -0.0040)" d="M374 260c5 0 10 1 15 1c154 0 254 -127 254 -259c0 -76 -33 -153 -107 -208c-22 -17 -47 -29 -73 -37c3 -36 5 -72 5 -108c0 -19 0 -37 -1 -56c-7 -120 -88 -226 -206 -226c-108 0 -195 87 -195 195c0 58 53 104 112 104c54 0 95 -48 95 -104c0 -52 -43 -95 -95 -95
c-12 0 -24 4 -35 9c26 -41 70 -70 121 -70c1 0 2 1 3 1c93 2 154 93 160 192c1 18 2 35 2 53c0 32 -2 64 -5 96c-29 -5 -58 -8 -89 -8c-188 0 -333 171 -333 372c0 178 133 306 251 440c-18 63 -35 126 -42 191c-6 51 -7 102 -7 154c0 116 55 226 150 295c5 4 11 4 16 0
c70 -84 132 -246 132 -359c0 -144 -87 -256 -183 -365c20 -69 39 -138 55 -208zM459 -205c69 24 117 96 117 166c0 92 -69 184 -179 193c25 -117 48 -235 62 -359zM71 31c0 -136 131 -251 267 -251c28 0 55 2 82 6c-15 128 -38 247 -64 367c-79 -9 -125 -62 -125 -121
c0 -44 26 -92 82 -124c4 -4 7 -9 7 -14c0 -11 -9 -21 -20 -21c-3 0 -6 1 -9 2c-80 43 -116 114 -116 184c0 88 57 173 158 196c-14 60 -30 119 -46 178c-108 -121 -216 -242 -216 -402zM411 1050c-99 -50 -161 -151 -161 -262c0 -76 15 -137 33 -200c82 97 149 198 149 325
c0 58 -4 84 -21 137z" fill="currentColor"/>
</g>
<g transform="translate(3.7687, 13.3352)">
<rect x="0.0000" y="-7.0622" width="0.1250" height="14.1244" ry="0.0390" fill="currentColor"/>
</g>
<g transform="translate(2.5187, 6.0480)">
<path transform="scale(0.0040, -0.0040)" d="M0 -56v91c0 12 10 21 22 21h43c164 0 281 136 377 272c10 14 32 -1 22 -15c-103 -145 -222 -369 -399 -369h-65z" fill="currentColor"/>
</g>
<g transform="translate(2.5187, 20.6223)">
<path transform="scale(0.0040, -0.0040)" d="M0 56h65c177 0 296 -224 399 -369c10 -14 -12 -29 -22 -15c-96 136 -213 272 -377 272h-43c-12 0 -22 9 -22 21v91z" fill="currentColor"/>
</g>
<g transform="translate(2.5187, 13.3352)">
<rect x="0.0000" y="-7.1072" width="0.4500" height="14.2144" ry="0.0000" fill="currentColor"/>
</g>
<g transform="translate(7.8332, 8.3120)">
<rect x="-0.0508" y="-2.3033" width="0.1015" height="3.3033" ry="0.0267" fill="currentColor"/>
</g>
<g transform="translate(10.4533, 13.6944)">
<text font-family="IPAexGothic" font-size="2.4696" text-anchor="start" fill="currentColor">
<tspan>っ</tspan>
</text>
</g>
<g transform="translate(11.0296, 6.8120)">
<path transform="scale(0.0040, -0.0040)" d="M222 135c53 0 104 -27 104 -86c0 -71 -56 -120 -103 -148c-36 -22 -76 -36 -118 -36c-53 0 -105 27 -105 86c0 71 57 120 104 148c36 22 76 36 118 36z" fill="currentColor"/>
</g>
<g color="rgb(100.0000%, 100.0000%, 100.0000%)">
<g transform="translate(22.2674, 17.3583)">
<rect x="0.1093" y="-0.6488" width="1.0926" height="1.2976" ry="0.0000" fill="currentColor"/>
</g>
</g>
<g transform="scale(1.0000, 1.0000)">
<g transform="translate(22.3766, 17.9985)">
<text font-family="IPAexGothic" font-weight="bold" font-size="1.7461" text-anchor="start" fill="currentColor">
<tspan>0</tspan>
</text>
</g>
</g>
<g color="rgb(100.0000%, 100.0000%, 100.0000%)">
<g transform="translate(7.7825, 17.3583)">
<rect x="0.1093" y="-0.6488" width="1.0926" height="1.2976" ry="0.0000" fill="currentColor"/>
</g>
</g>
<g transform="scale(1.0000, 1.0000)">
<g transform="translate(7.8917, 17.9985)">
<text font-family="IPAexGothic" font-weight="bold" font-size="1.7461" text-anchor="start" fill="currentColor">
<tspan>6</tspan>
</text>
</g>
</g>
<g transform="translate(7.7825, 16.2464)">
<text font-family="Libertinus Serif" font-size="1.5556" text-anchor="start" fill="currentColor">
<tspan> Ⅰ</tspan>
</text>
</g>
<g transform="translate(7.2062, 13.6944)">
<text font-family="IPAexGothic" font-size="2.4696" text-anchor="start" fill="currentColor">
<tspan>ぼ</tspan>
</text>
</g>
<g transform="translate(7.7825, 5.8120)">
<path transform="scale(0.0040, -0.0040)" d="M222 135c53 0 104 -27 104 -86c0 -71 -56 -120 -103 -148c-36 -22 -76 -36 -118 -36c-53 0 -105 27 -105 86c0 71 57 120 104 148c36 22 76 36 118 36z" fill="currentColor"/>
</g>
<g transform="translate(35.4415, 8.3120)">
<rect x="-0.0508" y="-0.3033" width="0.1015" height="3.3033" ry="0.0267" fill="currentColor"/>
</g>
<g color="rgb(100.0000%, 100.0000%, 100.0000%)">
<g transform="translate(35.3907, 17.3583)">
<rect x="0.1093" y="-0.6488" width="1.0926" height="1.2976" ry="0.0000" fill="currentColor"/>
</g>
</g>
<g transform="scale(1.0000, 1.0000)">
<g transform="translate(35.5000, 17.9985)">
<text font-family="IPAexGothic" font-weight="bold" font-size="1.7461" text-anchor="start" fill="currentColor">
<tspan>0</tspan>
</text>
</g>
</g>
<g transform="translate(34.8145, 13.6944)">
<text font-family="IPAexGothic" font-size="2.4696" text-anchor="start" fill="currentColor">
<tspan>ひ</tspan>
</text>
</g>
<g transform="translate(35.3907, 7.8120)">
<path transform="scale(0.0040, -0.0040)" d="M222 135c53 0 104 -27 104 -86c0 -71 -56 -120 -103 -148c-36 -22 -76 -36 -118 -36c-53 0 -105 27 -105 86c0 71 57 120 104 148c36 22 76 36 118 36z" fill="currentColor"/>
</g>
<g transform="translate(29.4616, 18.8583)">
<circle stroke-linejoin="round" stroke-linecap="round" fill="currentColor" stroke="currentColor" stroke-width="0" r="0.4500"/>
</g>
<g transform="translate(29.0116, 18.8583)">
<path stroke-width="0.1200" stroke-linejoin="round" stroke-linecap="square" stroke="currentColor" fill="none" d="M2 -0.6700l1 0"/>
</g>
<g transform="translate(29.0116, 8.3120)">
<path transform="scale(0.0040, -0.0040)" d="M367 0h-359c-4 0 -8 4 -8 8v140c0 4 4 8 8 8h359c4 0 8 -4 8 -8v-140c0 -4 -4 -8 -8 -8z" fill="currentColor"/>
</g>
<g transform="translate(38.8136, 8.3120)">
<rect x="-0.0508" y="-0.3033" width="0.1015" height="3.3033" ry="0.0267" fill="currentColor"/>
</g>
<g color="rgb(100.0000%, 100.0000%, 100.0000%)">
<g transform="translate(38.7628, 17.3583)">
<rect x="0.1093" y="-0.6488" width="1.0926" height="1.2976" ry="0.0000" fill="currentColor"/>
</g>
</g>
<g transform="scale(1.0000, 1.0000)">
<g transform="translate(38.8721, 17.9985)">
<text font-family="IPAexGothic" font-weight="bold" font-size="1.7461" text-anchor="start" fill="currentColor">
<tspan>0</tspan>
</text>
</g>
</g>
<g transform="translate(38.1866, 13.6944)">
<text font-family="IPAexGothic" font-size="2.4696" text-anchor="start" fill="currentColor">
<tspan>と</tspan>
</text>
</g>
<g transform="translate(38.7628, 7.8120)">
<path transform="scale(0.0040, -0.0040)" d="M222 135c53 0 104 -27 104 -86c0 -71 -56 -120 -103 -148c-36 -22 -76 -36 -118 -36c-53 0 -105 27 -105 86c0 71 57 120 104 148c36 22 76 36 118 36z" fill="currentColor"/>
</g>
<g transform="translate(26.8945, 8.3120)">
<rect x="-0.0508" y="-3.6667" width="0.1015" height="4.4699" ry="0.0267" fill="currentColor"/>
</g>
<g transform="translate(25.6395, 9.3120)">
<path transform="scale(0.0040, -0.0040)" d="M222 135c53 0 104 -27 104 -86c0 -71 -56 -120 -103 -148c-36 -22 -76 -36 -118 -36c-53 0 -105 27 -105 86c0 71 57 120 104 148c36 22 76 36 118 36z" fill="currentColor"/>
</g>
<g transform="translate(25.6395, 7.8120)">
<path transform="scale(0.0040, -0.0040)" d="M222 135c53 0 104 -27 104 -86c0 -71 -56 -120 -103 -148c-36 -22 -76 -36 -118 -36c-53 0 -105 27 -105 86c0 71 57 120 104 148c36 22 76 36 118 36z" fill="currentColor"/>
</g>
<g transform="translate(25.0632, 13.6944)">
<text font-family="IPAexGothic" font-size="2.4696" text-anchor="start" fill="currentColor">
<tspan>る</tspan>
</text>
</g>
<g color="rgb(100.0000%, 100.0000%, 100.0000%)">
<g transform="translate(25.6395, 18.8583)">
<rect x="0.1093" y="-0.6488" width="1.0926" height="1.2976" ry="0.0000" fill="currentColor"/>
</g>
</g>
<g transform="scale(1.0000, 1.0000)">
<g transform="translate(25.7487, 19.4985)">
<text font-family="IPAexGothic" font-weight="bold" font-size="1.7461" text-anchor="start" fill="currentColor">
<tspan>0</tspan>
</text>
</g>
</g>
<g color="rgb(100.0000%, 100.0000%, 100.0000%)">
<g transform="translate(25.6395, 17.3583)">
<rect x="0.1093" y="-0.6488" width="1.0926" height="1.2976" ry="0.0000" fill="currentColor"/>
</g>
</g>
<g transform="scale(1.0000, 1.0000)">
<g transform="translate(25.7487, 17.9985)">
<text font-family="IPAexGothic" font-weight="bold" font-size="1.7461" text-anchor="start" fill="currentColor">
<tspan>0</tspan>
</text>
</g>
</g>
</svg>
