<svg xmlns="http://www.w3.org/2000/svg" xmlns:xlink="http://www.w3.org/1999/xlink" version="1.2" width="210.00mm" height="297.00mm" viewBox="0 0 66.3898 93.8941">
<style type="text/css">
<![CDATA[
tspan { white-space: pre; }
]]>
</style>
<!-- Page: 2/3 -->
<g transform="translate(3.1614, 3.2049)">
<text font-family="IPAexGothic" font-size="2.2000" text-anchor="start" fill="currentColor">
<tspan>2</tspan>
</text>
</g>
<g transform="translate(13.3538, 7.9849)">
<rect x="0.0000" y="-2.0000" width="0.1345" height="4.0354" ry="0.0000" fill="currentColor"/>
</g>
<g transform="translate(30.7936, 7.9849)">
<rect x="0.0000" y="-2.0000" width="0.1345" height="4.0354" ry="0.0000" fill="currentColor"/>
</g>
<g transform="translate(62.8036, 4.2049)">
<rect x="0.0000" y="5.8154" width="0.4248" height="8.3783" ry="0.0000" fill="currentColor"/>
</g>
<g transform="translate(62.4567, 4.2049)">
<rect x="0.0000" y="5.8154" width="0.1345" height="8.3783" ry="0.0000" fill="currentColor"/>
</g>
<g transform="translate(61.7875, 19.1487)">
<path transform="scale(0.0040, -0.0040)" d="M0 0c0 32 25 57 57 57s57 -25 57 -57s-25 -57 -57 -57s-57 25 -57 57z" fill="currentColor"/>
</g>
<g transform="translate(61.7875, 20.6487)">
<path transform="scale(0.0040, -0.0040)" d="M0 0c0 32 25 57 57 57s57 -25 57 -57s-25 -57 -57 -57s-57 25 -57 57z" fill="currentColor"/>
</g>
<g transform="translate(62.8036, 19.8987)">
<rect x="0.0000" y="-1.5354" width="0.4248" height="3.0354" ry="0.0000" fill="currentColor"/>
</g>
<g transform="translate(62.4567, 19.8987)">
<rect x="0.0000" y="-1.5354" width="0.1345" height="3.0354" ry="0.0000" fill="currentColor"/>
</g>
<g transform="translate(13.3538, 4.2049)">
<rect x="0.0000" y="5.8154" width="0.1345" height="8.3783" ry="0.0000" fill="currentColor"/>
</g>
<g transform="translate(13.3538, 19.8987)">
<rect x="0.0000" y="-1.5354" width="0.1345" height="3.0354" ry="0.0000" fill="currentColor"/>
</g>
<g transform="translate(61.7875, 7.4849)">
<path transform="scale(0.0040, -0.0040)" d="M0 0c0 32 25 57 57 57s57 -25 57 -57s-25 -57 -57 -57s-57 25 -57 57z" fill="currentColor"/>
</g>
<g transform="translate(61.7875, 8.4849)">
<path transform="scale(0.0040, -0.0040)" d="M0 0c0 32 25 57 57 57s57 -25 57 -57s-25 -57 -57 -57s-57 25 -57 57z" fill="currentColor"/>
</g>
<g transform="translate(62.8036, 7.9849)">
<rect x="0.0000" y="-2.0000" width="0.4248" height="4.0354" ry="0.0000" fill="currentColor"/>
</g>
<g transform="translate(62.4567, 7.9849)">
<rect x="0.0000" y="-2.0000" width="0.1345" height="4.0354" ry="0.0000" fill="currentColor"/>
</g>
<g transform="translate(52.7940, 7.9849)">
<rect x="0.0000" y="-2.0000" width="0.1345" height="4.0354" ry="0.0000" fill="currentColor"/>
</g>
<g transform="translate(40.7705, 4.2049)">
<rect x="0.0000" y="5.8154" width="0.1345" height="8.3783" ry="0.0000" fill="currentColor"/>
</g>
<g transform="translate(3.1614, 9.9849)">
<line stroke-linejoin="round" stroke-linecap="round" stroke-width="0.0708" stroke="currentColor" x1="0.0354" y1="0" x2="60.0315" y2="0"/>
</g>
<g transform="translate(3.1614, 8.9849)">
<line stroke-linejoin="round" stroke-linecap="round" stroke-width="0.0708" stroke="currentColor" x1="0.0354" y1="0" x2="60.0315" y2="0"/>
</g>
<g transform="translate(3.1614, 7.9849)">
<line stroke-linejoin="round" stroke-linecap="round" stroke-width="0.0708" stroke="currentColor" x1="0.0354" y1="0" x2="60.0315" y2="0"/>
</g>
<g transform="translate(3.1614, 6.9849)">
<line stroke-linejoin="round" stroke-linecap="round" stroke-width="0.0708" stroke="currentColor" x1="0.0354" y1="0" x2="60.0315" y2="0"/>
</g>
<g transform="translate(3.1614, 5.9849)">
<line stroke-linejoin="round" stroke-linecap="round" stroke-width="0.0708" stroke="currentColor" x1="0.0354" y1="0" x2="60.0315" y2="0"/>
</g>
<g transform="translate(52.7940, 19.8987)">
<rect x="0.0000" y="-1.5354" width="0.1345" height="3.0354" ry="0.0000" fill="currentColor"/>
</g>
<g transform="translate(40.7705, 19.8987)">
<rect x="0.0000" y="-1.5354" width="0.1345" height="3.0354" ry="0.0000" fill="currentColor"/>
</g>
<g transform="translate(52.7940, 4.2049)">
<rect x="0.0000" y="5.8154" width="0.1345" height="8.3783" ry="0.0000" fill="currentColor"/>
</g>
<g transform="translate(23.3436, 4.2049)">
<rect x="0.0000" y="5.8154" width="0.1345" height="8.3783" ry="0.0000" fill="currentColor"/>
</g>
<g transform="translate(23.3436, 7.9849)">
<rect x="0.0000" y="-2.0000" width="0.1345" height="4.0354" ry="0.0000" fill="currentColor"/>
</g>
<g transform="translate(23.3436, 19.8987)">
<rect x="0.0000" y="-1.5354" width="0.1345" height="3.0354" ry="0.0000" fill="currentColor"/>
</g>
<g transform="translate(40.7705, 7.9849)">
<rect x="0.0000" y="-2.0000" width="0.1345" height="4.0354" ry="0.0000" fill="currentColor"/>
</g>
<g transform="translate(30.7936, 19.8987)">
<rect x="0.0000" y="-1.5354" width="0.1345" height="3.0354" ry="0.0000" fill="currentColor"/>
</g>
<g transform="translate(3.1614, 4.9849)">
<rect x="35.1968" y="-0.0854" width="1.9587" height="0.1708" ry="0.0854" fill="currentColor"/>
</g>
<g transform="translate(30.7936, 4.2049)">
<rect x="0.0000" y="5.8154" width="0.1345" height="8.3783" ry="0.0000" fill="currentColor"/>
</g>
<g transform="translate(3.1614, 21.3987)">
<line stroke-linejoin="round" stroke-linecap="round" stroke-width="0.0708" stroke="currentColor" x1="0.0354" y1="0" x2="60.0315" y2="0"/>
</g>
<g transform="translate(3.1614, 19.8987)">
<line stroke-linejoin="round" stroke-linecap="round" stroke-width="0.0708" stroke="currentColor" x1="0.0354" y1="0" x2="60.0315" y2="0"/>
</g>
<g transform="translate(3.1614, 18.3987)">
<line stroke-linejoin="round" stroke-linecap="round" stroke-width="0.0708" stroke="currentColor" x1="0.0354" y1="0" x2="60.0315" y2="0"/>
</g>
<g transform="translate(44.8029, 6.4849)">
<path transform="scale(0.0040, -0.0040)" d="M222 135c53 0 104 -27 104 -86c0 -71 -56 -120 -103 -148c-36 -22 -76 -36 -118 -36c-53 0 -105 27 -105 86c0 71 57 120 104 148c36 22 76 36 118 36z" fill="currentColor"/>
</g>
<g transform="translate(44.8489, 7.9849)">
<rect x="-0.0460" y="-1.3033" width="0.0920" height="3.3033" ry="0.0222" fill="currentColor"/>
</g>
<g color="rgb(100.0000%, 100.0000%, 100.0000%)">
<g transform="translate(44.8029, 18.3987)">
<rect x="0.1100" y="-0.6561" width="1.1002" height="1.3122" ry="0.0000" fill="currentColor"/>
</g>
</g>
<g transform="scale(1.0000, 1.0000)">
<g transform="translate(44.9129, 19.0300)">
<text font-family="IPAexGothic" font-weight="bold" font-size="1.7462" text-anchor="start" fill="currentColor">
<tspan>#</tspan>
</text>
</g>
</g>
<g transform="translate(44.2228, 13.3672)">
<text font-family="IPAexGothic" font-size="2.4695" text-anchor="start" fill="currentColor">
<tspan>っ</tspan>
</text>
</g>
<g transform="translate(47.7188, 7.4849)">
<path transform="scale(0.0040, -0.0040)" d="M222 135c53 0 104 -27 104 -86c0 -71 -56 -120 -103 -148c-36 -22 -76 -36 -118 -36c-53 0 -105 27 -105 86c0 71 57 120 104 148c36 22 76 36 118 36z" fill="currentColor"/>
</g>
<g transform="translate(47.1387, 13.3672)">
<text font-family="IPAexGothic" font-size="2.4695" text-anchor="start" fill="currentColor">
<tspan>ち</tspan>
</text>
</g>
<g color="rgb(100.0000%, 100.0000%, 100.0000%)">
<g transform="translate(47.7188, 18.3987)">
<rect x="0.1100" y="-0.6489" width="1.1002" height="1.2977" ry="0.0000" fill="currentColor"/>
</g>
</g>
<g transform="scale(1.0000, 1.0000)">
<g transform="translate(47.8288, 19.0390)">
<text font-family="IPAexGothic" font-weight="bold" font-size="1.7462" text-anchor="start" fill="currentColor">
<tspan>0</tspan>
</text>
</g>
</g>
<g transform="translate(47.7648, 7.9849)">
<rect x="-0.0460" y="-0.3033" width="0.0920" height="3.3033" ry="0.0222" fill="currentColor"/>
</g>
<g transform="translate(37.3506, 19.8987)">
<circle stroke-linejoin="round" stroke-linecap="round" fill="currentColor" stroke="currentColor" stroke-width="0" r="0.4500"/>
</g>
<g transform="translate(36.9006, 7.9849)">
<path transform="scale(0.0040, -0.0040)" d="M-23 -113c0 26 10 40 36 40c34 0 85 -15 130 -37l-137 164c-7 8 -10 17 -10 25c0 33 49 64 86 96c26 22 39 54 39 85c0 24 -8 47 -24 67l-39 46c-2 3 -3 6 -3 9c0 7 7 14 14 14c3 0 7 -1 10 -5l152 -182c7 -8 10 -17 10 -25c0 -33 -49 -64 -86 -96
c-26 -22 -39 -54 -39 -85c0 -24 8 -47 24 -67l87 -104c2 -3 3 -5 3 -8c0 -7 -7 -14 -14 -14c-3 0 -7 1 -10 5c-19 22 -66 43 -102 43c-40 0 -52 -29 -52 -70c0 -35 11 -75 28 -96c6 -7 -4 -16 -10 -9c-46 55 -93 150 -93 204z" fill="currentColor"/>
</g>
<g transform="translate(34.8545, 7.9849)">
<rect x="-0.0460" y="-0.3033" width="0.0920" height="3.3033" ry="0.0222" fill="currentColor"/>
</g>
<g color="rgb(100.0000%, 100.0000%, 100.0000%)">
<g transform="translate(34.8085, 18.3987)">
<rect x="0.1100" y="-0.6489" width="1.1002" height="1.2977" ry="0.0000" fill="currentColor"/>
</g>
</g>
<g transform="scale(1.0000, 1.0000)">
<g transform="translate(34.9185, 19.0390)">
<text font-family="IPAexGothic" font-weight="bold" font-size="1.7462" text-anchor="start" fill="currentColor">
<tspan>0</tspan>
</text>
</g>
</g>
<g transform="translate(34.2284, 13.3672)">
<text font-family="IPAexGothic" font-size="2.4695" text-anchor="start" fill="currentColor">
<tspan>と</tspan>
</text>
</g>
<g transform="translate(34.8085, 7.4849)">
<path transform="scale(0.0040, -0.0040)" d="M222 135c53 0 104 -27 104 -86c0 -71 -56 -120 -103 -148c-36 -22 -76 -36 -118 -36c-53 0 -105 27 -105 86c0 71 57 120 104 148c36 22 76 36 118 36z" fill="currentColor"/>
</g>
<g transform="translate(41.9330, 7.9849)">
<rect x="-0.0460" y="-2.3033" width="0.0920" height="3.3033" ry="0.0222" fill="currentColor"/>
</g>
<g color="rgb(100.0000%, 100.0000%, 100.0000%)">
<g transform="translate(41.8870, 18.3987)">
<rect x="0.1100" y="-0.6489" width="1.1002" height="1.2977" ry="0.0000" fill="currentColor"/>
</g>
</g>
<g transform="scale(1.0000, 1.0000)">
<g transform="translate(41.9970, 19.0390)">
<text font-family="IPAexGothic" font-weight="bold" font-size="1.7462" text-anchor="start" fill="currentColor">
<tspan>6</tspan>
</text>
</g>
</g>
<g transform="translate(41.3069, 13.3672)">
<text font-family="IPAexGothic" font-size="2.4695" text-anchor="start" fill="currentColor">
<tspan>ぼ</tspan>
</text>
</g>
<g transform="translate(41.8870, 5.4849)">
<path transform="scale(0.0040, -0.0040)" d="M222 135c53 0 104 -27 104 -86c0 -71 -56 -120 -103 -148c-36 -22 -76 -36 -118 -36c-53 0 -105 27 -105 86c0 71 57 120 104 148c36 22 76 36 118 36z" fill="currentColor"/>
</g>
<g transform="translate(38.7307, 7.9849)">
<rect x="-0.0460" y="-2.8033" width="0.0920" height="3.3033" ry="0.0222" fill="currentColor"/>
</g>
<g color="rgb(100.0000%, 100.0000%, 100.0000%)">
<g transform="translate(38.6847, 18.3987)">
<rect x="0.1100" y="-0.6565" width="1.1002" height="1.3131" ry="0.0000" fill="currentColor"/>
</g>
</g>
<g transform="scale(1.0000, 1.0000)">
<g transform="translate(38.7947, 19.0398)">
<text font-family="IPAexGothic" font-weight="bold" font-size="1.7462" text-anchor="start" fill="currentColor">
<tspan>8</tspan>
</text>
</g>
</g>
<g transform="translate(38.1046, 13.3672)">
<text font-family="IPAexGothic" font-size="2.4695" text-anchor="start" fill="currentColor">
<tspan>り</tspan>
</text>
</g>
<g transform="translate(38.6847, 4.9849)">
<path transform="scale(0.0040, -0.0040)" d="M222 135c53 0 104 -27 104 -86c0 -71 -56 -120 -103 -148c-36 -22 -76 -36 -118 -36c-53 0 -105 27 -105 86c0 71 57 120 104 148c36 22 76 36 118 36z" fill="currentColor"/>
</g>
<g transform="translate(59.3140, 19.8987)">
<circle stroke-linejoin="round" stroke-linecap="round" fill="currentColor" stroke="currentColor" stroke-width="0" r="0.4500"/>
</g>
<g transform="translate(58.8640, 19.8987)">
<path stroke-width="0.1200" stroke-linejoin="round" stroke-linecap="square" stroke="currentColor" fill="none" d="M2 -0.6700l1 0"/>
</g>
<g transform="translate(58.8640, 7.9849)">
<path transform="scale(0.0040, -0.0040)" d="M367 0h-359c-4 0 -8 4 -8 8v140c0 4 4 8 8 8h359c4 0 8 -4 8 -8v-140c0 -4 -4 -8 -8 -8z" fill="currentColor"/>
</g>
<g transform="translate(58.0317, 7.9849)">
<rect x="-0.0460" y="-3.6667" width="0.0920" height="4.4699" ry="0.0222" fill="currentColor"/>
</g>
<g color="rgb(100.0000%, 100.0000%, 100.0000%)">
<g transform="translate(56.7719, 18.3987)">
<rect x="0.1100" y="-0.6489" width="1.1002" height="1.2977" ry="0.0000" fill="currentColor"/>
</g>
</g>
<g transform="scale(1.0000, 1.0000)">
<g transform="translate(56.8819, 19.0390)">
<text font-family="IPAexGothic" font-weight="bold" font-size="1.7462" text-anchor="start" fill="currentColor">
<tspan>0</tspan>
</text>
</g>
</g>
<g transform="translate(55.1158, 7.9849)">
<rect x="-0.0460" y="-3.6667" width="0.0920" height="4.4699" ry="0.0222" fill="currentColor"/>
</g>
<g color="rgb(100.0000%, 100.0000%, 100.0000%)">
<g transform="translate(53.8560, 18.3987)">
<rect x="0.1100" y="-0.6489" width="1.1002" height="1.2977" ry="0.0000" fill="currentColor"/>
</g>
</g>
<g transform="scale(1.0000, 1.0000)">
<g transform="translate(53.9660, 19.0390)">
<text font-family="IPAexGothic" font-weight="bold" font-size="1.7462" text-anchor="start" fill="currentColor">
<tspan>0</tspan>
</text>
</g>
</g>
<g color="rgb(100.0000%, 100.0000%, 100.0000%)">
<g transform="translate(53.8560, 19.8987)">
<rect x="0.1100" y="-0.6489" width="1.1002" height="1.2977" ry="0.0000" fill="currentColor"/>
</g>
</g>
<g transform="scale(1.0000, 1.0000)">
<g transform="translate(53.9660, 20.5390)">
<text font-family="IPAexGothic" font-weight="bold" font-size="1.7462" text-anchor="start" fill="currentColor">
<tspan>0</tspan>
</text>
</g>
</g>
<g transform="translate(53.2760, 13.3672)">
<text font-family="IPAexGothic" font-size="2.4695" text-anchor="start" fill="currentColor">
<tspan>よ</tspan>
</text>
</g>
<g transform="translate(53.8560, 7.4849)">
<path transform="scale(0.0040, -0.0040)" d="M222 135c53 0 104 -27 104 -86c0 -71 -56 -120 -103 -148c-36 -22 -76 -36 -118 -36c-53 0 -105 27 -105 86c0 71 57 120 104 148c36 22 76 36 118 36z" fill="currentColor"/>
</g>
<g transform="translate(53.8560, 8.9849)">
<path transform="scale(0.0040, -0.0040)" d="M222 135c53 0 104 -27 104 -86c0 -71 -56 -120 -103 -148c-36 -22 -76 -36 -118 -36c-53 0 -105 27 -105 86c0 71 57 120 104 148c36 22 76 36 118 36z" fill="currentColor"/>
</g>
<g transform="translate(51.8945, 7.9849)">
<rect x="-0.0460" y="-3.0000" width="0.0920" height="3.3033" ry="0.0222" fill="currentColor"/>
</g>
<g color="rgb(100.0000%, 100.0000%, 100.0000%)">
<g transform="translate(50.6347, 19.8987)">
<rect x="0.1100" y="-0.6446" width="1.1002" height="1.2892" ry="0.0000" fill="currentColor"/>
</g>
</g>
<g transform="scale(1.0000, 1.0000)">
<g transform="translate(50.7447, 20.5433)">
<text font-family="IPAexGothic" font-weight="bold" font-size="1.7462" text-anchor="start" fill="currentColor">
<tspan>2</tspan>
</text>
</g>
</g>
<g transform="translate(50.0546, 13.3672)">
<text font-family="IPAexGothic" font-size="2.4695" text-anchor="start" fill="currentColor">
<tspan>の</tspan>
</text>
</g>
<g transform="translate(50.6347, 8.4849)">
<path transform="scale(0.0040, -0.0040)" d="M222 135c53 0 104 -27 104 -86c0 -71 -56 -120 -103 -148c-36 -22 -76 -36 -118 -36c-53 0 -105 27 -105 86c0 71 57 120 104 148c36 22 76 36 118 36z" fill="currentColor"/>
</g>
<g color="rgb(100.0000%, 100.0000%, 100.0000%)">
<g transform="translate(56.7719, 19.8987)">
<rect x="0.1100" y="-0.6489" width="1.1002" height="1.2977" ry="0.0000" fill="currentColor"/>
</g>
</g>
<g transform="scale(1.0000, 1.0000)">
<g transform="translate(56.8819, 20.5390)">
<text font-family="IPAexGothic" font-weight="bold" font-size="1.7462" text-anchor="start" fill="currentColor">
<tspan>0</tspan>
</text>
</g>
</g>
<g transform="translate(56.1919, 13.3672)">
<text font-family="IPAexGothic" font-size="2.4695" text-anchor="start" fill="currentColor">
<tspan>る</tspan>
</text>
</g>
<g transform="translate(56.7719, 7.4849)">
<path transform="scale(0.0040, -0.0040)" d="M222 135c53 0 104 -27 104 -86c0 -71 -56 -120 -103 -148c-36 -22 -76 -36 -118 -36c-53 0 -105 27 -105 86c0 71 57 120 104 148c36 22 76 36 118 36z" fill="currentColor"/>
</g>
<g transform="translate(56.7719, 8.9849)">
<path transform="scale(0.0040, -0.0040)" d="M222 135c53 0 104 -27 104 -86c0 -71 -56 -120 -103 -148c-36 -22 -76 -36 -118 -36c-53 0 -105 27 -105 86c0 71 57 120 104 148c36 22 76 36 118 36z" fill="currentColor"/>
</g>
<g transform="translate(13.8856, 16.1672)">
<text font-family="IPAexGothic" font-size="2.4695" text-anchor="start" fill="currentColor">
<tspan>な</tspan>
</text>
</g>
<g transform="translate(14.5117, 7.9849)">
<rect x="-0.0460" y="-0.8033" width="0.0920" height="3.3033" ry="0.0222" fill="currentColor"/>
</g>
<g color="rgb(100.0000%, 100.0000%, 100.0000%)">
<g transform="translate(14.4656, 18.3987)">
<rect x="0.1100" y="-0.6446" width="1.1002" height="1.2892" ry="0.0000" fill="currentColor"/>
</g>
</g>
<g transform="scale(1.0000, 1.0000)">
<g transform="translate(14.5757, 19.0433)">
<text font-family="IPAexGothic" font-weight="bold" font-size="1.7462" text-anchor="start" fill="currentColor">
<tspan>2</tspan>
</text>
</g>
</g>
<g transform="translate(13.8856, 13.3672)">
<text font-family="IPAexGothic" font-size="2.4695" text-anchor="start" fill="currentColor">
<tspan>は</tspan>
</text>
</g>
<g transform="translate(14.4656, 6.9849)">
<path transform="scale(0.0040, -0.0040)" d="M222 135c53 0 104 -27 104 -86c0 -71 -56 -120 -103 -148c-36 -22 -76 -36 -118 -36c-53 0 -105 27 -105 86c0 71 57 120 104 148c36 22 76 36 118 36z" fill="currentColor"/>
</g>
<g transform="translate(17.0077, 19.8987)">
<circle stroke-linejoin="round" stroke-linecap="round" fill="currentColor" stroke="currentColor" stroke-width="0" r="0.4500"/>
</g>
<g transform="translate(16.5577, 7.9849)">
<path transform="scale(0.0040, -0.0040)" d="M-23 -113c0 26 10 40 36 40c34 0 85 -15 130 -37l-137 164c-7 8 -10 17 -10 25c0 33 49 64 86 96c26 22 39 54 39 85c0 24 -8 47 -24 67l-39 46c-2 3 -3 6 -3 9c0 7 7 14 14 14c3 0 7 -1 10 -5l152 -182c7 -8 10 -17 10 -25c0 -33 -49 -64 -86 -96
c-26 -22 -39 -54 -39 -85c0 -24 8 -47 24 -67l87 -104c2 -3 3 -5 3 -8c0 -7 -7 -14 -14 -14c-3 0 -7 1 -10 5c-19 22 -66 43 -102 43c-40 0 -52 -29 -52 -70c0 -35 11 -75 28 -96c6 -7 -4 -16 -10 -9c-46 55 -93 150 -93 204z" fill="currentColor"/>
</g>
<g transform="translate(9.5685, 19.8987)">
<circle stroke-linejoin="round" stroke-linecap="round" fill="currentColor" stroke="currentColor" stroke-width="0" r="0.4500"/>
</g>
<g transform="translate(9.1185, 19.8987)">
<path stroke-width="0.1200" stroke-linejoin="round" stroke-linecap="square" stroke="currentColor" fill="none" d="M2 -0.6700l1 0"/>
</g>
<g transform="translate(4.5511, 12.5184)">
<text font-family="IPAexGothic" font-style="italic" font-size="1.3859" text-anchor="start" fill="currentColor">
<tspan>8</tspan>
</text>
</g>
<g transform="translate(3.9614, 8.9849)">
<path transform="scale(0.0040, -0.0040)" d="M374 260c5 0 10 1 15 1c154 0 254 -127 254 -259c0 -76 -33 -153 -107 -208c-22 -17 -47 -29 -73 -37c3 -36 5 -72 5 -108c0 -19 0 -37 -1 -56c-7 -120 -88 -226 -206 -226c-108 0 -195 87 -195 195c0 58 53 104 112 104c54 0 95 -48 95 -104c0 -52 -43 -95 -95 -95
c-12 0 -24 4 -35 9c26 -41 70 -70 121 -70c1 0 2 1 3 1c93 2 154 93 160 192c1 18 2 35 2 53c0 32 -2 64 -5 96c-29 -5 -58 -8 -89 -8c-188 0 -333 171 -333 372c0 178 133 306 251 440c-18 63 -35 126 -42 191c-6 51 -7 102 -7 154c0 116 55 226 150 295c5 4 11 4 16 0
c70 -84 132 -246 132 -359c0 -144 -87 -256 -183 -365c20 -69 39 -138 55 -208zM459 -205c69 24 117 96 117 166c0 92 -69 184 -179 193c25 -117 48 -235 62 -359zM71 31c0 -136 131 -251 267 -251c28 0 55 2 82 6c-15 128 -38 247 -64 367c-79 -9 -125 -62 -125 -121
c0 -44 26 -92 82 -124c4 -4 7 -9 7 -14c0 -11 -9 -21 -20 -21c-3 0 -6 1 -9 2c-80 43 -116 114 -116 184c0 88 57 173 158 196c-14 60 -30 119 -46 178c-108 -121 -216 -242 -216 -402zM411 1050c-99 -50 -161 -151 -161 -262c0 -76 15 -137 33 -200c82 97 149 198 149 325
c0 58 -4 84 -21 137z" fill="currentColor"/>
</g>
<g transform="translate(3.1481, 13.6918)">
<rect x="0.0000" y="-7.7423" width="0.1133" height="15.4845" ry="0.0354" fill="currentColor"/>
</g>
<g transform="translate(1.8981, 5.7245)">
<path transform="scale(0.0040, -0.0040)" d="M0 -56v91c0 12 10 21 22 21h43c164 0 281 136 377 272c10 14 32 -1 22 -15c-103 -145 -222 -369 -399 -369h-65z" fill="currentColor"/>
</g>
<g transform="translate(1.8981, 21.6591)">
<path transform="scale(0.0040, -0.0040)" d="M0 56h65c177 0 296 -224 399 -369c10 -14 -12 -29 -22 -15c-96 136 -213 272 -377 272h-43c-12 0 -22 9 -22 21v91z" fill="currentColor"/>
</g>
<g transform="translate(1.8981, 13.6918)">
<rect x="0.0000" y="-7.7873" width="0.4500" height="15.5745" ry="0.0000" fill="currentColor"/>
</g>
<g transform="translate(7.0264, 6.9849)">
<path transform="scale(0.0040, -0.0040)" d="M222 135c53 0 104 -27 104 -86c0 -71 -56 -120 -103 -148c-36 -22 -76 -36 -118 -36c-53 0 -105 27 -105 86c0 71 57 120 104 148c36 22 76 36 118 36z" fill="currentColor"/>
</g>
<g transform="translate(9.1185, 7.9849)">
<path transform="scale(0.0040, -0.0040)" d="M367 0h-359c-4 0 -8 4 -8 8v140c0 4 4 8 8 8h359c4 0 8 -4 8 -8v-140c0 -4 -4 -8 -8 -8z" fill="currentColor"/>
</g>
<g transform="translate(7.0725, 7.9849)">
<rect x="-0.0460" y="-0.8033" width="0.0920" height="3.3033" ry="0.0222" fill="currentColor"/>
</g>
<g color="rgb(100.0000%, 100.0000%, 100.0000%)">
<g transform="translate(7.0264, 18.3987)">
<rect x="0.1100" y="-0.6446" width="1.1002" height="1.2892" ry="0.0000" fill="currentColor"/>
</g>
</g>
<g transform="scale(1.0000, 1.0000)">
<g transform="translate(7.1365, 19.0433)">
<text font-family="IPAexGothic" font-weight="bold" font-size="1.7462" text-anchor="start" fill="currentColor">
<tspan>2</tspan>
</text>
</g>
</g>
<g transform="translate(6.4464, 13.3672)">
<text font-family="IPAexGothic" font-size="2.4695" text-anchor="start" fill="currentColor">
<tspan>す</tspan>
</text>
</g>
<g transform="translate(27.0083, 19.8987)">
<circle stroke-linejoin="round" stroke-linecap="round" fill="currentColor" stroke="currentColor" stroke-width="0" r="0.4500"/>
</g>
<g transform="translate(26.5583, 19.8987)">
<path stroke-width="0.1200" stroke-linejoin="round" stroke-linecap="square" stroke="currentColor" fill="none" d="M2 -0.6700l1 0"/>
</g>
<g transform="translate(26.5583, 7.9849)">
<path transform="scale(0.0040, -0.0040)" d="M367 0h-359c-4 0 -8 4 -8 8v140c0 4 4 8 8 8h359c4 0 8 -4 8 -8v-140c0 -4 -4 -8 -8 -8z" fill="currentColor"/>
</g>
<g transform="translate(31.9386, 7.9849)">
<rect x="-0.0460" y="-0.3033" width="0.0920" height="3.3033" ry="0.0222" fill="currentColor"/>
</g>
<g color="rgb(100.0000%, 100.0000%, 100.0000%)">
<g transform="translate(31.8926, 18.3987)">
<rect x="0.1100" y="-0.6489" width="1.1002" height="1.2977" ry="0.0000" fill="currentColor"/>
</g>
</g>
<g transform="scale(1.0000, 1.0000)">
<g transform="translate(32.0026, 19.0390)">
<text font-family="IPAexGothic" font-weight="bold" font-size="1.7462" text-anchor="start" fill="currentColor">
<tspan>0</tspan>
</text>
</g>
</g>
<g transform="translate(31.3125, 13.3672)">
<text font-family="IPAexGothic" font-size="2.4695" text-anchor="start" fill="currentColor">
<tspan>ひ</tspan>
</text>
</g>
<g transform="translate(31.8926, 7.4849)">
<path transform="scale(0.0040, -0.0040)" d="M222 135c53 0 104 -27 104 -86c0 -71 -56 -120 -103 -148c-36 -22 -76 -36 -118 -36c-53 0 -105 27 -105 86c0 71 57 120 104 148c36 22 76 36 118 36z" fill="currentColor"/>
</g>
<g transform="translate(21.3037, 7.9849)">
<rect x="-0.0460" y="-0.3033" width="0.0920" height="3.3033" ry="0.0222" fill="currentColor"/>
</g>
<g color="rgb(100.0000%, 100.0000%, 100.0000%)">
<g transform="translate(21.2577, 18.3987)">
<rect x="0.1100" y="-0.6489" width="1.1002" height="1.2977" ry="0.0000" fill="currentColor"/>
</g>
</g>
<g transform="scale(1.0000, 1.0000)">
<g transform="translate(21.3677, 19.0390)">
<text font-family="IPAexGothic" font-weight="bold" font-size="1.7462" text-anchor="start" fill="currentColor">
<tspan>0</tspan>
</text>
</g>
</g>
<g transform="translate(20.6777, 13.3672)">
<text font-family="IPAexGothic" font-size="2.4695" text-anchor="start" fill="currentColor">
<tspan>の</tspan>
</text>
</g>
<g transform="translate(21.2577, 7.4849)">
<path transform="scale(0.0040, -0.0040)" d="M222 135c53 0 104 -27 104 -86c0 -71 -56 -120 -103 -148c-36 -22 -76 -36 -118 -36c-53 0 -105 27 -105 86c0 71 57 120 104 148c36 22 76 36 118 36z" fill="currentColor"/>
</g>
<g transform="translate(18.3418, 6.9849)">
<path transform="scale(0.0040, -0.0040)" d="M222 135c53 0 104 -27 104 -86c0 -71 -56 -120 -103 -148c-36 -22 -76 -36 -118 -36c-53 0 -105 27 -105 86c0 71 57 120 104 148c36 22 76 36 118 36z" fill="currentColor"/>
</g>
<g transform="translate(17.7618, 13.3672)">
<text font-family="IPAexGothic" font-size="2.4695" text-anchor="start" fill="currentColor">
<tspan>る</tspan>
</text>
</g>
<g transform="translate(17.7618, 16.1672)">
<text font-family="IPAexGothic" font-size="2.4695" text-anchor="start" fill="currentColor">
<tspan>つ</tspan>
</text>
</g>
<g transform="translate(24.5122, 7.9849)">
<rect x="-0.0460" y="-1.3033" width="0.0920" height="3.3033" ry="0.0222" fill="currentColor"/>
</g>
<g color="rgb(100.0000%, 100.0000%, 100.0000%)">
<g transform="translate(18.3418, 18.3987)">
<rect x="0.1100" y="-0.6446" width="1.1002" height="1.2892" ry="0.0000" fill="currentColor"/>
</g>
</g>
<g transform="scale(1.0000, 1.0000)">
<g transform="translate(18.4518, 19.0433)">
<text font-family="IPAexGothic" font-weight="bold" font-size="1.7462" text-anchor="start" fill="currentColor">
<tspan>2</tspan>
</text>
</g>
</g>
<g color="rgb(100.0000%, 100.0000%, 100.0000%)">
<g transform="translate(24.4662, 18.3987)">
<rect x="0.1100" y="-0.6561" width="1.1002" height="1.3122" ry="0.0000" fill="currentColor"/>
</g>
</g>
<g transform="scale(1.0000, 1.0000)">
<g transform="translate(24.5762, 19.0300)">
<text font-family="IPAexGothic" font-weight="bold" font-size="1.7462" text-anchor="start" fill="currentColor">
<tspan>#</tspan>
</text>
</g>
</g>
<g transform="translate(23.8861, 13.3672)">
<text font-family="IPAexGothic" font-size="2.4695" text-anchor="start" fill="currentColor">
<tspan>ひ</tspan>
</text>
</g>
<g transform="translate(18.3878, 7.9849)">
<rect x="-0.0460" y="-0.8033" width="0.0920" height="3.3033" ry="0.0222" fill="currentColor"/>
</g>
<g transform="translate(24.4662, 6.4849)">
<path transform="scale(0.0040, -0.0040)" d="M222 135c53 0 104 -27 104 -86c0 -71 -56 -120 -103 -148c-36 -22 -76 -36 -118 -36c-53 0 -105 27 -105 86c0 71 57 120 104 148c36 22 76 36 118 36z" fill="currentColor"/>
</g>
<g transform="translate(3.1614, 35.9181)">
<line stroke-linejoin="round" stroke-linecap="round" stroke-width="0.0708" stroke="currentColor" x1="0.0354" y1="0" x2="60.0315" y2="0"/>
</g>
<g transform="translate(3.1614, 34.9181)">
<line stroke-linejoin="round" stroke-linecap="round" stroke-width="0.0708" stroke="currentColor" x1="0.0354" y1="0" x2="60.0315" y2="0"/>
</g>
<g transform="translate(3.1614, 33.9181)">
<line stroke-linejoin="round" stroke-linecap="round" stroke-width="0.0708" stroke="currentColor" x1="0.0354" y1="0" x2="60.0315" y2="0"/>
</g>
<g transform="translate(3.1614, 32.9181)">
<line stroke-linejoin="round" stroke-linecap="round" stroke-width="0.0708" stroke="currentColor" x1="0.0354" y1="0" x2="60.0315" y2="0"/>
</g>
<g transform="translate(3.1614, 31.9181)">
<line stroke-linejoin="round" stroke-linecap="round" stroke-width="0.0708" stroke="currentColor" x1="0.0354" y1="0" x2="60.0315" y2="0"/>
</g>
<g transform="translate(20.9623, 30.1381)">
<rect x="0.0000" y="5.8154" width="0.1345" height="5.6329" ry="0.0000" fill="currentColor"/>
</g>
<g transform="translate(20.9623, 43.0864)">
<rect x="0.0000" y="-1.5354" width="0.1345" height="3.0354" ry="0.0000" fill="currentColor"/>
</g>
<g transform="translate(50.5220, 30.1381)">
<rect x="0.0000" y="5.8154" width="0.1345" height="5.6329" ry="0.0000" fill="currentColor"/>
</g>
<g transform="translate(35.8672, 30.1381)">
<rect x="0.0000" y="5.8154" width="0.1345" height="5.6329" ry="0.0000" fill="currentColor"/>
</g>
<g transform="translate(50.5220, 43.0864)">
<rect x="0.0000" y="-1.5354" width="0.1345" height="3.0354" ry="0.0000" fill="currentColor"/>
</g>
<g transform="translate(63.0938, 33.9181)">
<rect x="0.0000" y="-2.0000" width="0.1345" height="4.0354" ry="0.0000" fill="currentColor"/>
</g>
<g transform="translate(35.8672, 43.0864)">
<rect x="0.0000" y="-1.5354" width="0.1345" height="3.0354" ry="0.0000" fill="currentColor"/>
</g>
<g transform="translate(63.0938, 43.0864)">
<rect x="0.0000" y="-1.5354" width="0.1345" height="3.0354" ry="0.0000" fill="currentColor"/>
</g>
<g transform="translate(63.0938, 30.1381)">
<rect x="0.0000" y="5.8154" width="0.1345" height="5.6329" ry="0.0000" fill="currentColor"/>
</g>
<g transform="translate(20.9623, 33.9181)">
<rect x="0.0000" y="-2.0000" width="0.1345" height="4.0354" ry="0.0000" fill="currentColor"/>
</g>
<g transform="translate(35.8672, 33.9181)">
<rect x="0.0000" y="-2.0000" width="0.1345" height="4.0354" ry="0.0000" fill="currentColor"/>
</g>
<g transform="translate(50.5220, 33.9181)">
<rect x="0.0000" y="-2.0000" width="0.1345" height="4.0354" ry="0.0000" fill="currentColor"/>
</g>
<g transform="translate(3.1614, 30.9181)">
<rect x="29.0083" y="-0.0854" width="1.9587" height="0.1708" ry="0.0854" fill="currentColor"/>
</g>
<g transform="translate(3.1614, 30.9181)">
<rect x="18.7619" y="-0.0854" width="1.9587" height="0.1708" ry="0.0854" fill="currentColor"/>
</g>
<g transform="translate(3.1614, 44.5864)">
<line stroke-linejoin="round" stroke-linecap="round" stroke-width="0.0708" stroke="currentColor" x1="0.0354" y1="0" x2="60.0315" y2="0"/>
</g>
<g transform="translate(3.1614, 43.0864)">
<line stroke-linejoin="round" stroke-linecap="round" stroke-width="0.0708" stroke="currentColor" x1="0.0354" y1="0" x2="60.0315" y2="0"/>
</g>
<g transform="translate(3.1614, 41.5864)">
<line stroke-linejoin="round" stroke-linecap="round" stroke-width="0.0708" stroke="currentColor" x1="0.0354" y1="0" x2="60.0315" y2="0"/>
</g>
<g transform="translate(41.1097, 43.0864)">
<circle stroke-linejoin="round" stroke-linecap="round" fill="currentColor" stroke="currentColor" stroke-width="0" r="0.4500"/>
</g>
<g transform="translate(47.2256, 33.9181)">
<rect x="-0.0460" y="-1.3033" width="0.0920" height="3.3033" ry="0.0222" fill="currentColor"/>
</g>
<g color="rgb(100.0000%, 100.0000%, 100.0000%)">
<g transform="translate(47.1796, 41.5864)">
<rect x="0.1100" y="-0.6561" width="1.1002" height="1.3122" ry="0.0000" fill="currentColor"/>
</g>
</g>
<g transform="scale(1.0000, 1.0000)">
<g transform="translate(47.2896, 42.2178)">
<text font-family="IPAexGothic" font-weight="bold" font-size="1.7462" text-anchor="start" fill="currentColor">
<tspan>#</tspan>
</text>
</g>
</g>
<g transform="translate(46.5996, 39.3310)">
<text font-family="IPAexGothic" font-size="2.4695" text-anchor="start" fill="currentColor">
<tspan>え</tspan>
</text>
</g>
<g transform="translate(43.8281, 31.4181)">
<path transform="scale(0.0040, -0.0040)" d="M222 135c53 0 104 -27 104 -86c0 -71 -56 -120 -103 -148c-36 -22 -76 -36 -118 -36c-53 0 -105 27 -105 86c0 71 57 120 104 148c36 22 76 36 118 36z" fill="currentColor"/>
</g>
<g transform="translate(43.2481, 39.3310)">
<text font-family="IPAexGothic" font-size="2.4695" text-anchor="start" fill="currentColor">
<tspan>う</tspan>
</text>
</g>
<g transform="translate(47.1796, 32.4181)">
<path transform="scale(0.0040, -0.0040)" d="M222 135c53 0 104 -27 104 -86c0 -71 -56 -120 -103 -148c-36 -22 -76 -36 -118 -36c-53 0 -105 27 -105 86c0 71 57 120 104 148c36 22 76 36 118 36z" fill="currentColor"/>
</g>
<g color="rgb(100.0000%, 100.0000%, 100.0000%)">
<g transform="translate(43.8281, 41.5864)">
<rect x="0.1100" y="-0.6489" width="1.1002" height="1.2977" ry="0.0000" fill="currentColor"/>
</g>
</g>
<g transform="scale(1.0000, 1.0000)">
<g transform="translate(43.9382, 42.2267)">
<text font-family="IPAexGothic" font-weight="bold" font-size="1.7462" text-anchor="start" fill="currentColor">
<tspan>6</tspan>
</text>
</g>
</g>
<g transform="translate(43.8742, 33.9181)">
<rect x="-0.0460" y="-2.3033" width="0.0920" height="3.3033" ry="0.0222" fill="currentColor"/>
</g>
<g transform="translate(37.1832, 31.4181)">
<path transform="scale(0.0040, -0.0040)" d="M222 135c53 0 104 -27 104 -86c0 -71 -56 -120 -103 -148c-36 -22 -76 -36 -118 -36c-53 0 -105 27 -105 86c0 71 57 120 104 148c36 22 76 36 118 36z" fill="currentColor"/>
</g>
<g transform="translate(36.6032, 39.3310)">
<text font-family="IPAexGothic" font-size="2.4695" text-anchor="start" fill="currentColor">
<tspan>の</tspan>
</text>
</g>
<g color="rgb(100.0000%, 100.0000%, 100.0000%)">
<g transform="translate(37.1832, 41.5864)">
<rect x="0.1100" y="-0.6489" width="1.1002" height="1.2977" ry="0.0000" fill="currentColor"/>
</g>
</g>
<g transform="scale(1.0000, 1.0000)">
<g transform="translate(37.2932, 42.2267)">
<text font-family="IPAexGothic" font-weight="bold" font-size="1.7462" text-anchor="start" fill="currentColor">
<tspan>6</tspan>
</text>
</g>
</g>
<g transform="translate(37.2292, 33.9181)">
<rect x="-0.0460" y="-2.3033" width="0.0920" height="3.3033" ry="0.0222" fill="currentColor"/>
</g>
<g transform="translate(40.6597, 33.9181)">
<path transform="scale(0.0040, -0.0040)" d="M-23 -113c0 26 10 40 36 40c34 0 85 -15 130 -37l-137 164c-7 8 -10 17 -10 25c0 33 49 64 86 96c26 22 39 54 39 85c0 24 -8 47 -24 67l-39 46c-2 3 -3 6 -3 9c0 7 7 14 14 14c3 0 7 -1 10 -5l152 -182c7 -8 10 -17 10 -25c0 -33 -49 -64 -86 -96
c-26 -22 -39 -54 -39 -85c0 -24 8 -47 24 -67l87 -104c2 -3 3 -5 3 -8c0 -7 -7 -14 -14 -14c-3 0 -7 1 -10 5c-19 22 -66 43 -102 43c-40 0 -52 -29 -52 -70c0 -35 11 -75 28 -96c6 -7 -4 -16 -10 -9c-46 55 -93 150 -93 204z" fill="currentColor"/>
</g>
<g transform="translate(55.7645, 43.0864)">
<circle stroke-linejoin="round" stroke-linecap="round" fill="currentColor" stroke="currentColor" stroke-width="0" r="0.4500"/>
</g>
<g transform="translate(55.3145, 43.0864)">
<path stroke-width="0.1200" stroke-linejoin="round" stroke-linecap="square" stroke="currentColor" fill="none" d="M2 -0.6700l1 0"/>
</g>
<g transform="translate(51.8380, 31.4181)">
<path transform="scale(0.0040, -0.0040)" d="M222 135c53 0 104 -27 104 -86c0 -71 -56 -120 -103 -148c-36 -22 -76 -36 -118 -36c-53 0 -105 27 -105 86c0 71 57 120 104 148c36 22 76 36 118 36z" fill="currentColor"/>
</g>
<g transform="translate(51.2579, 39.3310)">
<text font-family="IPAexGothic" font-size="2.4695" text-anchor="start" fill="currentColor">
<tspan>に</tspan>
</text>
</g>
<g color="rgb(100.0000%, 100.0000%, 100.0000%)">
<g transform="translate(51.8380, 41.5864)">
<rect x="0.1100" y="-0.6489" width="1.1002" height="1.2977" ry="0.0000" fill="currentColor"/>
</g>
</g>
<g transform="scale(1.0000, 1.0000)">
<g transform="translate(51.9480, 42.2267)">
<text font-family="IPAexGothic" font-weight="bold" font-size="1.7462" text-anchor="start" fill="currentColor">
<tspan>6</tspan>
</text>
</g>
</g>
<g transform="translate(51.8840, 33.9181)">
<rect x="-0.0460" y="-2.3033" width="0.0920" height="3.3033" ry="0.0222" fill="currentColor"/>
</g>
<g transform="translate(55.3145, 33.9181)">
<path transform="scale(0.0040, -0.0040)" d="M367 0h-359c-4 0 -8 4 -8 8v140c0 4 4 8 8 8h359c4 0 8 -4 8 -8v-140c0 -4 -4 -8 -8 -8z" fill="currentColor"/>
</g>
<g color="rgb(100.0000%, 100.0000%, 100.0000%)">
<g transform="translate(10.6561, 41.5864)">
<rect x="0.1100" y="-0.6382" width="1.1002" height="1.2764" ry="0.0000" fill="currentColor"/>
</g>
</g>
<g transform="scale(1.0000, 1.0000)">
<g transform="translate(10.7662, 42.2246)">
<text font-family="IPAexGothic" font-weight="bold" font-size="1.7462" text-anchor="start" fill="currentColor">
<tspan>4</tspan>
</text>
</g>
</g>
<g transform="translate(10.7022, 33.9181)">
<rect x="-0.0460" y="-1.8033" width="0.0920" height="3.3033" ry="0.0222" fill="currentColor"/>
</g>
<g transform="translate(14.1326, 31.9181)">
<path transform="scale(0.0040, -0.0040)" d="M222 135c53 0 104 -27 104 -86c0 -71 -56 -120 -103 -148c-36 -22 -76 -36 -118 -36c-53 0 -105 27 -105 86c0 71 57 120 104 148c36 22 76 36 118 36z" fill="currentColor"/>
</g>
<g transform="translate(10.0761, 39.3310)">
<text font-family="IPAexGothic" font-size="2.4695" text-anchor="start" fill="currentColor">
<tspan>あ</tspan>
</text>
</g>
<g transform="translate(10.6561, 31.9181)">
<path transform="scale(0.0040, -0.0040)" d="M222 135c53 0 104 -27 104 -86c0 -71 -56 -120 -103 -148c-36 -22 -76 -36 -118 -36c-53 0 -105 27 -105 86c0 71 57 120 104 148c36 22 76 36 118 36z" fill="currentColor"/>
</g>
<g transform="translate(13.5526, 39.3310)">
<text font-family="IPAexGothic" font-size="2.4695" text-anchor="start" fill="currentColor">
<tspan>わ</tspan>
</text>
</g>
<g color="rgb(100.0000%, 100.0000%, 100.0000%)">
<g transform="translate(14.1326, 41.5864)">
<rect x="0.1100" y="-0.6382" width="1.1002" height="1.2764" ry="0.0000" fill="currentColor"/>
</g>
</g>
<g transform="scale(1.0000, 1.0000)">
<g transform="translate(14.2426, 42.2246)">
<text font-family="IPAexGothic" font-weight="bold" font-size="1.7462" text-anchor="start" fill="currentColor">
<tspan>4</tspan>
</text>
</g>
</g>
<g transform="translate(14.1786, 33.9181)">
<rect x="-0.0460" y="-1.8033" width="0.0920" height="3.3033" ry="0.0222" fill="currentColor"/>
</g>
<g transform="translate(17.6091, 31.4181)">
<path transform="scale(0.0040, -0.0040)" d="M222 135c53 0 104 -27 104 -86c0 -71 -56 -120 -103 -148c-36 -22 -76 -36 -118 -36c-53 0 -105 27 -105 86c0 71 57 120 104 148c36 22 76 36 118 36z" fill="currentColor"/>
</g>
<g color="rgb(100.0000%, 100.0000%, 100.0000%)">
<g transform="translate(17.6091, 41.5864)">
<rect x="0.1100" y="-0.6489" width="1.1002" height="1.2977" ry="0.0000" fill="currentColor"/>
</g>
</g>
<g transform="scale(1.0000, 1.0000)">
<g transform="translate(17.7191, 42.2267)">
<text font-family="IPAexGothic" font-weight="bold" font-size="1.7462" text-anchor="start" fill="currentColor">
<tspan>6</tspan>
</text>
</g>
</g>
<g transform="translate(17.6551, 33.9181)">
<rect x="-0.0460" y="-2.3033" width="0.0920" height="3.3033" ry="0.0222" fill="currentColor"/>
</g>
<g transform="translate(4.5511, 38.4516)">
<text font-family="IPAexGothic" font-style="italic" font-size="1.3859" text-anchor="start" fill="currentColor">
<tspan>8</tspan>
</text>
</g>
<g transform="translate(3.9614, 34.9181)">
<path transform="scale(0.0040, -0.0040)" d="M374 260c5 0 10 1 15 1c154 0 254 -127 254 -259c0 -76 -33 -153 -107 -208c-22 -17 -47 -29 -73 -37c3 -36 5 -72 5 -108c0 -19 0 -37 -1 -56c-7 -120 -88 -226 -206 -226c-108 0 -195 87 -195 195c0 58 53 104 112 104c54 0 95 -48 95 -104c0 -52 -43 -95 -95 -95
c-12 0 -24 4 -35 9c26 -41 70 -70 121 -70c1 0 2 1 3 1c93 2 154 93 160 192c1 18 2 35 2 53c0 32 -2 64 -5 96c-29 -5 -58 -8 -89 -8c-188 0 -333 171 -333 372c0 178 133 306 251 440c-18 63 -35 126 -42 191c-6 51 -7 102 -7 154c0 116 55 226 150 295c5 4 11 4 16 0
c70 -84 132 -246 132 -359c0 -144 -87 -256 -183 -365c20 -69 39 -138 55 -208zM459 -205c69 24 117 96 117 166c0 92 -69 184 -179 193c25 -117 48 -235 62 -359zM71 31c0 -136 131 -251 267 -251c28 0 55 2 82 6c-15 128 -38 247 -64 367c-79 -9 -125 -62 -125 -121
c0 -44 26 -92 82 -124c4 -4 7 -9 7 -14c0 -11 -9 -21 -20 -21c-3 0 -6 1 -9 2c-80 43 -116 114 -116 184c0 88 57 173 158 196c-14 60 -30 119 -46 178c-108 -121 -216 -242 -216 -402zM411 1050c-99 -50 -161 -151 -161 -262c0 -76 15 -137 33 -200c82 97 149 198 149 325
c0 58 -4 84 -21 137z" fill="currentColor"/>
</g>
<g transform="translate(3.1481, 38.2523)">
<rect x="0.0000" y="-6.3695" width="0.1133" height="12.7391" ry="0.0354" fill="currentColor"/>
</g>
<g transform="translate(1.8981, 31.6577)">
<path transform="scale(0.0040, -0.0040)" d="M0 -56v91c0 12 10 21 22 21h43c164 0 281 136 377 272c10 14 32 -1 22 -15c-103 -145 -222 -369 -399 -369h-65z" fill="currentColor"/>
</g>
<g transform="translate(1.8981, 44.8468)">
<path transform="scale(0.0040, -0.0040)" d="M0 56h65c177 0 296 -224 399 -369c10 -14 -12 -29 -22 -15c-96 136 -213 272 -377 272h-43c-12 0 -22 9 -22 21v91z" fill="currentColor"/>
</g>
<g transform="translate(1.8981, 38.2523)">
<rect x="0.0000" y="-6.4145" width="0.4500" height="12.8291" ry="0.0000" fill="currentColor"/>
</g>
<g transform="translate(17.0290, 39.3310)">
<text font-family="IPAexGothic" font-size="2.4695" text-anchor="start" fill="currentColor">
<tspan>せ</tspan>
</text>
</g>
<g transform="translate(7.1797, 31.9181)">
<path transform="scale(0.0040, -0.0040)" d="M222 135c53 0 104 -27 104 -86c0 -71 -56 -120 -103 -148c-36 -22 -76 -36 -118 -36c-53 0 -105 27 -105 86c0 71 57 120 104 148c36 22 76 36 118 36z" fill="currentColor"/>
</g>
<g transform="translate(6.5996, 39.3310)">
<text font-family="IPAexGothic" font-size="2.4695" text-anchor="start" fill="currentColor">
<tspan>し</tspan>
</text>
</g>
<g color="rgb(100.0000%, 100.0000%, 100.0000%)">
<g transform="translate(7.1797, 41.5864)">
<rect x="0.1100" y="-0.6382" width="1.1002" height="1.2764" ry="0.0000" fill="currentColor"/>
</g>
</g>
<g transform="scale(1.0000, 1.0000)">
<g transform="translate(7.2897, 42.2246)">
<text font-family="IPAexGothic" font-weight="bold" font-size="1.7462" text-anchor="start" fill="currentColor">
<tspan>4</tspan>
</text>
</g>
</g>
<g transform="translate(7.2257, 33.9181)">
<rect x="-0.0460" y="-1.8033" width="0.0920" height="3.3033" ry="0.0222" fill="currentColor"/>
</g>
<g transform="translate(25.7262, 33.9181)">
<path transform="scale(0.0040, -0.0040)" d="M-23 -113c0 26 10 40 36 40c34 0 85 -15 130 -37l-137 164c-7 8 -10 17 -10 25c0 33 49 64 86 96c26 22 39 54 39 85c0 24 -8 47 -24 67l-39 46c-2 3 -3 6 -3 9c0 7 7 14 14 14c3 0 7 -1 10 -5l152 -182c7 -8 10 -17 10 -25c0 -33 -49 -64 -86 -96
c-26 -22 -39 -54 -39 -85c0 -24 8 -47 24 -67l87 -104c2 -3 3 -5 3 -8c0 -7 -7 -14 -14 -14c-3 0 -7 1 -10 5c-19 22 -66 43 -102 43c-40 0 -52 -29 -52 -70c0 -35 11 -75 28 -96c6 -7 -4 -16 -10 -9c-46 55 -93 150 -93 204z" fill="currentColor"/>
</g>
<g transform="translate(26.1762, 43.0864)">
<circle stroke-linejoin="round" stroke-linecap="round" fill="currentColor" stroke="currentColor" stroke-width="0" r="0.4500"/>
</g>
<g transform="translate(28.8947, 31.9181)">
<path transform="scale(0.0040, -0.0040)" d="M222 135c53 0 104 -27 104 -86c0 -71 -56 -120 -103 -148c-36 -22 -76 -36 -118 -36c-53 0 -105 27 -105 86c0 71 57 120 104 148c36 22 76 36 118 36z" fill="currentColor"/>
</g>
<g transform="translate(28.3146, 39.3310)">
<text font-family="IPAexGothic" font-size="2.4695" text-anchor="start" fill="currentColor">
<tspan>く</tspan>
</text>
</g>
<g color="rgb(100.0000%, 100.0000%, 100.0000%)">
<g transform="translate(28.8947, 41.5864)">
<rect x="0.1100" y="-0.6382" width="1.1002" height="1.2764" ry="0.0000" fill="currentColor"/>
</g>
</g>
<g transform="scale(1.0000, 1.0000)">
<g transform="translate(29.0047, 42.2246)">
<text font-family="IPAexGothic" font-weight="bold" font-size="1.7462" text-anchor="start" fill="currentColor">
<tspan>4</tspan>
</text>
</g>
</g>
<g transform="translate(28.9407, 33.9181)">
<rect x="-0.0460" y="-1.8033" width="0.0920" height="3.3033" ry="0.0222" fill="currentColor"/>
</g>
<g transform="translate(32.4961, 30.9181)">
<path transform="scale(0.0040, -0.0040)" d="M222 135c53 0 104 -27 104 -86c0 -71 -56 -120 -103 -148c-36 -22 -76 -36 -118 -36c-53 0 -105 27 -105 86c0 71 57 120 104 148c36 22 76 36 118 36z" fill="currentColor"/>
</g>
<g transform="translate(31.9161, 39.3310)">
<text font-family="IPAexGothic" font-size="2.4695" text-anchor="start" fill="currentColor">
<tspan>も</tspan>
</text>
</g>
<g color="rgb(100.0000%, 100.0000%, 100.0000%)">
<g transform="translate(32.4961, 41.5864)">
<rect x="0.1100" y="-0.6565" width="1.1002" height="1.3131" ry="0.0000" fill="currentColor"/>
</g>
</g>
<g transform="scale(1.0000, 1.0000)">
<g transform="translate(32.6061, 42.2276)">
<text font-family="IPAexGothic" font-weight="bold" font-size="1.7462" text-anchor="start" fill="currentColor">
<tspan>8</tspan>
</text>
</g>
</g>
<g transform="translate(32.5421, 33.9181)">
<rect x="-0.0460" y="-2.8033" width="0.0920" height="3.3033" ry="0.0222" fill="currentColor"/>
</g>
<g transform="translate(22.2497, 30.9181)">
<path transform="scale(0.0040, -0.0040)" d="M222 135c53 0 104 -27 104 -86c0 -71 -56 -120 -103 -148c-36 -22 -76 -36 -118 -36c-53 0 -105 27 -105 86c0 71 57 120 104 148c36 22 76 36 118 36z" fill="currentColor"/>
</g>
<g transform="translate(21.6697, 39.3310)">
<text font-family="IPAexGothic" font-size="2.4695" text-anchor="start" fill="currentColor">
<tspan>は</tspan>
</text>
</g>
<g color="rgb(100.0000%, 100.0000%, 100.0000%)">
<g transform="translate(22.2497, 41.5864)">
<rect x="0.1100" y="-0.6565" width="1.1002" height="1.3131" ry="0.0000" fill="currentColor"/>
</g>
</g>
<g transform="scale(1.0000, 1.0000)">
<g transform="translate(22.3597, 42.2276)">
<text font-family="IPAexGothic" font-weight="bold" font-size="1.7462" text-anchor="start" fill="currentColor">
<tspan>8</tspan>
</text>
</g>
</g>
<g transform="translate(22.2957, 33.9181)">
<rect x="-0.0460" y="-2.8033" width="0.0920" height="3.3033" ry="0.0222" fill="currentColor"/>
</g>
<g transform="translate(50.7831, 52.2258)">
<rect x="0.0000" y="6.9154" width="0.1345" height="5.6329" ry="0.0000" fill="currentColor"/>
</g>
<g transform="translate(63.0938, 66.2741)">
<rect x="0.0000" y="-1.5354" width="0.1345" height="3.0354" ry="0.0000" fill="currentColor"/>
</g>
<g transform="translate(63.0938, 52.2258)">
<rect x="0.0000" y="6.9154" width="0.1345" height="5.6329" ry="0.0000" fill="currentColor"/>
</g>
<g transform="translate(50.7831, 66.2741)">
<rect x="0.0000" y="-1.5354" width="0.1345" height="3.0354" ry="0.0000" fill="currentColor"/>
</g>
<g transform="translate(36.1463, 66.2741)">
<rect x="0.0000" y="-1.5354" width="0.1345" height="3.0354" ry="0.0000" fill="currentColor"/>
</g>
<g transform="translate(20.6815, 57.1058)">
<rect x="0.0000" y="-2.0000" width="0.1345" height="4.0354" ry="0.0000" fill="currentColor"/>
</g>
<g transform="translate(36.1463, 57.1058)">
<rect x="0.0000" y="-2.0000" width="0.1345" height="4.0354" ry="0.0000" fill="currentColor"/>
</g>
<g transform="translate(63.0938, 57.1058)">
<rect x="0.0000" y="-2.0000" width="0.1345" height="4.0354" ry="0.0000" fill="currentColor"/>
</g>
<g transform="translate(50.7831, 57.1058)">
<rect x="0.0000" y="-2.0000" width="0.1345" height="4.0354" ry="0.0000" fill="currentColor"/>
</g>
<g transform="translate(36.1463, 52.2258)">
<rect x="0.0000" y="6.9154" width="0.1345" height="5.6329" ry="0.0000" fill="currentColor"/>
</g>
<g transform="translate(20.6815, 66.2741)">
<rect x="0.0000" y="-1.5354" width="0.1345" height="3.0354" ry="0.0000" fill="currentColor"/>
</g>
<g transform="translate(20.6815, 52.2258)">
<rect x="0.0000" y="6.9154" width="0.1345" height="5.6329" ry="0.0000" fill="currentColor"/>
</g>
<g transform="translate(3.1614, 67.7741)">
<line stroke-linejoin="round" stroke-linecap="round" stroke-width="0.0708" stroke="currentColor" x1="0.0354" y1="0" x2="60.0315" y2="0"/>
</g>
<g transform="translate(3.1614, 66.2741)">
<line stroke-linejoin="round" stroke-linecap="round" stroke-width="0.0708" stroke="currentColor" x1="0.0354" y1="0" x2="60.0315" y2="0"/>
</g>
<g transform="translate(3.1614, 64.7741)">
<line stroke-linejoin="round" stroke-linecap="round" stroke-width="0.0708" stroke="currentColor" x1="0.0354" y1="0" x2="60.0315" y2="0"/>
</g>
<g transform="translate(3.1614, 54.1058)">
<rect x="29.3527" y="-0.0854" width="1.9587" height="0.1708" ry="0.0854" fill="currentColor"/>
</g>
<g transform="translate(3.1614, 54.1058)">
<rect x="19.4540" y="-0.0854" width="1.8073" height="0.1708" ry="0.0854" fill="currentColor"/>
</g>
<g transform="translate(3.1614, 59.1058)">
<line stroke-linejoin="round" stroke-linecap="round" stroke-width="0.0708" stroke="currentColor" x1="0.0354" y1="0" x2="60.0315" y2="0"/>
</g>
<g transform="translate(3.1614, 58.1058)">
<line stroke-linejoin="round" stroke-linecap="round" stroke-width="0.0708" stroke="currentColor" x1="0.0354" y1="0" x2="60.0315" y2="0"/>
</g>
<g transform="translate(3.1614, 57.1058)">
<line stroke-linejoin="round" stroke-linecap="round" stroke-width="0.0708" stroke="currentColor" x1="0.0354" y1="0" x2="60.0315" y2="0"/>
</g>
<g transform="translate(3.1614, 56.1058)">
<line stroke-linejoin="round" stroke-linecap="round" stroke-width="0.0708" stroke="currentColor" x1="0.0354" y1="0" x2="60.0315" y2="0"/>
</g>
<g transform="translate(3.1614, 55.1058)">
<line stroke-linejoin="round" stroke-linecap="round" stroke-width="0.0708" stroke="currentColor" x1="0.0354" y1="0" x2="60.0315" y2="0"/>
</g>
<g transform="translate(43.9591, 55.6058)">
<path transform="scale(0.0040, -0.0040)" d="M222 135c53 0 104 -27 104 -86c0 -71 -56 -120 -103 -148c-36 -22 -76 -36 -118 -36c-53 0 -105 27 -105 86c0 71 57 120 104 148c36 22 76 36 118 36z" fill="currentColor"/>
</g>
<g transform="translate(47.5412, 57.1058)">
<rect x="-0.0460" y="-2.3033" width="0.0920" height="3.3033" ry="0.0222" fill="currentColor"/>
</g>
<g color="rgb(100.0000%, 100.0000%, 100.0000%)">
<g transform="translate(47.4952, 64.7741)">
<rect x="0.1100" y="-0.6489" width="1.1002" height="1.2977" ry="0.0000" fill="currentColor"/>
</g>
</g>
<g transform="scale(1.0000, 1.0000)">
<g transform="translate(47.6052, 65.4144)">
<text font-family="IPAexGothic" font-weight="bold" font-size="1.7462" text-anchor="start" fill="currentColor">
<tspan>6</tspan>
</text>
</g>
</g>
<g transform="translate(46.9151, 62.5119)">
<text font-family="IPAexGothic" font-size="2.4695" text-anchor="start" fill="currentColor">
<tspan>え</tspan>
</text>
</g>
<g transform="translate(47.4952, 54.6058)">
<path transform="scale(0.0040, -0.0040)" d="M222 135c53 0 104 -27 104 -86c0 -71 -56 -120 -103 -148c-36 -22 -76 -36 -118 -36c-53 0 -105 27 -105 86c0 71 57 120 104 148c36 22 76 36 118 36z" fill="currentColor"/>
</g>
<g transform="translate(43.3791, 62.5119)">
<text font-family="IPAexGothic" font-size="2.4695" text-anchor="start" fill="currentColor">
<tspan>う</tspan>
</text>
</g>
<g transform="translate(44.0051, 57.1058)">
<rect x="-0.0460" y="-1.3033" width="0.0920" height="3.3033" ry="0.0222" fill="currentColor"/>
</g>
<g color="rgb(100.0000%, 100.0000%, 100.0000%)">
<g transform="translate(43.9591, 64.7741)">
<rect x="0.1100" y="-0.6561" width="1.1002" height="1.3122" ry="0.0000" fill="currentColor"/>
</g>
</g>
<g transform="scale(1.0000, 1.0000)">
<g transform="translate(44.0691, 65.4055)">
<text font-family="IPAexGothic" font-weight="bold" font-size="1.7462" text-anchor="start" fill="currentColor">
<tspan>#</tspan>
</text>
</g>
</g>
<g transform="translate(36.8649, 62.5119)">
<text font-family="IPAexGothic" font-size="2.4695" text-anchor="start" fill="currentColor">
<tspan>の</tspan>
</text>
</g>
<g transform="translate(37.4910, 57.1058)">
<rect x="-0.0460" y="-2.3033" width="0.0920" height="3.3033" ry="0.0222" fill="currentColor"/>
</g>
<g color="rgb(100.0000%, 100.0000%, 100.0000%)">
<g transform="translate(37.4450, 64.7741)">
<rect x="0.1100" y="-0.6489" width="1.1002" height="1.2977" ry="0.0000" fill="currentColor"/>
</g>
</g>
<g transform="scale(1.0000, 1.0000)">
<g transform="translate(37.5550, 65.4144)">
<text font-family="IPAexGothic" font-weight="bold" font-size="1.7462" text-anchor="start" fill="currentColor">
<tspan>6</tspan>
</text>
</g>
</g>
<g transform="translate(37.4450, 54.6058)">
<path transform="scale(0.0040, -0.0040)" d="M222 135c53 0 104 -27 104 -86c0 -71 -56 -120 -103 -148c-36 -22 -76 -36 -118 -36c-53 0 -105 27 -105 86c0 71 57 120 104 148c36 22 76 36 118 36z" fill="currentColor"/>
</g>
<g transform="translate(41.3060, 66.2741)">
<circle stroke-linejoin="round" stroke-linecap="round" fill="currentColor" stroke="currentColor" stroke-width="0" r="0.4500"/>
</g>
<g transform="translate(40.8560, 57.1058)">
<path transform="scale(0.0040, -0.0040)" d="M-23 -113c0 26 10 40 36 40c34 0 85 -15 130 -37l-137 164c-7 8 -10 17 -10 25c0 33 49 64 86 96c26 22 39 54 39 85c0 24 -8 47 -24 67l-39 46c-2 3 -3 6 -3 9c0 7 7 14 14 14c3 0 7 -1 10 -5l152 -182c7 -8 10 -17 10 -25c0 -33 -49 -64 -86 -96
c-26 -22 -39 -54 -39 -85c0 -24 8 -47 24 -67l87 -104c2 -3 3 -5 3 -8c0 -7 -7 -14 -14 -14c-3 0 -7 1 -10 5c-19 22 -66 43 -102 43c-40 0 -52 -29 -52 -70c0 -35 11 -75 28 -96c6 -7 -4 -16 -10 -9c-46 55 -93 150 -93 204z" fill="currentColor"/>
</g>
<g transform="translate(52.0708, 56.1058)">
<path transform="scale(0.0040, -0.0040)" d="M222 135c53 0 104 -27 104 -86c0 -71 -56 -120 -103 -148c-36 -22 -76 -36 -118 -36c-53 0 -105 27 -105 86c0 71 57 120 104 148c36 22 76 36 118 36z" fill="currentColor"/>
</g>
<g transform="translate(51.4907, 62.5119)">
<text font-family="IPAexGothic" font-size="2.4695" text-anchor="start" fill="currentColor">
<tspan>に</tspan>
</text>
</g>
<g color="rgb(100.0000%, 100.0000%, 100.0000%)">
<g transform="translate(52.0708, 64.7741)">
<rect x="0.1100" y="-0.6446" width="1.1002" height="1.2892" ry="0.0000" fill="currentColor"/>
</g>
</g>
<g transform="scale(1.0000, 1.0000)">
<g transform="translate(52.1808, 65.4187)">
<text font-family="IPAexGothic" font-weight="bold" font-size="1.7462" text-anchor="start" fill="currentColor">
<tspan>2</tspan>
</text>
</g>
</g>
<g transform="translate(52.1168, 57.1058)">
<rect x="-0.0460" y="-0.8033" width="0.0920" height="3.3033" ry="0.0222" fill="currentColor"/>
</g>
<g transform="translate(55.4819, 57.1058)">
<path transform="scale(0.0040, -0.0040)" d="M367 0h-359c-4 0 -8 4 -8 8v140c0 4 4 8 8 8h359c4 0 8 -4 8 -8v-140c0 -4 -4 -8 -8 -8z" fill="currentColor"/>
</g>
<g transform="translate(55.9319, 66.2741)">
<circle stroke-linejoin="round" stroke-linecap="round" fill="currentColor" stroke="currentColor" stroke-width="0" r="0.4500"/>
</g>
<g transform="translate(55.4819, 66.2741)">
<path stroke-width="0.1200" stroke-linejoin="round" stroke-linecap="square" stroke="currentColor" fill="none" d="M2 -0.6700l1 0"/>
</g>
<g color="rgb(100.0000%, 100.0000%, 100.0000%)">
<g transform="translate(10.5715, 64.7741)">
<rect x="0.1100" y="-0.6382" width="1.1002" height="1.2764" ry="0.0000" fill="currentColor"/>
</g>
</g>
<g transform="scale(1.0000, 1.0000)">
<g transform="translate(10.6815, 65.4123)">
<text font-family="IPAexGothic" font-weight="bold" font-size="1.7462" text-anchor="start" fill="currentColor">
<tspan>4</tspan>
</text>
</g>
</g>
<g transform="translate(10.6175, 57.1058)">
<rect x="-0.0460" y="-1.8033" width="0.0920" height="3.3033" ry="0.0222" fill="currentColor"/>
</g>
<g transform="translate(13.9826, 55.1058)">
<path transform="scale(0.0040, -0.0040)" d="M222 135c53 0 104 -27 104 -86c0 -71 -56 -120 -103 -148c-36 -22 -76 -36 -118 -36c-53 0 -105 27 -105 86c0 71 57 120 104 148c36 22 76 36 118 36z" fill="currentColor"/>
</g>
<g transform="translate(9.9915, 62.5119)">
<text font-family="IPAexGothic" font-size="2.4695" text-anchor="start" fill="currentColor">
<tspan>あ</tspan>
</text>
</g>
<g transform="translate(10.5715, 55.1058)">
<path transform="scale(0.0040, -0.0040)" d="M222 135c53 0 104 -27 104 -86c0 -71 -56 -120 -103 -148c-36 -22 -76 -36 -118 -36c-53 0 -105 27 -105 86c0 71 57 120 104 148c36 22 76 36 118 36z" fill="currentColor"/>
</g>
<g transform="translate(17.4397, 57.1058)">
<rect x="-0.0460" y="-2.3033" width="0.0920" height="3.3033" ry="0.0222" fill="currentColor"/>
</g>
<g color="rgb(100.0000%, 100.0000%, 100.0000%)">
<g transform="translate(17.3937, 64.7741)">
<rect x="0.1100" y="-0.6489" width="1.1002" height="1.2977" ry="0.0000" fill="currentColor"/>
</g>
</g>
<g transform="scale(1.0000, 1.0000)">
<g transform="translate(17.5037, 65.4144)">
<text font-family="IPAexGothic" font-weight="bold" font-size="1.7462" text-anchor="start" fill="currentColor">
<tspan>6</tspan>
</text>
</g>
</g>
<g transform="translate(16.8136, 62.5119)">
<text font-family="IPAexGothic" font-size="2.4695" text-anchor="start" fill="currentColor">
<tspan>せ</tspan>
</text>
</g>
<g transform="translate(17.3937, 54.6058)">
<path transform="scale(0.0040, -0.0040)" d="M222 135c53 0 104 -27 104 -86c0 -71 -56 -120 -103 -148c-36 -22 -76 -36 -118 -36c-53 0 -105 27 -105 86c0 71 57 120 104 148c36 22 76 36 118 36z" fill="currentColor"/>
</g>
<g transform="translate(14.0286, 57.1058)">
<rect x="-0.0460" y="-1.8033" width="0.0920" height="3.3033" ry="0.0222" fill="currentColor"/>
</g>
<g color="rgb(100.0000%, 100.0000%, 100.0000%)">
<g transform="translate(13.9826, 64.7741)">
<rect x="0.1100" y="-0.6382" width="1.1002" height="1.2764" ry="0.0000" fill="currentColor"/>
</g>
</g>
<g transform="scale(1.0000, 1.0000)">
<g transform="translate(14.0926, 65.4123)">
<text font-family="IPAexGothic" font-weight="bold" font-size="1.7462" text-anchor="start" fill="currentColor">
<tspan>4</tspan>
</text>
</g>
</g>
<g transform="translate(13.4025, 62.5119)">
<text font-family="IPAexGothic" font-size="2.4695" text-anchor="start" fill="currentColor">
<tspan>わ</tspan>
</text>
</g>
<g transform="translate(4.5511, 61.6393)">
<text font-family="IPAexGothic" font-style="italic" font-size="1.3859" text-anchor="start" fill="currentColor">
<tspan>8</tspan>
</text>
</g>
<g transform="translate(3.9614, 58.1058)">
<path transform="scale(0.0040, -0.0040)" d="M374 260c5 0 10 1 15 1c154 0 254 -127 254 -259c0 -76 -33 -153 -107 -208c-22 -17 -47 -29 -73 -37c3 -36 5 -72 5 -108c0 -19 0 -37 -1 -56c-7 -120 -88 -226 -206 -226c-108 0 -195 87 -195 195c0 58 53 104 112 104c54 0 95 -48 95 -104c0 -52 -43 -95 -95 -95
c-12 0 -24 4 -35 9c26 -41 70 -70 121 -70c1 0 2 1 3 1c93 2 154 93 160 192c1 18 2 35 2 53c0 32 -2 64 -5 96c-29 -5 -58 -8 -89 -8c-188 0 -333 171 -333 372c0 178 133 306 251 440c-18 63 -35 126 -42 191c-6 51 -7 102 -7 154c0 116 55 226 150 295c5 4 11 4 16 0
c70 -84 132 -246 132 -359c0 -144 -87 -256 -183 -365c20 -69 39 -138 55 -208zM459 -205c69 24 117 96 117 166c0 92 -69 184 -179 193c25 -117 48 -235 62 -359zM71 31c0 -136 131 -251 267 -251c28 0 55 2 82 6c-15 128 -38 247 -64 367c-79 -9 -125 -62 -125 -121
c0 -44 26 -92 82 -124c4 -4 7 -9 7 -14c0 -11 -9 -21 -20 -21c-3 0 -6 1 -9 2c-80 43 -116 114 -116 184c0 88 57 173 158 196c-14 60 -30 119 -46 178c-108 -121 -216 -242 -216 -402zM411 1050c-99 -50 -161 -151 -161 -262c0 -76 15 -137 33 -200c82 97 149 198 149 325
c0 58 -4 84 -21 137z" fill="currentColor"/>
</g>
<g transform="translate(3.1481, 61.4400)">
<rect x="0.0000" y="-6.3695" width="0.1133" height="12.7391" ry="0.0354" fill="currentColor"/>
</g>
<g transform="translate(1.8981, 54.8454)">
<path transform="scale(0.0040, -0.0040)" d="M0 -56v91c0 12 10 21 22 21h43c164 0 281 136 377 272c10 14 32 -1 22 -15c-103 -145 -222 -369 -399 -369h-65z" fill="currentColor"/>
</g>
<g transform="translate(1.8981, 68.0345)">
<path transform="scale(0.0040, -0.0040)" d="M0 56h65c177 0 296 -224 399 -369c10 -14 -12 -29 -22 -15c-96 136 -213 272 -377 272h-43c-12 0 -22 9 -22 21v91z" fill="currentColor"/>
</g>
<g transform="translate(1.8981, 61.4400)">
<rect x="0.0000" y="-6.4145" width="0.4500" height="12.8291" ry="0.0000" fill="currentColor"/>
</g>
<g transform="translate(32.8866, 57.1058)">
<rect x="-0.0460" y="-2.8033" width="0.0920" height="3.3033" ry="0.0222" fill="currentColor"/>
</g>
<g transform="translate(7.1604, 55.1058)">
<path transform="scale(0.0040, -0.0040)" d="M222 135c53 0 104 -27 104 -86c0 -71 -56 -120 -103 -148c-36 -22 -76 -36 -118 -36c-53 0 -105 27 -105 86c0 71 57 120 104 148c36 22 76 36 118 36z" fill="currentColor"/>
</g>
<g transform="translate(6.5804, 62.5119)">
<text font-family="IPAexGothic" font-size="2.4695" text-anchor="start" fill="currentColor">
<tspan>し</tspan>
</text>
</g>
<g color="rgb(100.0000%, 100.0000%, 100.0000%)">
<g transform="translate(7.1604, 64.7741)">
<rect x="0.1100" y="-0.6382" width="1.1002" height="1.2764" ry="0.0000" fill="currentColor"/>
</g>
</g>
<g transform="scale(1.0000, 1.0000)">
<g transform="translate(7.2704, 65.4123)">
<text font-family="IPAexGothic" font-weight="bold" font-size="1.7462" text-anchor="start" fill="currentColor">
<tspan>4</tspan>
</text>
</g>
</g>
<g transform="translate(7.2064, 57.1058)">
<rect x="-0.0460" y="-1.8033" width="0.0920" height="3.3033" ry="0.0222" fill="currentColor"/>
</g>
<g transform="translate(26.2014, 57.1058)">
<path transform="scale(0.0040, -0.0040)" d="M-23 -113c0 26 10 40 36 40c34 0 85 -15 130 -37l-137 164c-7 8 -10 17 -10 25c0 33 49 64 86 96c26 22 39 54 39 85c0 24 -8 47 -24 67l-39 46c-2 3 -3 6 -3 9c0 7 7 14 14 14c3 0 7 -1 10 -5l152 -182c7 -8 10 -17 10 -25c0 -33 -49 -64 -86 -96
c-26 -22 -39 -54 -39 -85c0 -24 8 -47 24 -67l87 -104c2 -3 3 -5 3 -8c0 -7 -7 -14 -14 -14c-3 0 -7 1 -10 5c-19 22 -66 43 -102 43c-40 0 -52 -29 -52 -70c0 -35 11 -75 28 -96c6 -7 -4 -16 -10 -9c-46 55 -93 150 -93 204z" fill="currentColor"/>
</g>
<g transform="translate(26.6514, 66.2741)">
<circle stroke-linejoin="round" stroke-linecap="round" fill="currentColor" stroke="currentColor" stroke-width="0" r="0.4500"/>
</g>
<g transform="translate(29.3045, 55.1058)">
<path transform="scale(0.0040, -0.0040)" d="M222 135c53 0 104 -27 104 -86c0 -71 -56 -120 -103 -148c-36 -22 -76 -36 -118 -36c-53 0 -105 27 -105 86c0 71 57 120 104 148c36 22 76 36 118 36z" fill="currentColor"/>
</g>
<g transform="translate(28.7245, 62.5119)">
<text font-family="IPAexGothic" font-size="2.4695" text-anchor="start" fill="currentColor">
<tspan>そ</tspan>
</text>
</g>
<g color="rgb(100.0000%, 100.0000%, 100.0000%)">
<g transform="translate(29.3045, 64.7741)">
<rect x="0.1100" y="-0.6382" width="1.1002" height="1.2764" ry="0.0000" fill="currentColor"/>
</g>
</g>
<g transform="scale(1.0000, 1.0000)">
<g transform="translate(29.4145, 65.4123)">
<text font-family="IPAexGothic" font-weight="bold" font-size="1.7462" text-anchor="start" fill="currentColor">
<tspan>4</tspan>
</text>
</g>
</g>
<g transform="translate(29.3505, 57.1058)">
<rect x="-0.0460" y="-1.8033" width="0.0920" height="3.3033" ry="0.0222" fill="currentColor"/>
</g>
<g transform="translate(32.8406, 54.1058)">
<path transform="scale(0.0040, -0.0040)" d="M222 135c53 0 104 -27 104 -86c0 -71 -56 -120 -103 -148c-36 -22 -76 -36 -118 -36c-53 0 -105 27 -105 86c0 71 57 120 104 148c36 22 76 36 118 36z" fill="currentColor"/>
</g>
<g transform="translate(32.2606, 62.5119)">
<text font-family="IPAexGothic" font-size="2.4695" text-anchor="start" fill="currentColor">
<tspan>ら</tspan>
</text>
</g>
<g color="rgb(100.0000%, 100.0000%, 100.0000%)">
<g transform="translate(32.8406, 64.7741)">
<rect x="0.1100" y="-0.6322" width="1.1002" height="1.2644" ry="0.0000" fill="currentColor"/>
</g>
</g>
<g transform="scale(1.0000, 1.0000)">
<g transform="translate(32.9506, 65.4063)">
<text font-family="IPAexGothic" font-weight="bold" font-size="1.7462" text-anchor="start" fill="currentColor">
<tspan>7</tspan>
</text>
</g>
</g>
<g transform="translate(22.7904, 54.1058)">
<path transform="scale(0.0040, -0.0040)" d="M222 135c53 0 104 -27 104 -86c0 -71 -56 -120 -103 -148c-36 -22 -76 -36 -118 -36c-53 0 -105 27 -105 86c0 71 57 120 104 148c36 22 76 36 118 36z" fill="currentColor"/>
</g>
<g transform="translate(22.2103, 62.5119)">
<text font-family="IPAexGothic" font-size="2.4695" text-anchor="start" fill="currentColor">
<tspan>は</tspan>
</text>
</g>
<g color="rgb(100.0000%, 100.0000%, 100.0000%)">
<g transform="translate(22.7904, 64.7741)">
<rect x="0.1100" y="-0.6322" width="1.1002" height="1.2644" ry="0.0000" fill="currentColor"/>
</g>
</g>
<g transform="scale(1.0000, 1.0000)">
<g transform="translate(22.9004, 65.4063)">
<text font-family="IPAexGothic" font-weight="bold" font-size="1.7462" text-anchor="start" fill="currentColor">
<tspan>7</tspan>
</text>
</g>
</g>
<g transform="translate(22.8364, 57.1058)">
<rect x="-0.0460" y="-2.8033" width="0.0920" height="3.3033" ry="0.0222" fill="currentColor"/>
</g>
<g transform="translate(21.6404, 54.1058)">
<path transform="scale(0.0040, -0.0040)" d="M25 44l-1 -69c0 -4 -1 -7 -1 -11c0 -22 2 -44 4 -66c46 38 96 80 96 139c0 34 -14 69 -44 69c-31 0 -53 -29 -54 -62zM-25 463c8 4 16 7 25 7s17 -3 25 -7l-6 -349c26 19 56 30 88 30c53 0 93 -46 93 -100c0 -82 -90 -118 -153 -169c-14 -11 -22 -32 -40 -32
c-12 0 -21 9 -21 21z" fill="currentColor"/>
</g>
<g transform="translate(3.1614, 82.2936)">
<line stroke-linejoin="round" stroke-linecap="round" stroke-width="0.0708" stroke="currentColor" x1="0.0354" y1="0" x2="60.0315" y2="0"/>
</g>
<g transform="translate(3.1614, 81.2936)">
<line stroke-linejoin="round" stroke-linecap="round" stroke-width="0.0708" stroke="currentColor" x1="0.0354" y1="0" x2="60.0315" y2="0"/>
</g>
<g transform="translate(3.1614, 80.2936)">
<line stroke-linejoin="round" stroke-linecap="round" stroke-width="0.0708" stroke="currentColor" x1="0.0354" y1="0" x2="60.0315" y2="0"/>
</g>
<g transform="translate(3.1614, 79.2936)">
<line stroke-linejoin="round" stroke-linecap="round" stroke-width="0.0708" stroke="currentColor" x1="0.0354" y1="0" x2="60.0315" y2="0"/>
</g>
<g transform="translate(3.1614, 78.2936)">
<line stroke-linejoin="round" stroke-linecap="round" stroke-width="0.0708" stroke="currentColor" x1="0.0354" y1="0" x2="60.0315" y2="0"/>
</g>
<g transform="translate(22.5663, 76.5136)">
<rect x="0.0000" y="5.8154" width="0.1345" height="5.6329" ry="0.0000" fill="currentColor"/>
</g>
<g transform="translate(22.5663, 89.4618)">
<rect x="0.0000" y="-1.5354" width="0.1345" height="3.0354" ry="0.0000" fill="currentColor"/>
</g>
<g transform="translate(22.5663, 80.2936)">
<rect x="0.0000" y="-2.0000" width="0.1345" height="4.0354" ry="0.0000" fill="currentColor"/>
</g>
<g transform="translate(36.2834, 76.5136)">
<rect x="0.0000" y="5.8154" width="0.1345" height="5.6329" ry="0.0000" fill="currentColor"/>
</g>
<g transform="translate(63.0938, 80.2936)">
<rect x="0.0000" y="-2.0000" width="0.1345" height="4.0354" ry="0.0000" fill="currentColor"/>
</g>
<g transform="translate(36.2834, 89.4618)">
<rect x="0.0000" y="-1.5354" width="0.1345" height="3.0354" ry="0.0000" fill="currentColor"/>
</g>
<g transform="translate(63.0938, 89.4618)">
<rect x="0.0000" y="-1.5354" width="0.1345" height="3.0354" ry="0.0000" fill="currentColor"/>
</g>
<g transform="translate(63.0938, 76.5136)">
<rect x="0.0000" y="5.8154" width="0.1345" height="5.6329" ry="0.0000" fill="currentColor"/>
</g>
<g transform="translate(49.3767, 76.5136)">
<rect x="0.0000" y="5.8154" width="0.1345" height="5.6329" ry="0.0000" fill="currentColor"/>
</g>
<g transform="translate(36.2834, 80.2936)">
<rect x="0.0000" y="-2.0000" width="0.1345" height="4.0354" ry="0.0000" fill="currentColor"/>
</g>
<g transform="translate(49.3767, 89.4618)">
<rect x="0.0000" y="-1.5354" width="0.1345" height="3.0354" ry="0.0000" fill="currentColor"/>
</g>
<g transform="translate(3.1614, 90.9618)">
<line stroke-linejoin="round" stroke-linecap="round" stroke-width="0.0708" stroke="currentColor" x1="0.0354" y1="0" x2="60.0315" y2="0"/>
</g>
<g transform="translate(3.1614, 89.4618)">
<line stroke-linejoin="round" stroke-linecap="round" stroke-width="0.0708" stroke="currentColor" x1="0.0354" y1="0" x2="60.0315" y2="0"/>
</g>
<g transform="translate(3.1614, 87.9618)">
<line stroke-linejoin="round" stroke-linecap="round" stroke-width="0.0708" stroke="currentColor" x1="0.0354" y1="0" x2="60.0315" y2="0"/>
</g>
<g transform="translate(49.3767, 80.2936)">
<rect x="0.0000" y="-2.0000" width="0.1345" height="4.0354" ry="0.0000" fill="currentColor"/>
</g>
<g transform="translate(43.8861, 89.4618)">
<circle stroke-linejoin="round" stroke-linecap="round" fill="currentColor" stroke="currentColor" stroke-width="0" r="0.4500"/>
</g>
<g transform="translate(43.4361, 80.2936)">
<path transform="scale(0.0040, -0.0040)" d="M-23 -113c0 26 10 40 36 40c34 0 85 -15 130 -37l-137 164c-7 8 -10 17 -10 25c0 33 49 64 86 96c26 22 39 54 39 85c0 24 -8 47 -24 67l-39 46c-2 3 -3 6 -3 9c0 7 7 14 14 14c3 0 7 -1 10 -5l152 -182c7 -8 10 -17 10 -25c0 -33 -49 -64 -86 -96
c-26 -22 -39 -54 -39 -85c0 -24 8 -47 24 -67l87 -104c2 -3 3 -5 3 -8c0 -7 -7 -14 -14 -14c-3 0 -7 1 -10 5c-19 22 -66 43 -102 43c-40 0 -52 -29 -52 -70c0 -35 11 -75 28 -96c6 -7 -4 -16 -10 -9c-46 55 -93 150 -93 204z" fill="currentColor"/>
</g>
<g transform="translate(46.3111, 79.2936)">
<path transform="scale(0.0040, -0.0040)" d="M222 135c53 0 104 -27 104 -86c0 -71 -56 -120 -103 -148c-36 -22 -76 -36 -118 -36c-53 0 -105 27 -105 86c0 71 57 120 104 148c36 22 76 36 118 36z" fill="currentColor"/>
</g>
<g transform="translate(45.7311, 85.7069)">
<text font-family="IPAexGothic" font-size="2.4695" text-anchor="start" fill="currentColor">
<tspan>る</tspan>
</text>
</g>
<g transform="translate(50.6696, 80.2936)">
<rect x="-0.0460" y="-1.3033" width="0.0920" height="3.3033" ry="0.0222" fill="currentColor"/>
</g>
<g color="rgb(100.0000%, 100.0000%, 100.0000%)">
<g transform="translate(46.3111, 87.9618)">
<rect x="0.1100" y="-0.6446" width="1.1002" height="1.2892" ry="0.0000" fill="currentColor"/>
</g>
</g>
<g transform="scale(1.0000, 1.0000)">
<g transform="translate(46.4212, 88.6064)">
<text font-family="IPAexGothic" font-weight="bold" font-size="1.7462" text-anchor="start" fill="currentColor">
<tspan>2</tspan>
</text>
</g>
</g>
<g transform="translate(46.3572, 80.2936)">
<rect x="-0.0460" y="-0.8033" width="0.0920" height="3.3033" ry="0.0222" fill="currentColor"/>
</g>
<g color="rgb(100.0000%, 100.0000%, 100.0000%)">
<g transform="translate(50.6236, 87.9618)">
<rect x="0.1100" y="-0.6561" width="1.1002" height="1.3122" ry="0.0000" fill="currentColor"/>
</g>
</g>
<g transform="scale(1.0000, 1.0000)">
<g transform="translate(50.7336, 88.5932)">
<text font-family="IPAexGothic" font-weight="bold" font-size="1.7462" text-anchor="start" fill="currentColor">
<tspan>#</tspan>
</text>
</g>
</g>
<g transform="translate(50.0435, 85.7069)">
<text font-family="IPAexGothic" font-size="2.4695" text-anchor="start" fill="currentColor">
<tspan>こ</tspan>
</text>
</g>
<g transform="translate(50.6236, 78.7936)">
<path transform="scale(0.0040, -0.0040)" d="M222 135c53 0 104 -27 104 -86c0 -71 -56 -120 -103 -148c-36 -22 -76 -36 -118 -36c-53 0 -105 27 -105 86c0 71 57 120 104 148c36 22 76 36 118 36z" fill="currentColor"/>
</g>
<g transform="translate(37.8281, 89.4618)">
<circle stroke-linejoin="round" stroke-linecap="round" fill="currentColor" stroke="currentColor" stroke-width="0" r="0.4500"/>
</g>
<g transform="translate(37.3781, 80.2936)">
<path transform="scale(0.0040, -0.0040)" d="M-23 -113c0 26 10 40 36 40c34 0 85 -15 130 -37l-137 164c-7 8 -10 17 -10 25c0 33 49 64 86 96c26 22 39 54 39 85c0 24 -8 47 -24 67l-39 46c-2 3 -3 6 -3 9c0 7 7 14 14 14c3 0 7 -1 10 -5l152 -182c7 -8 10 -17 10 -25c0 -33 -49 -64 -86 -96
c-26 -22 -39 -54 -39 -85c0 -24 8 -47 24 -67l87 -104c2 -3 3 -5 3 -8c0 -7 -7 -14 -14 -14c-3 0 -7 1 -10 5c-19 22 -66 43 -102 43c-40 0 -52 -29 -52 -70c0 -35 11 -75 28 -96c6 -7 -4 -16 -10 -9c-46 55 -93 150 -93 204z" fill="currentColor"/>
</g>
<g transform="translate(40.2991, 80.2936)">
<rect x="-0.0460" y="-0.3033" width="0.0920" height="3.3033" ry="0.0222" fill="currentColor"/>
</g>
<g color="rgb(100.0000%, 100.0000%, 100.0000%)">
<g transform="translate(40.2531, 87.9618)">
<rect x="0.1100" y="-0.6489" width="1.1002" height="1.2977" ry="0.0000" fill="currentColor"/>
</g>
</g>
<g transform="scale(1.0000, 1.0000)">
<g transform="translate(40.3631, 88.6022)">
<text font-family="IPAexGothic" font-weight="bold" font-size="1.7462" text-anchor="start" fill="currentColor">
<tspan>0</tspan>
</text>
</g>
</g>
<g transform="translate(39.6731, 85.7069)">
<text font-family="IPAexGothic" font-size="2.4695" text-anchor="start" fill="currentColor">
<tspan>あ</tspan>
</text>
</g>
<g transform="translate(40.2531, 79.7936)">
<path transform="scale(0.0040, -0.0040)" d="M222 135c53 0 104 -27 104 -86c0 -71 -56 -120 -103 -148c-36 -22 -76 -36 -118 -36c-53 0 -105 27 -105 86c0 71 57 120 104 148c36 22 76 36 118 36z" fill="currentColor"/>
</g>
<g transform="translate(61.1034, 80.2936)">
<rect x="-0.0460" y="-3.0000" width="0.0920" height="3.3033" ry="0.0222" fill="currentColor"/>
</g>
<g color="rgb(100.0000%, 100.0000%, 100.0000%)">
<g transform="translate(59.8436, 89.4618)">
<rect x="0.1100" y="-0.6446" width="1.1002" height="1.2892" ry="0.0000" fill="currentColor"/>
</g>
</g>
<g transform="scale(1.0000, 1.0000)">
<g transform="translate(59.9536, 90.1064)">
<text font-family="IPAexGothic" font-weight="bold" font-size="1.7462" text-anchor="start" fill="currentColor">
<tspan>2</tspan>
</text>
</g>
</g>
<g transform="translate(59.8436, 80.7936)">
<path transform="scale(0.0040, -0.0040)" d="M222 135c53 0 104 -27 104 -86c0 -71 -56 -120 -103 -148c-36 -22 -76 -36 -118 -36c-53 0 -105 27 -105 86c0 71 57 120 104 148c36 22 76 36 118 36z" fill="currentColor"/>
</g>
<g transform="translate(57.9203, 80.2936)">
<rect x="-0.0460" y="-2.5000" width="0.0920" height="3.3033" ry="0.0222" fill="currentColor"/>
</g>
<g color="rgb(100.0000%, 100.0000%, 100.0000%)">
<g transform="translate(56.6605, 89.4618)">
<rect x="0.1100" y="-0.6489" width="1.1002" height="1.2977" ry="0.0000" fill="currentColor"/>
</g>
</g>
<g transform="scale(1.0000, 1.0000)">
<g transform="translate(56.7706, 90.1022)">
<text font-family="IPAexGothic" font-weight="bold" font-size="1.7462" text-anchor="start" fill="currentColor">
<tspan>0</tspan>
</text>
</g>
</g>
<g transform="translate(56.6605, 81.2936)">
<path transform="scale(0.0040, -0.0040)" d="M222 135c53 0 104 -27 104 -86c0 -71 -56 -120 -103 -148c-36 -22 -76 -36 -118 -36c-53 0 -105 27 -105 86c0 71 57 120 104 148c36 22 76 36 118 36z" fill="currentColor"/>
</g>
<g transform="translate(53.7276, 80.2936)">
<rect x="-0.0460" y="-0.3033" width="0.0920" height="3.3033" ry="0.0222" fill="currentColor"/>
</g>
<g color="rgb(100.0000%, 100.0000%, 100.0000%)">
<g transform="translate(53.6816, 87.9618)">
<rect x="0.1100" y="-0.6489" width="1.1002" height="1.2977" ry="0.0000" fill="currentColor"/>
</g>
</g>
<g transform="scale(1.0000, 1.0000)">
<g transform="translate(53.7916, 88.6022)">
<text font-family="IPAexGothic" font-weight="bold" font-size="1.7462" text-anchor="start" fill="currentColor">
<tspan>0</tspan>
</text>
</g>
</g>
<g transform="translate(53.6816, 85.7069)">
<text font-family="IPAexGothic" font-size="2.4695" text-anchor="start" fill="currentColor">
<tspan>う</tspan>
</text>
</g>
<g transform="translate(53.6816, 79.7936)">
<path transform="scale(0.0040, -0.0040)" d="M222 135c53 0 104 -27 104 -86c0 -71 -56 -120 -103 -148c-36 -22 -76 -36 -118 -36c-53 0 -105 27 -105 86c0 71 57 120 104 148c36 22 76 36 118 36z" fill="currentColor"/>
</g>
<g transform="translate(13.1973, 80.2936)">
<rect x="-0.0460" y="-0.3033" width="0.0920" height="3.3033" ry="0.0222" fill="currentColor"/>
</g>
<g color="rgb(100.0000%, 100.0000%, 100.0000%)">
<g transform="translate(13.1513, 87.9618)">
<rect x="0.1100" y="-0.6489" width="1.1002" height="1.2977" ry="0.0000" fill="currentColor"/>
</g>
</g>
<g transform="scale(1.0000, 1.0000)">
<g transform="translate(13.2613, 88.6022)">
<text font-family="IPAexGothic" font-weight="bold" font-size="1.7462" text-anchor="start" fill="currentColor">
<tspan>0</tspan>
</text>
</g>
</g>
<g transform="translate(12.5712, 85.7069)">
<text font-family="IPAexGothic" font-size="2.4695" text-anchor="start" fill="currentColor">
<tspan>え</tspan>
</text>
</g>
<g transform="translate(13.1513, 79.7936)">
<path transform="scale(0.0040, -0.0040)" d="M222 135c53 0 104 -27 104 -86c0 -71 -56 -120 -103 -148c-36 -22 -76 -36 -118 -36c-53 0 -105 27 -105 86c0 71 57 120 104 148c36 22 76 36 118 36z" fill="currentColor"/>
</g>
<g transform="translate(10.0143, 80.2936)">
<rect x="-0.0460" y="-0.3033" width="0.0920" height="3.3033" ry="0.0222" fill="currentColor"/>
</g>
<g color="rgb(100.0000%, 100.0000%, 100.0000%)">
<g transform="translate(9.9683, 87.9618)">
<rect x="0.1100" y="-0.6489" width="1.1002" height="1.2977" ry="0.0000" fill="currentColor"/>
</g>
</g>
<g transform="scale(1.0000, 1.0000)">
<g transform="translate(10.0783, 88.6022)">
<text font-family="IPAexGothic" font-weight="bold" font-size="1.7462" text-anchor="start" fill="currentColor">
<tspan>0</tspan>
</text>
</g>
</g>
<g transform="translate(9.3882, 85.7069)">
<text font-family="IPAexGothic" font-size="2.4695" text-anchor="start" fill="currentColor">
<tspan>う</tspan>
</text>
</g>
<g transform="translate(9.9683, 79.7936)">
<path transform="scale(0.0040, -0.0040)" d="M222 135c53 0 104 -27 104 -86c0 -71 -56 -120 -103 -148c-36 -22 -76 -36 -118 -36c-53 0 -105 27 -105 86c0 71 57 120 104 148c36 22 76 36 118 36z" fill="currentColor"/>
</g>
<g color="rgb(100.0000%, 100.0000%, 100.0000%)">
<g transform="translate(16.3343, 87.9618)">
<rect x="0.1100" y="-0.6446" width="1.1002" height="1.2892" ry="0.0000" fill="currentColor"/>
</g>
</g>
<g transform="scale(1.0000, 1.0000)">
<g transform="translate(16.4443, 88.6064)">
<text font-family="IPAexGothic" font-weight="bold" font-size="1.7462" text-anchor="start" fill="currentColor">
<tspan>2</tspan>
</text>
</g>
</g>
<g transform="translate(19.5173, 78.7936)">
<path transform="scale(0.0040, -0.0040)" d="M222 135c53 0 104 -27 104 -86c0 -71 -56 -120 -103 -148c-36 -22 -76 -36 -118 -36c-53 0 -105 27 -105 86c0 71 57 120 104 148c36 22 76 36 118 36z" fill="currentColor"/>
</g>
<g transform="translate(16.3803, 80.2936)">
<rect x="-0.0460" y="-0.8033" width="0.0920" height="3.3033" ry="0.0222" fill="currentColor"/>
</g>
<g transform="translate(15.7543, 85.7069)">
<text font-family="IPAexGothic" font-size="2.4695" text-anchor="start" fill="currentColor">
<tspan>を</tspan>
</text>
</g>
<g transform="translate(16.3343, 79.2936)">
<path transform="scale(0.0040, -0.0040)" d="M222 135c53 0 104 -27 104 -86c0 -71 -56 -120 -103 -148c-36 -22 -76 -36 -118 -36c-53 0 -105 27 -105 86c0 71 57 120 104 148c36 22 76 36 118 36z" fill="currentColor"/>
</g>
<g transform="translate(4.5511, 84.8271)">
<text font-family="IPAexGothic" font-style="italic" font-size="1.3859" text-anchor="start" fill="currentColor">
<tspan>8</tspan>
</text>
</g>
<g transform="translate(3.9614, 81.2936)">
<path transform="scale(0.0040, -0.0040)" d="M374 260c5 0 10 1 15 1c154 0 254 -127 254 -259c0 -76 -33 -153 -107 -208c-22 -17 -47 -29 -73 -37c3 -36 5 -72 5 -108c0 -19 0 -37 -1 -56c-7 -120 -88 -226 -206 -226c-108 0 -195 87 -195 195c0 58 53 104 112 104c54 0 95 -48 95 -104c0 -52 -43 -95 -95 -95
c-12 0 -24 4 -35 9c26 -41 70 -70 121 -70c1 0 2 1 3 1c93 2 154 93 160 192c1 18 2 35 2 53c0 32 -2 64 -5 96c-29 -5 -58 -8 -89 -8c-188 0 -333 171 -333 372c0 178 133 306 251 440c-18 63 -35 126 -42 191c-6 51 -7 102 -7 154c0 116 55 226 150 295c5 4 11 4 16 0
c70 -84 132 -246 132 -359c0 -144 -87 -256 -183 -365c20 -69 39 -138 55 -208zM459 -205c69 24 117 96 117 166c0 92 -69 184 -179 193c25 -117 48 -235 62 -359zM71 31c0 -136 131 -251 267 -251c28 0 55 2 82 6c-15 128 -38 247 -64 367c-79 -9 -125 -62 -125 -121
c0 -44 26 -92 82 -124c4 -4 7 -9 7 -14c0 -11 -9 -21 -20 -21c-3 0 -6 1 -9 2c-80 43 -116 114 -116 184c0 88 57 173 158 196c-14 60 -30 119 -46 178c-108 -121 -216 -242 -216 -402zM411 1050c-99 -50 -161 -151 -161 -262c0 -76 15 -137 33 -200c82 97 149 198 149 325
c0 58 -4 84 -21 137z" fill="currentColor"/>
</g>
<g transform="translate(3.1481, 84.6277)">
<rect x="0.0000" y="-6.3695" width="0.1133" height="12.7391" ry="0.0354" fill="currentColor"/>
</g>
<g transform="translate(1.8981, 78.0332)">
<path transform="scale(0.0040, -0.0040)" d="M0 -56v91c0 12 10 21 22 21h43c164 0 281 136 377 272c10 14 32 -1 22 -15c-103 -145 -222 -369 -399 -369h-65z" fill="currentColor"/>
</g>
<g transform="translate(1.8981, 91.2222)">
<path transform="scale(0.0040, -0.0040)" d="M0 56h65c177 0 296 -224 399 -369c10 -14 -12 -29 -22 -15c-96 136 -213 272 -377 272h-43c-12 0 -22 9 -22 21v91z" fill="currentColor"/>
</g>
<g transform="translate(1.8981, 84.6277)">
<rect x="0.0000" y="-6.4145" width="0.4500" height="12.8291" ry="0.0000" fill="currentColor"/>
</g>
<g transform="translate(7.5433, 89.4618)">
<circle stroke-linejoin="round" stroke-linecap="round" fill="currentColor" stroke="currentColor" stroke-width="0" r="0.4500"/>
</g>
<g transform="translate(7.0933, 80.2936)">
<path transform="scale(0.0040, -0.0040)" d="M-23 -113c0 26 10 40 36 40c34 0 85 -15 130 -37l-137 164c-7 8 -10 17 -10 25c0 33 49 64 86 96c26 22 39 54 39 85c0 24 -8 47 -24 67l-39 46c-2 3 -3 6 -3 9c0 7 7 14 14 14c3 0 7 -1 10 -5l152 -182c7 -8 10 -17 10 -25c0 -33 -49 -64 -86 -96
c-26 -22 -39 -54 -39 -85c0 -24 8 -47 24 -67l87 -104c2 -3 3 -5 3 -8c0 -7 -7 -14 -14 -14c-3 0 -7 1 -10 5c-19 22 -66 43 -102 43c-40 0 -52 -29 -52 -70c0 -35 11 -75 28 -96c6 -7 -4 -16 -10 -9c-46 55 -93 150 -93 204z" fill="currentColor"/>
</g>
<g transform="translate(26.9172, 80.2936)">
<rect x="-0.0460" y="-0.3033" width="0.0920" height="3.3033" ry="0.0222" fill="currentColor"/>
</g>
<g color="rgb(100.0000%, 100.0000%, 100.0000%)">
<g transform="translate(26.8712, 87.9618)">
<rect x="0.1100" y="-0.6489" width="1.1002" height="1.2977" ry="0.0000" fill="currentColor"/>
</g>
</g>
<g transform="scale(1.0000, 1.0000)">
<g transform="translate(26.9812, 88.6022)">
<text font-family="IPAexGothic" font-weight="bold" font-size="1.7462" text-anchor="start" fill="currentColor">
<tspan>0</tspan>
</text>
</g>
</g>
<g transform="translate(26.2911, 85.7069)">
<text font-family="IPAexGothic" font-size="2.4695" text-anchor="start" fill="currentColor">
<tspan>い</tspan>
</text>
</g>
<g transform="translate(26.8712, 79.7936)">
<path transform="scale(0.0040, -0.0040)" d="M222 135c53 0 104 -27 104 -86c0 -71 -56 -120 -103 -148c-36 -22 -76 -36 -118 -36c-53 0 -105 27 -105 86c0 71 57 120 104 148c36 22 76 36 118 36z" fill="currentColor"/>
</g>
<g transform="translate(19.5173, 85.7069)">
<text font-family="IPAexGothic" font-size="2.4695" text-anchor="start" fill="currentColor">
<tspan>む</tspan>
</text>
</g>
<g transform="translate(34.2929, 80.2936)">
<rect x="-0.0460" y="-3.0000" width="0.0920" height="3.3033" ry="0.0222" fill="currentColor"/>
</g>
<g color="rgb(100.0000%, 100.0000%, 100.0000%)">
<g transform="translate(33.0332, 89.4618)">
<rect x="0.1100" y="-0.6446" width="1.1002" height="1.2892" ry="0.0000" fill="currentColor"/>
</g>
</g>
<g transform="scale(1.0000, 1.0000)">
<g transform="translate(33.1432, 90.1064)">
<text font-family="IPAexGothic" font-weight="bold" font-size="1.7462" text-anchor="start" fill="currentColor">
<tspan>2</tspan>
</text>
</g>
</g>
<g transform="translate(33.0332, 80.7936)">
<path transform="scale(0.0040, -0.0040)" d="M222 135c53 0 104 -27 104 -86c0 -71 -56 -120 -103 -148c-36 -22 -76 -36 -118 -36c-53 0 -105 27 -105 86c0 71 57 120 104 148c36 22 76 36 118 36z" fill="currentColor"/>
</g>
<g transform="translate(31.1099, 80.2936)">
<rect x="-0.0460" y="-2.5000" width="0.0920" height="3.3033" ry="0.0222" fill="currentColor"/>
</g>
<g color="rgb(100.0000%, 100.0000%, 100.0000%)">
<g transform="translate(29.8501, 89.4618)">
<rect x="0.1100" y="-0.6489" width="1.1002" height="1.2977" ry="0.0000" fill="currentColor"/>
</g>
</g>
<g transform="scale(1.0000, 1.0000)">
<g transform="translate(29.9602, 90.1022)">
<text font-family="IPAexGothic" font-weight="bold" font-size="1.7462" text-anchor="start" fill="currentColor">
<tspan>0</tspan>
</text>
</g>
</g>
<g transform="translate(29.8501, 85.7069)">
<text font-family="IPAexGothic" font-size="2.4695" text-anchor="start" fill="currentColor">
<tspan>て</tspan>
</text>
</g>
<g transform="translate(29.8501, 81.2936)">
<path transform="scale(0.0040, -0.0040)" d="M222 135c53 0 104 -27 104 -86c0 -71 -56 -120 -103 -148c-36 -22 -76 -36 -118 -36c-53 0 -105 27 -105 86c0 71 57 120 104 148c36 22 76 36 118 36z" fill="currentColor"/>
</g>
<g transform="translate(23.8592, 80.2936)">
<rect x="-0.0460" y="-1.3033" width="0.0920" height="3.3033" ry="0.0222" fill="currentColor"/>
</g>
<g color="rgb(100.0000%, 100.0000%, 100.0000%)">
<g transform="translate(23.8132, 87.9618)">
<rect x="0.1100" y="-0.6561" width="1.1002" height="1.3122" ry="0.0000" fill="currentColor"/>
</g>
</g>
<g transform="scale(1.0000, 1.0000)">
<g transform="translate(23.9232, 88.5932)">
<text font-family="IPAexGothic" font-weight="bold" font-size="1.7462" text-anchor="start" fill="currentColor">
<tspan>#</tspan>
</text>
</g>
</g>
<g transform="translate(23.8132, 78.7936)">
<path transform="scale(0.0040, -0.0040)" d="M222 135c53 0 104 -27 104 -86c0 -71 -56 -120 -103 -148c-36 -22 -76 -36 -118 -36c-53 0 -105 27 -105 86c0 71 57 120 104 148c36 22 76 36 118 36z" fill="currentColor"/>
</g>
<g transform="translate(19.5633, 80.2936)">
<rect x="-0.0460" y="-1.3033" width="0.0920" height="3.3033" ry="0.0222" fill="currentColor"/>
</g>
<g color="rgb(100.0000%, 100.0000%, 100.0000%)">
<g transform="translate(19.5173, 87.9618)">
<rect x="0.1100" y="-0.6561" width="1.1002" height="1.3122" ry="0.0000" fill="currentColor"/>
</g>
</g>
<g transform="scale(1.0000, 1.0000)">
<g transform="translate(19.6273, 88.5932)">
<text font-family="IPAexGothic" font-weight="bold" font-size="1.7462" text-anchor="start" fill="currentColor">
<tspan>#</tspan>
</text>
</g>
</g>
</svg>
