<svg xmlns="http://www.w3.org/2000/svg" xmlns:xlink="http://www.w3.org/1999/xlink" version="1.2" width="210.00mm" height="297.00mm" viewBox="0 0 66.3898 93.8941">
<style type="text/css">
<![CDATA[
tspan { white-space: pre; }
]]>
</style>
<!-- Page: 2/2 -->
<g transform="translate(3.1614, 3.2049)">
<text font-family="IPAexGothic" font-size="2.2000" text-anchor="start" fill="currentColor">
<tspan>2</tspan>
</text>
</g>
<g transform="translate(3.1614, 7.8615)">
<line stroke-linejoin="round" stroke-linecap="round" stroke-width="0.0708" stroke="currentColor" x1="0.0354" y1="0" x2="60.0315" y2="0"/>
</g>
<g transform="translate(3.1614, 6.3615)">
<line stroke-linejoin="round" stroke-linecap="round" stroke-width="0.0708" stroke="currentColor" x1="0.0354" y1="0" x2="60.0315" y2="0"/>
</g>
<g transform="translate(3.1614, 4.8615)">
<line stroke-linejoin="round" stroke-linecap="round" stroke-width="0.0708" stroke="currentColor" x1="0.0354" y1="0" x2="60.0315" y2="0"/>
</g>
<g transform="translate(51.0589, 6.3615)">
<rect x="0.0000" y="-1.5000" width="0.1345" height="3.0000" ry="0.0000" fill="currentColor"/>
</g>
<g transform="translate(29.1744, 6.3615)">
<rect x="0.0000" y="-1.5000" width="0.1345" height="3.0000" ry="0.0000" fill="currentColor"/>
</g>
<g transform="translate(41.0833, 6.3615)">
<rect x="0.0000" y="-1.5000" width="0.1345" height="3.0000" ry="0.0000" fill="currentColor"/>
</g>
<g transform="translate(19.1987, 6.3615)">
<rect x="0.0000" y="-1.5000" width="0.1345" height="3.0000" ry="0.0000" fill="currentColor"/>
</g>
<g transform="translate(63.0938, 6.3615)">
<rect x="0.0000" y="-1.5000" width="0.1345" height="3.0000" ry="0.0000" fill="currentColor"/>
</g>
<g transform="translate(45.3649, 6.3615)">
<circle stroke-linejoin="round" stroke-linecap="round" fill="currentColor" stroke="currentColor" stroke-width="0" r="0.4500"/>
</g>
<g transform="translate(44.9149, 6.3615)">
<path stroke-width="0.1200" stroke-linejoin="round" stroke-linecap="square" stroke="currentColor" fill="none" d="M2 -0.6700l1 0"/>
</g>
<g color="rgb(100.0000%, 100.0000%, 100.0000%)">
<g transform="translate(52.1006, 4.8615)">
<rect x="0.1100" y="-0.6489" width="1.1002" height="1.2977" ry="0.0000" fill="currentColor"/>
</g>
</g>
<g transform="scale(1.0000, 1.0000)">
<g transform="translate(52.2107, 5.5018)">
<text font-family="IPAexGothic" font-weight="bold" font-size="1.7462" text-anchor="start" fill="currentColor">
<tspan>0</tspan>
</text>
</g>
</g>
<g transform="translate(51.5278, 10.4709)">
<text font-family="IPAexGothic" font-size="2.4695" text-anchor="start" fill="currentColor">
<tspan>ひ</tspan>
</text>
</g>
<g transform="translate(33.4560, 6.3615)">
<circle stroke-linejoin="round" stroke-linecap="round" fill="currentColor" stroke="currentColor" stroke-width="0" r="0.4500"/>
</g>
<g color="rgb(100.0000%, 100.0000%, 100.0000%)">
<g transform="translate(35.5356, 4.8615)">
<rect x="0.1100" y="-0.6446" width="1.1002" height="1.2892" ry="0.0000" fill="currentColor"/>
</g>
</g>
<g transform="scale(1.0000, 1.0000)">
<g transform="translate(35.6457, 5.5061)">
<text font-family="IPAexGothic" font-weight="bold" font-size="1.7462" text-anchor="start" fill="currentColor">
<tspan>2</tspan>
</text>
</g>
</g>
<g color="rgb(100.0000%, 100.0000%, 100.0000%)">
<g transform="translate(38.3255, 4.8615)">
<rect x="0.1100" y="-0.6489" width="1.1002" height="1.2977" ry="0.0000" fill="currentColor"/>
</g>
</g>
<g transform="scale(1.0000, 1.0000)">
<g transform="translate(38.4355, 5.5018)">
<text font-family="IPAexGothic" font-weight="bold" font-size="1.7462" text-anchor="start" fill="currentColor">
<tspan>0</tspan>
</text>
</g>
</g>
<g transform="translate(37.7527, 10.4709)">
<text font-family="IPAexGothic" font-size="2.4695" text-anchor="start" fill="currentColor">
<tspan>る</tspan>
</text>
</g>
<g color="rgb(100.0000%, 100.0000%, 100.0000%)">
<g transform="translate(42.1250, 4.8615)">
<rect x="0.1100" y="-0.6561" width="1.1002" height="1.3122" ry="0.0000" fill="currentColor"/>
</g>
</g>
<g transform="scale(1.0000, 1.0000)">
<g transform="translate(42.2350, 5.4928)">
<text font-family="IPAexGothic" font-weight="bold" font-size="1.7462" text-anchor="start" fill="currentColor">
<tspan>#</tspan>
</text>
</g>
</g>
<g transform="translate(41.5521, 10.4709)">
<text font-family="IPAexGothic" font-size="2.4695" text-anchor="start" fill="currentColor">
<tspan>く</tspan>
</text>
</g>
<g transform="translate(59.7633, 10.4709)">
<text font-family="IPAexGothic" font-size="2.4695" text-anchor="start" fill="currentColor">
<tspan>り</tspan>
</text>
</g>
<g color="rgb(100.0000%, 100.0000%, 100.0000%)">
<g transform="translate(60.3361, 4.8615)">
<rect x="0.1100" y="-0.6565" width="1.1002" height="1.3131" ry="0.0000" fill="currentColor"/>
</g>
</g>
<g transform="scale(1.0000, 1.0000)">
<g transform="translate(60.4461, 5.5026)">
<text font-family="IPAexGothic" font-weight="bold" font-size="1.7462" text-anchor="start" fill="currentColor">
<tspan>8</tspan>
</text>
</g>
</g>
<g color="rgb(100.0000%, 100.0000%, 100.0000%)">
<g transform="translate(55.0165, 4.8615)">
<rect x="0.1100" y="-0.6489" width="1.1002" height="1.2977" ry="0.0000" fill="currentColor"/>
</g>
</g>
<g transform="scale(1.0000, 1.0000)">
<g transform="translate(55.1266, 5.5018)">
<text font-family="IPAexGothic" font-weight="bold" font-size="1.7462" text-anchor="start" fill="currentColor">
<tspan>0</tspan>
</text>
</g>
</g>
<g transform="translate(54.4437, 10.4709)">
<text font-family="IPAexGothic" font-size="2.4695" text-anchor="start" fill="currentColor">
<tspan>と</tspan>
</text>
</g>
<g transform="translate(58.2564, 6.3615)">
<circle stroke-linejoin="round" stroke-linecap="round" fill="currentColor" stroke="currentColor" stroke-width="0" r="0.4500"/>
</g>
<g color="rgb(100.0000%, 100.0000%, 100.0000%)">
<g transform="translate(7.6911, 4.8615)">
<rect x="0.1100" y="-0.6489" width="1.1002" height="1.2977" ry="0.0000" fill="currentColor"/>
</g>
</g>
<g transform="scale(1.0000, 1.0000)">
<g transform="translate(7.8011, 5.5018)">
<text font-family="IPAexGothic" font-weight="bold" font-size="1.7462" text-anchor="start" fill="currentColor">
<tspan>0</tspan>
</text>
</g>
</g>
<g transform="translate(7.1183, 10.4709)">
<text font-family="IPAexGothic" font-size="2.4695" text-anchor="start" fill="currentColor">
<tspan>な</tspan>
</text>
</g>
<g transform="translate(11.2636, 7.1115)">
<path stroke-width="0.1200" stroke-linejoin="miter" stroke-linecap="square" stroke="currentColor" fill="none" d="M-0.4120 -0.4220L0.2280 -0.4270L0.2680 -0.3860C0.1100 0.0460 -0.1310 0.2760 -0.4870 0.4570M0.4940 0.4340C0.3790 0.3130 0.2470 0.1870 0.0440 0.0360"/>
</g>
<g color="rgb(100.0000%, 100.0000%, 100.0000%)">
<g transform="translate(10.6070, 4.8615)">
<rect x="0.1100" y="-0.6489" width="1.1002" height="1.2977" ry="0.0000" fill="currentColor"/>
</g>
</g>
<g transform="scale(1.0000, 1.0000)">
<g transform="translate(10.7170, 5.5018)">
<text font-family="IPAexGothic" font-weight="bold" font-size="1.7462" text-anchor="start" fill="currentColor">
<tspan>0</tspan>
</text>
</g>
</g>
<g transform="translate(10.0342, 10.4709)">
<text font-family="IPAexGothic" font-size="2.4695" text-anchor="start" fill="currentColor">
<tspan>き</tspan>
</text>
</g>
<g color="rgb(100.0000%, 100.0000%, 100.0000%)">
<g transform="translate(13.5229, 4.8615)">
<rect x="0.1100" y="-0.6489" width="1.1002" height="1.2977" ry="0.0000" fill="currentColor"/>
</g>
</g>
<g transform="scale(1.0000, 1.0000)">
<g transform="translate(13.6329, 5.5018)">
<text font-family="IPAexGothic" font-weight="bold" font-size="1.7462" text-anchor="start" fill="currentColor">
<tspan>0</tspan>
</text>
</g>
</g>
<g transform="translate(12.9501, 10.4709)">
<text font-family="IPAexGothic" font-size="2.4695" text-anchor="start" fill="currentColor">
<tspan>な</tspan>
</text>
</g>
<g color="rgb(100.0000%, 100.0000%, 100.0000%)">
<g transform="translate(16.4388, 6.3615)">
<rect x="0.1100" y="-0.6446" width="1.1002" height="1.2892" ry="0.0000" fill="currentColor"/>
</g>
</g>
<g transform="scale(1.0000, 1.0000)">
<g transform="translate(16.5488, 7.0061)">
<text font-family="IPAexGothic" font-weight="bold" font-size="1.7462" text-anchor="start" fill="currentColor">
<tspan>2</tspan>
</text>
</g>
</g>
<g transform="translate(15.8660, 10.4709)">
<text font-family="IPAexGothic" font-size="2.4695" text-anchor="start" fill="currentColor">
<tspan>が</tspan>
</text>
</g>
<g transform="translate(3.1481, 6.3615)">
<rect x="0.0000" y="-1.5354" width="0.1133" height="3.0708" ry="0.0354" fill="currentColor"/>
</g>
<g transform="translate(5.6114, 6.3615)">
<circle stroke-linejoin="round" stroke-linecap="round" fill="currentColor" stroke="currentColor" stroke-width="0" r="0.4500"/>
</g>
<g transform="translate(30.3261, 10.4709)">
<text font-family="IPAexGothic" font-size="2.4695" text-anchor="start" fill="currentColor">
<tspan>あ</tspan>
</text>
</g>
<g color="rgb(100.0000%, 100.0000%, 100.0000%)">
<g transform="translate(30.2161, 4.8615)">
<rect x="0.1100" y="-0.6446" width="1.1002" height="1.2892" ry="0.0000" fill="currentColor"/>
</g>
</g>
<g transform="scale(1.0000, 1.0000)">
<g transform="translate(30.3261, 5.5061)">
<text font-family="IPAexGothic" font-weight="bold" font-size="1.7462" text-anchor="start" fill="currentColor">
<tspan>2</tspan>
</text>
</g>
</g>
<g transform="translate(23.4803, 6.3615)">
<circle stroke-linejoin="round" stroke-linecap="round" fill="currentColor" stroke="currentColor" stroke-width="0" r="0.4500"/>
</g>
<g transform="translate(23.0303, 6.3615)">
<path stroke-width="0.1200" stroke-linejoin="round" stroke-linecap="square" stroke="currentColor" fill="none" d="M2 -0.6700l1 0"/>
</g>
<g color="rgb(100.0000%, 100.0000%, 100.0000%)">
<g transform="translate(20.2404, 4.8615)">
<rect x="0.1100" y="-0.6446" width="1.1002" height="1.2892" ry="0.0000" fill="currentColor"/>
</g>
</g>
<g transform="scale(1.0000, 1.0000)">
<g transform="translate(20.3504, 5.5061)">
<text font-family="IPAexGothic" font-weight="bold" font-size="1.7462" text-anchor="start" fill="currentColor">
<tspan>2</tspan>
</text>
</g>
</g>
<g transform="translate(19.6676, 10.4709)">
<text font-family="IPAexGothic" font-size="2.4695" text-anchor="start" fill="currentColor">
<tspan>ら</tspan>
</text>
</g>
<g transform="translate(3.1614, 16.2356)">
<line stroke-linejoin="round" stroke-linecap="round" stroke-width="0.0708" stroke="currentColor" x1="0.0354" y1="0" x2="60.0315" y2="0"/>
</g>
<g transform="translate(3.1614, 14.7356)">
<line stroke-linejoin="round" stroke-linecap="round" stroke-width="0.0708" stroke="currentColor" x1="0.0354" y1="0" x2="60.0315" y2="0"/>
</g>
<g transform="translate(3.1614, 13.2356)">
<line stroke-linejoin="round" stroke-linecap="round" stroke-width="0.0708" stroke="currentColor" x1="0.0354" y1="0" x2="60.0315" y2="0"/>
</g>
<g transform="translate(53.0494, 14.7356)">
<rect x="0.0000" y="-1.5000" width="0.1345" height="3.0000" ry="0.0000" fill="currentColor"/>
</g>
<g transform="translate(27.9941, 14.7356)">
<rect x="0.0000" y="-1.5000" width="0.1345" height="3.0000" ry="0.0000" fill="currentColor"/>
</g>
<g transform="translate(16.7730, 14.7356)">
<rect x="0.0000" y="-1.5000" width="0.1345" height="3.0000" ry="0.0000" fill="currentColor"/>
</g>
<g transform="translate(63.0938, 14.7356)">
<rect x="0.0000" y="-1.5000" width="0.1345" height="3.0000" ry="0.0000" fill="currentColor"/>
</g>
<g transform="translate(40.3685, 14.7356)">
<rect x="0.0000" y="-1.5000" width="0.1345" height="3.0000" ry="0.0000" fill="currentColor"/>
</g>
<g transform="translate(49.6127, 20.2356)">
<text font-family="IPAexGothic" font-size="2.4695" text-anchor="start" fill="currentColor">
<tspan>の</tspan>
</text>
</g>
<g color="rgb(100.0000%, 100.0000%, 100.0000%)">
<g transform="translate(44.3537, 13.2356)">
<rect x="0.1100" y="-0.6561" width="1.1002" height="1.3122" ry="0.0000" fill="currentColor"/>
</g>
</g>
<g transform="scale(1.0000, 1.0000)">
<g transform="translate(44.4637, 13.8669)">
<text font-family="IPAexGothic" font-weight="bold" font-size="1.7462" text-anchor="start" fill="currentColor">
<tspan>#</tspan>
</text>
</g>
</g>
<g transform="translate(43.7809, 20.2356)">
<text font-family="IPAexGothic" font-size="2.4695" text-anchor="start" fill="currentColor">
<tspan>っ</tspan>
</text>
</g>
<g color="rgb(100.0000%, 100.0000%, 100.0000%)">
<g transform="translate(47.2696, 13.2356)">
<rect x="0.1100" y="-0.6489" width="1.1002" height="1.2977" ry="0.0000" fill="currentColor"/>
</g>
</g>
<g transform="scale(1.0000, 1.0000)">
<g transform="translate(47.3796, 13.8759)">
<text font-family="IPAexGothic" font-weight="bold" font-size="1.7462" text-anchor="start" fill="currentColor">
<tspan>0</tspan>
</text>
</g>
</g>
<g transform="translate(46.6968, 20.2356)">
<text font-family="IPAexGothic" font-size="2.4695" text-anchor="start" fill="currentColor">
<tspan>ち</tspan>
</text>
</g>
<g color="rgb(100.0000%, 100.0000%, 100.0000%)">
<g transform="translate(50.1855, 14.7356)">
<rect x="0.1100" y="-0.6446" width="1.1002" height="1.2892" ry="0.0000" fill="currentColor"/>
</g>
</g>
<g transform="scale(1.0000, 1.0000)">
<g transform="translate(50.2955, 15.3801)">
<text font-family="IPAexGothic" font-weight="bold" font-size="1.7462" text-anchor="start" fill="currentColor">
<tspan>2</tspan>
</text>
</g>
</g>
<g transform="translate(31.4064, 20.2356)">
<text font-family="IPAexGothic" font-size="2.4695" text-anchor="start" fill="currentColor">
<tspan>と</tspan>
</text>
</g>
<g transform="translate(36.9340, 20.2356)">
<text font-family="IPAexGothic" font-size="2.4695" text-anchor="start" fill="currentColor">
<tspan>り</tspan>
</text>
</g>
<g transform="translate(35.3231, 14.7356)">
<circle stroke-linejoin="round" stroke-linecap="round" fill="currentColor" stroke="currentColor" stroke-width="0" r="0.4500"/>
</g>
<g color="rgb(100.0000%, 100.0000%, 100.0000%)">
<g transform="translate(37.5068, 13.2356)">
<rect x="0.1100" y="-0.6565" width="1.1002" height="1.3131" ry="0.0000" fill="currentColor"/>
</g>
</g>
<g transform="scale(1.0000, 1.0000)">
<g transform="translate(37.6168, 13.8767)">
<text font-family="IPAexGothic" font-weight="bold" font-size="1.7462" text-anchor="start" fill="currentColor">
<tspan>8</tspan>
</text>
</g>
</g>
<g color="rgb(100.0000%, 100.0000%, 100.0000%)">
<g transform="translate(41.4378, 13.2356)">
<rect x="0.1100" y="-0.6489" width="1.1002" height="1.2977" ry="0.0000" fill="currentColor"/>
</g>
</g>
<g transform="scale(1.0000, 1.0000)">
<g transform="translate(41.5478, 13.8759)">
<text font-family="IPAexGothic" font-weight="bold" font-size="1.7462" text-anchor="start" fill="currentColor">
<tspan>6</tspan>
</text>
</g>
</g>
<g transform="translate(40.8650, 20.2356)">
<text font-family="IPAexGothic" font-size="2.4695" text-anchor="start" fill="currentColor">
<tspan>ぼ</tspan>
</text>
</g>
<g color="rgb(100.0000%, 100.0000%, 100.0000%)">
<g transform="translate(54.0872, 14.7356)">
<rect x="0.1100" y="-0.6489" width="1.1002" height="1.2977" ry="0.0000" fill="currentColor"/>
</g>
</g>
<g transform="scale(1.0000, 1.0000)">
<g transform="translate(54.1972, 15.3759)">
<text font-family="IPAexGothic" font-weight="bold" font-size="1.7462" text-anchor="start" fill="currentColor">
<tspan>0</tspan>
</text>
</g>
</g>
<g color="rgb(100.0000%, 100.0000%, 100.0000%)">
<g transform="translate(54.0872, 13.2356)">
<rect x="0.1100" y="-0.6489" width="1.1002" height="1.2977" ry="0.0000" fill="currentColor"/>
</g>
</g>
<g transform="scale(1.0000, 1.0000)">
<g transform="translate(54.1972, 13.8759)">
<text font-family="IPAexGothic" font-weight="bold" font-size="1.7462" text-anchor="start" fill="currentColor">
<tspan>0</tspan>
</text>
</g>
</g>
<g transform="translate(53.5143, 20.2356)">
<text font-family="IPAexGothic" font-size="2.4695" text-anchor="start" fill="currentColor">
<tspan>よ</tspan>
</text>
</g>
<g color="rgb(100.0000%, 100.0000%, 100.0000%)">
<g transform="translate(57.0031, 14.7356)">
<rect x="0.1100" y="-0.6489" width="1.1002" height="1.2977" ry="0.0000" fill="currentColor"/>
</g>
</g>
<g transform="scale(1.0000, 1.0000)">
<g transform="translate(57.1131, 15.3759)">
<text font-family="IPAexGothic" font-weight="bold" font-size="1.7462" text-anchor="start" fill="currentColor">
<tspan>0</tspan>
</text>
</g>
</g>
<g color="rgb(100.0000%, 100.0000%, 100.0000%)">
<g transform="translate(57.0031, 13.2356)">
<rect x="0.1100" y="-0.6489" width="1.1002" height="1.2977" ry="0.0000" fill="currentColor"/>
</g>
</g>
<g transform="scale(1.0000, 1.0000)">
<g transform="translate(57.1131, 13.8759)">
<text font-family="IPAexGothic" font-weight="bold" font-size="1.7462" text-anchor="start" fill="currentColor">
<tspan>0</tspan>
</text>
</g>
</g>
<g transform="translate(56.4302, 20.2356)">
<text font-family="IPAexGothic" font-size="2.4695" text-anchor="start" fill="currentColor">
<tspan>る</tspan>
</text>
</g>
<g transform="translate(57.6632, 14.7356)">
<path stroke-width="0.1200" stroke-linejoin="round" stroke-linecap="square" stroke="currentColor" fill="none" d="M2 -0.6700l1 0"/>
</g>
<g color="rgb(100.0000%, 100.0000%, 100.0000%)">
<g transform="translate(8.0773, 13.2356)">
<rect x="0.1100" y="-0.6561" width="1.1002" height="1.3122" ry="0.0000" fill="currentColor"/>
</g>
</g>
<g transform="scale(1.0000, 1.0000)">
<g transform="translate(8.1873, 13.8669)">
<text font-family="IPAexGothic" font-weight="bold" font-size="1.7462" text-anchor="start" fill="currentColor">
<tspan>#</tspan>
</text>
</g>
</g>
<g transform="translate(7.5045, 20.2356)">
<text font-family="IPAexGothic" font-size="2.4695" text-anchor="start" fill="currentColor">
<tspan>っ</tspan>
</text>
</g>
<g color="rgb(100.0000%, 100.0000%, 100.0000%)">
<g transform="translate(10.9932, 13.2356)">
<rect x="0.1100" y="-0.6489" width="1.1002" height="1.2977" ry="0.0000" fill="currentColor"/>
</g>
</g>
<g transform="scale(1.0000, 1.0000)">
<g transform="translate(11.1032, 13.8759)">
<text font-family="IPAexGothic" font-weight="bold" font-size="1.7462" text-anchor="start" fill="currentColor">
<tspan>0</tspan>
</text>
</g>
</g>
<g transform="translate(10.4204, 20.2356)">
<text font-family="IPAexGothic" font-size="2.4695" text-anchor="start" fill="currentColor">
<tspan>ち</tspan>
</text>
</g>
<g color="rgb(100.0000%, 100.0000%, 100.0000%)">
<g transform="translate(13.9091, 14.7356)">
<rect x="0.1100" y="-0.6446" width="1.1002" height="1.2892" ry="0.0000" fill="currentColor"/>
</g>
</g>
<g transform="scale(1.0000, 1.0000)">
<g transform="translate(14.0192, 15.3801)">
<text font-family="IPAexGothic" font-weight="bold" font-size="1.7462" text-anchor="start" fill="currentColor">
<tspan>2</tspan>
</text>
</g>
</g>
<g transform="translate(13.3363, 20.2356)">
<text font-family="IPAexGothic" font-size="2.4695" text-anchor="start" fill="currentColor">
<tspan>の</tspan>
</text>
</g>
<g color="rgb(100.0000%, 100.0000%, 100.0000%)">
<g transform="translate(31.9793, 13.2356)">
<rect x="0.1100" y="-0.6489" width="1.1002" height="1.2977" ry="0.0000" fill="currentColor"/>
</g>
</g>
<g transform="scale(1.0000, 1.0000)">
<g transform="translate(32.0893, 13.8759)">
<text font-family="IPAexGothic" font-weight="bold" font-size="1.7462" text-anchor="start" fill="currentColor">
<tspan>0</tspan>
</text>
</g>
</g>
<g color="rgb(100.0000%, 100.0000%, 100.0000%)">
<g transform="translate(17.8108, 13.2356)">
<rect x="0.1100" y="-0.6489" width="1.1002" height="1.2977" ry="0.0000" fill="currentColor"/>
</g>
</g>
<g transform="scale(1.0000, 1.0000)">
<g transform="translate(17.9208, 13.8759)">
<text font-family="IPAexGothic" font-weight="bold" font-size="1.7462" text-anchor="start" fill="currentColor">
<tspan>0</tspan>
</text>
</g>
</g>
<g transform="translate(17.2379, 20.2356)">
<text font-family="IPAexGothic" font-size="2.4695" text-anchor="start" fill="currentColor">
<tspan>よ</tspan>
</text>
</g>
<g transform="translate(3.1481, 14.7356)">
<rect x="0.0000" y="-1.5354" width="0.1133" height="3.0708" ry="0.0354" fill="currentColor"/>
</g>
<g color="rgb(100.0000%, 100.0000%, 100.0000%)">
<g transform="translate(17.8108, 14.7356)">
<rect x="0.1100" y="-0.6489" width="1.1002" height="1.2977" ry="0.0000" fill="currentColor"/>
</g>
</g>
<g transform="scale(1.0000, 1.0000)">
<g transform="translate(17.9208, 15.3759)">
<text font-family="IPAexGothic" font-weight="bold" font-size="1.7462" text-anchor="start" fill="currentColor">
<tspan>0</tspan>
</text>
</g>
</g>
<g color="rgb(100.0000%, 100.0000%, 100.0000%)">
<g transform="translate(5.1614, 13.2356)">
<rect x="0.1100" y="-0.6489" width="1.1002" height="1.2977" ry="0.0000" fill="currentColor"/>
</g>
</g>
<g transform="scale(1.0000, 1.0000)">
<g transform="translate(5.2714, 13.8759)">
<text font-family="IPAexGothic" font-weight="bold" font-size="1.7462" text-anchor="start" fill="currentColor">
<tspan>6</tspan>
</text>
</g>
</g>
<g transform="translate(4.5886, 20.2356)">
<text font-family="IPAexGothic" font-size="2.4695" text-anchor="start" fill="currentColor">
<tspan>ぼ</tspan>
</text>
</g>
<g transform="translate(24.0706, 14.7356)">
<circle stroke-linejoin="round" stroke-linecap="round" fill="currentColor" stroke="currentColor" stroke-width="0" r="0.4500"/>
</g>
<g transform="translate(23.6206, 14.7356)">
<path stroke-width="0.1200" stroke-linejoin="round" stroke-linecap="square" stroke="currentColor" fill="none" d="M2 -0.6700l1 0"/>
</g>
<g color="rgb(100.0000%, 100.0000%, 100.0000%)">
<g transform="translate(29.0634, 13.2356)">
<rect x="0.1100" y="-0.6489" width="1.1002" height="1.2977" ry="0.0000" fill="currentColor"/>
</g>
</g>
<g transform="scale(1.0000, 1.0000)">
<g transform="translate(29.1734, 13.8759)">
<text font-family="IPAexGothic" font-weight="bold" font-size="1.7462" text-anchor="start" fill="currentColor">
<tspan>0</tspan>
</text>
</g>
</g>
<g transform="translate(28.4905, 20.2356)">
<text font-family="IPAexGothic" font-size="2.4695" text-anchor="start" fill="currentColor">
<tspan>ひ</tspan>
</text>
</g>
<g color="rgb(100.0000%, 100.0000%, 100.0000%)">
<g transform="translate(20.7267, 14.7356)">
<rect x="0.1100" y="-0.6489" width="1.1002" height="1.2977" ry="0.0000" fill="currentColor"/>
</g>
</g>
<g transform="scale(1.0000, 1.0000)">
<g transform="translate(20.8367, 15.3759)">
<text font-family="IPAexGothic" font-weight="bold" font-size="1.7462" text-anchor="start" fill="currentColor">
<tspan>0</tspan>
</text>
</g>
</g>
<g color="rgb(100.0000%, 100.0000%, 100.0000%)">
<g transform="translate(20.7267, 13.2356)">
<rect x="0.1100" y="-0.6489" width="1.1002" height="1.2977" ry="0.0000" fill="currentColor"/>
</g>
</g>
<g transform="scale(1.0000, 1.0000)">
<g transform="translate(20.8367, 13.8759)">
<text font-family="IPAexGothic" font-weight="bold" font-size="1.7462" text-anchor="start" fill="currentColor">
<tspan>0</tspan>
</text>
</g>
</g>
<g transform="translate(20.1539, 20.2356)">
<text font-family="IPAexGothic" font-size="2.4695" text-anchor="start" fill="currentColor">
<tspan>る</tspan>
</text>
</g>
</svg>
