<svg xmlns="http://www.w3.org/2000/svg" xmlns:xlink="http://www.w3.org/1999/xlink" version="1.2" width="210.00mm" height="297.00mm" viewBox="0 0 74.6885 105.6309">
<style type="text/css">
<![CDATA[
tspan { white-space: pre; }
]]>
</style>
<!-- Page: 3/3 -->
<g transform="translate(69.7448, 3.4027)">
<text font-family="IPAexGothic" font-size="2.2003" text-anchor="start" fill="currentColor">
<tspan>3</tspan>
</text>
</g>
<g transform="translate(3.5566, 10.1935)">
<line stroke-linejoin="round" stroke-linecap="round" stroke-width="0.0754" stroke="currentColor" x1="0.0377" y1="0" x2="67.5376" y2="0"/>
</g>
<g transform="translate(3.5566, 9.1935)">
<line stroke-linejoin="round" stroke-linecap="round" stroke-width="0.0754" stroke="currentColor" x1="0.0377" y1="0" x2="67.5376" y2="0"/>
</g>
<g transform="translate(3.5566, 8.1935)">
<line stroke-linejoin="round" stroke-linecap="round" stroke-width="0.0754" stroke="currentColor" x1="0.0377" y1="0" x2="67.5376" y2="0"/>
</g>
<g transform="translate(3.5566, 7.1935)">
<line stroke-linejoin="round" stroke-linecap="round" stroke-width="0.0754" stroke="currentColor" x1="0.0377" y1="0" x2="67.5376" y2="0"/>
</g>
<g transform="translate(3.5566, 6.1935)">
<line stroke-linejoin="round" stroke-linecap="round" stroke-width="0.0754" stroke="currentColor" x1="0.0377" y1="0" x2="67.5376" y2="0"/>
</g>
<g transform="translate(19.9233, 8.1935)">
<rect x="0.0000" y="-2.0000" width="0.1432" height="4.0377" ry="0.0000" fill="currentColor"/>
</g>
<g transform="translate(19.9233, 18.7398)">
<rect x="0.0000" y="-1.5377" width="0.1432" height="3.0377" ry="0.0000" fill="currentColor"/>
</g>
<g transform="translate(19.9233, 4.4135)">
<rect x="0.0000" y="5.8177" width="0.1432" height="7.0086" ry="0.0000" fill="currentColor"/>
</g>
<g transform="translate(59.1972, 8.1935)">
<rect x="0.0000" y="-2.0000" width="0.1432" height="4.0377" ry="0.0000" fill="currentColor"/>
</g>
<g transform="translate(45.5145, 4.4135)">
<rect x="0.0000" y="5.8177" width="0.1432" height="7.0086" ry="0.0000" fill="currentColor"/>
</g>
<g transform="translate(59.1972, 18.7398)">
<rect x="0.0000" y="-1.5377" width="0.1432" height="3.0377" ry="0.0000" fill="currentColor"/>
</g>
<g transform="translate(45.5145, 18.7398)">
<rect x="0.0000" y="-1.5377" width="0.1432" height="3.0377" ry="0.0000" fill="currentColor"/>
</g>
<g transform="translate(59.1972, 4.4135)">
<rect x="0.0000" y="5.8177" width="0.1432" height="7.0086" ry="0.0000" fill="currentColor"/>
</g>
<g transform="translate(45.5145, 8.1935)">
<rect x="0.0000" y="-2.0000" width="0.1432" height="4.0377" ry="0.0000" fill="currentColor"/>
</g>
<g transform="translate(32.0988, 8.1935)">
<rect x="0.0000" y="-2.0000" width="0.1432" height="4.0377" ry="0.0000" fill="currentColor"/>
</g>
<g transform="translate(70.6797, 8.1935)">
<rect x="0.0000" y="-2.0000" width="0.4521" height="4.0377" ry="0.0000" fill="currentColor"/>
</g>
<g transform="translate(70.3105, 8.1935)">
<rect x="0.0000" y="-2.0000" width="0.1432" height="4.0377" ry="0.0000" fill="currentColor"/>
</g>
<g transform="translate(70.6797, 18.7398)">
<rect x="0.0000" y="-1.5377" width="0.4521" height="3.0377" ry="0.0000" fill="currentColor"/>
</g>
<g transform="translate(70.3105, 18.7398)">
<rect x="0.0000" y="-1.5377" width="0.1432" height="3.0377" ry="0.0000" fill="currentColor"/>
</g>
<g transform="translate(70.6797, 4.4135)">
<rect x="0.0000" y="5.8177" width="0.4521" height="7.0086" ry="0.0000" fill="currentColor"/>
</g>
<g transform="translate(70.3105, 4.4135)">
<rect x="0.0000" y="5.8177" width="0.1432" height="7.0086" ry="0.0000" fill="currentColor"/>
</g>
<g transform="translate(32.0988, 18.7398)">
<rect x="0.0000" y="-1.5377" width="0.1432" height="3.0377" ry="0.0000" fill="currentColor"/>
</g>
<g transform="translate(32.0988, 4.4135)">
<rect x="0.0000" y="5.8177" width="0.1432" height="7.0086" ry="0.0000" fill="currentColor"/>
</g>
<g transform="translate(3.5566, 20.2398)">
<line stroke-linejoin="round" stroke-linecap="round" stroke-width="0.0754" stroke="currentColor" x1="0.0377" y1="0" x2="67.5376" y2="0"/>
</g>
<g transform="translate(3.5566, 18.7398)">
<line stroke-linejoin="round" stroke-linecap="round" stroke-width="0.0754" stroke="currentColor" x1="0.0377" y1="0" x2="67.5376" y2="0"/>
</g>
<g transform="translate(3.5566, 17.2398)">
<line stroke-linejoin="round" stroke-linecap="round" stroke-width="0.0754" stroke="currentColor" x1="0.0377" y1="0" x2="67.5376" y2="0"/>
</g>
<g transform="translate(3.5566, 5.1935)">
<rect x="38.5781" y="-0.0877" width="1.9587" height="0.1754" ry="0.0877" fill="currentColor"/>
</g>
<g transform="translate(49.2024, 13.5757)">
<text font-family="IPAexGothic" font-size="2.4695" text-anchor="start" fill="currentColor">
<tspan>っ</tspan>
</text>
</g>
<g color="rgb(100.0000%, 100.0000%, 100.0000%)">
<g transform="translate(49.7872, 17.2398)">
<rect x="-0.2091" y="-0.7474" width="1.7498" height="1.4948" ry="0.0000" fill="currentColor"/>
</g>
</g>
<g transform="scale(1.0000, 1.0000)">
<g transform="translate(49.5781, 17.9036)">
<text font-family="IPAexGothic" font-weight="bold" font-size="1.7463" text-anchor="start" fill="currentColor">
<tspan>♯</tspan>
</text>
</g>
</g>
<g transform="translate(49.7872, 6.6935)">
<path transform="scale(0.0040, -0.0040)" d="M222 135c53 0 104 -27 104 -86c0 -71 -56 -120 -103 -148c-36 -22 -76 -36 -118 -36c-53 0 -105 27 -105 86c0 71 57 120 104 148c36 22 76 36 118 36z" fill="currentColor"/>
</g>
<g transform="translate(53.0299, 8.1935)">
<rect x="-0.0490" y="-0.3033" width="0.0980" height="3.3033" ry="0.0250" fill="currentColor"/>
</g>
<g color="rgb(100.0000%, 100.0000%, 100.0000%)">
<g transform="translate(52.9809, 17.2398)">
<rect x="0.1110" y="-0.6489" width="1.1097" height="1.2978" ry="0.0000" fill="currentColor"/>
</g>
</g>
<g transform="scale(1.0000, 1.0000)">
<g transform="translate(53.0919, 17.8801)">
<text font-family="IPAexGothic" font-weight="bold" font-size="1.7463" text-anchor="start" fill="currentColor">
<tspan>0</tspan>
</text>
</g>
</g>
<g transform="translate(52.3961, 13.5757)">
<text font-family="IPAexGothic" font-size="2.4695" text-anchor="start" fill="currentColor">
<tspan>ち</tspan>
</text>
</g>
<g transform="translate(52.9809, 7.6935)">
<path transform="scale(0.0040, -0.0040)" d="M222 135c53 0 104 -27 104 -86c0 -71 -56 -120 -103 -148c-36 -22 -76 -36 -118 -36c-53 0 -105 27 -105 86c0 71 57 120 104 148c36 22 76 36 118 36z" fill="currentColor"/>
</g>
<g transform="translate(49.7872, 16.0293)">
<text font-family="Libertinus Serif" font-size="1.5557" text-anchor="start" fill="currentColor">
<tspan> Ⅰ</tspan>
</text>
</g>
<g transform="translate(49.8362, 8.1935)">
<rect x="-0.0490" y="-1.3033" width="0.0980" height="3.3033" ry="0.0250" fill="currentColor"/>
</g>
<g transform="translate(39.6158, 8.1935)">
<path transform="scale(0.0040, -0.0040)" d="M-23 -113c0 26 10 40 36 40c34 0 85 -15 130 -37l-137 164c-7 8 -10 17 -10 25c0 33 49 64 86 96c26 22 39 54 39 85c0 24 -8 47 -24 67l-39 46c-2 3 -3 6 -3 9c0 7 7 14 14 14c3 0 7 -1 10 -5l152 -182c7 -8 10 -17 10 -25c0 -33 -49 -64 -86 -96
c-26 -22 -39 -54 -39 -85c0 -24 8 -47 24 -67l87 -104c2 -3 3 -5 3 -8c0 -7 -7 -14 -14 -14c-3 0 -7 1 -10 5c-19 22 -66 43 -102 43c-40 0 -52 -29 -52 -70c0 -35 11 -75 28 -96c6 -7 -4 -16 -10 -9c-46 55 -93 150 -93 204z" fill="currentColor"/>
</g>
<g transform="translate(42.5102, 8.1935)">
<rect x="-0.0490" y="-2.8033" width="0.0980" height="3.3033" ry="0.0250" fill="currentColor"/>
</g>
<g transform="translate(40.0658, 18.7398)">
<circle stroke-linejoin="round" stroke-linecap="round" fill="currentColor" stroke="currentColor" stroke-width="0" r="0.4500"/>
</g>
<g color="rgb(100.0000%, 100.0000%, 100.0000%)">
<g transform="translate(42.4612, 17.2398)">
<rect x="0.1110" y="-0.6566" width="1.1097" height="1.3132" ry="0.0000" fill="currentColor"/>
</g>
</g>
<g transform="scale(1.0000, 1.0000)">
<g transform="translate(42.5722, 17.8810)">
<text font-family="IPAexGothic" font-weight="bold" font-size="1.7463" text-anchor="start" fill="currentColor">
<tspan>8</tspan>
</text>
</g>
</g>
<g transform="translate(42.4612, 16.1201)">
<text font-family="Libertinus Serif" font-size="1.5557" text-anchor="start" fill="currentColor">
<tspan> Ⅲ</tspan>
</text>
</g>
<g transform="translate(41.8764, 13.5757)">
<text font-family="IPAexGothic" font-size="2.4695" text-anchor="start" fill="currentColor">
<tspan>り</tspan>
</text>
</g>
<g transform="translate(42.4612, 5.1935)">
<path transform="scale(0.0040, -0.0040)" d="M222 135c53 0 104 -27 104 -86c0 -71 -56 -120 -103 -148c-36 -22 -76 -36 -118 -36c-53 0 -105 27 -105 86c0 71 57 120 104 148c36 22 76 36 118 36z" fill="currentColor"/>
</g>
<g transform="translate(46.8025, 8.1935)">
<rect x="-0.0490" y="-2.3033" width="0.0980" height="3.3033" ry="0.0250" fill="currentColor"/>
</g>
<g color="rgb(100.0000%, 100.0000%, 100.0000%)">
<g transform="translate(46.7536, 17.2398)">
<rect x="0.1110" y="-0.6489" width="1.1097" height="1.2978" ry="0.0000" fill="currentColor"/>
</g>
</g>
<g transform="scale(1.0000, 1.0000)">
<g transform="translate(46.8645, 17.8801)">
<text font-family="IPAexGothic" font-weight="bold" font-size="1.7463" text-anchor="start" fill="currentColor">
<tspan>6</tspan>
</text>
</g>
</g>
<g transform="translate(46.7536, 16.1277)">
<text font-family="Libertinus Serif" font-size="1.5557" text-anchor="start" fill="currentColor">
<tspan> Ⅰ</tspan>
</text>
</g>
<g transform="translate(46.1688, 13.5757)">
<text font-family="IPAexGothic" font-size="2.4695" text-anchor="start" fill="currentColor">
<tspan>ぼ</tspan>
</text>
</g>
<g transform="translate(46.7536, 5.6935)">
<path transform="scale(0.0040, -0.0040)" d="M222 135c53 0 104 -27 104 -86c0 -71 -56 -120 -103 -148c-36 -22 -76 -36 -118 -36c-53 0 -105 27 -105 86c0 71 57 120 104 148c36 22 76 36 118 36z" fill="currentColor"/>
</g>
<g transform="translate(64.1449, 18.7398)">
<path stroke-width="0.1200" stroke-linejoin="round" stroke-linecap="square" stroke="currentColor" fill="none" d="M2 -0.6700l1 0"/>
</g>
<g transform="translate(64.8021, 8.1935)">
<rect x="-0.0490" y="-3.6667" width="0.0980" height="4.3983" ry="0.0250" fill="currentColor"/>
</g>
<g color="rgb(100.0000%, 100.0000%, 100.0000%)">
<g transform="translate(63.4791, 17.2398)">
<rect x="0.1110" y="-0.6489" width="1.1097" height="1.2978" ry="0.0000" fill="currentColor"/>
</g>
</g>
<g transform="scale(1.0000, 1.0000)">
<g transform="translate(63.5900, 17.8801)">
<text font-family="IPAexGothic" font-weight="bold" font-size="1.7463" text-anchor="start" fill="currentColor">
<tspan>0</tspan>
</text>
</g>
</g>
<g color="rgb(100.0000%, 100.0000%, 100.0000%)">
<g transform="translate(63.4791, 18.7398)">
<rect x="0.1110" y="-0.6489" width="1.1097" height="1.2978" ry="0.0000" fill="currentColor"/>
</g>
</g>
<g transform="scale(1.0000, 1.0000)">
<g transform="translate(63.5900, 19.3801)">
<text font-family="IPAexGothic" font-weight="bold" font-size="1.7463" text-anchor="start" fill="currentColor">
<tspan>0</tspan>
</text>
</g>
</g>
<g transform="translate(62.9274, 13.5757)">
<text font-family="IPAexGothic" font-size="2.4695" text-anchor="start" fill="currentColor">
<tspan>る</tspan>
</text>
</g>
<g transform="translate(63.4791, 7.6935)">
<path transform="scale(0.0040, -0.0040)" d="M316 67c0 25 -20 42 -42 42c-4 0 -9 -1 -13 -2c-31 -9 -79 -41 -117 -65s-86 -55 -107 -80c-7 -8 -10 -19 -10 -29c0 -25 20 -42 42 -42c4 0 9 1 13 2c31 9 79 41 117 65s86 55 107 80c7 8 10 19 10 29zM265 135c44 0 78 -21 78 -68c0 -19 -5 -39 -11 -57
c-12 -37 -33 -71 -65 -93c-53 -36 -114 -52 -189 -52c-44 0 -78 21 -78 68c0 19 5 39 11 57c12 37 33 71 65 93c53 36 114 52 189 52z" fill="currentColor"/>
</g>
<g transform="translate(63.4791, 9.1935)">
<path transform="scale(0.0040, -0.0040)" d="M316 67c0 25 -20 42 -42 42c-4 0 -9 -1 -13 -2c-31 -9 -79 -41 -117 -65s-86 -55 -107 -80c-7 -8 -10 -19 -10 -29c0 -25 20 -42 42 -42c4 0 9 1 13 2c31 9 79 41 117 65s86 55 107 80c7 8 10 19 10 29zM265 135c44 0 78 -21 78 -68c0 -19 -5 -39 -11 -57
c-12 -37 -33 -71 -65 -93c-53 -36 -114 -52 -189 -52c-44 0 -78 21 -78 68c0 19 5 39 11 57c12 37 33 71 65 93c53 36 114 52 189 52z" fill="currentColor"/>
</g>
<g color="rgb(100.0000%, 100.0000%, 100.0000%)">
<g transform="translate(60.3204, 17.2398)">
<rect x="0.1110" y="-0.6489" width="1.1097" height="1.2978" ry="0.0000" fill="currentColor"/>
</g>
</g>
<g transform="scale(1.0000, 1.0000)">
<g transform="translate(60.4314, 17.8801)">
<text font-family="IPAexGothic" font-weight="bold" font-size="1.7463" text-anchor="start" fill="currentColor">
<tspan>0</tspan>
</text>
</g>
</g>
<g color="rgb(100.0000%, 100.0000%, 100.0000%)">
<g transform="translate(60.3204, 18.7398)">
<rect x="0.1110" y="-0.6489" width="1.1097" height="1.2978" ry="0.0000" fill="currentColor"/>
</g>
</g>
<g transform="scale(1.0000, 1.0000)">
<g transform="translate(60.4314, 19.3801)">
<text font-family="IPAexGothic" font-weight="bold" font-size="1.7463" text-anchor="start" fill="currentColor">
<tspan>0</tspan>
</text>
</g>
</g>
<g transform="translate(59.7356, 13.5757)">
<text font-family="IPAexGothic" font-size="2.4695" text-anchor="start" fill="currentColor">
<tspan>よ</tspan>
</text>
</g>
<g transform="translate(60.3204, 7.6935)">
<path transform="scale(0.0040, -0.0040)" d="M222 135c53 0 104 -27 104 -86c0 -71 -56 -120 -103 -148c-36 -22 -76 -36 -118 -36c-53 0 -105 27 -105 86c0 71 57 120 104 148c36 22 76 36 118 36z" fill="currentColor"/>
</g>
<g transform="translate(60.3204, 9.1935)">
<path transform="scale(0.0040, -0.0040)" d="M222 135c53 0 104 -27 104 -86c0 -71 -56 -120 -103 -148c-36 -22 -76 -36 -118 -36c-53 0 -105 27 -105 86c0 71 57 120 104 148c36 22 76 36 118 36z" fill="currentColor"/>
</g>
<g transform="translate(61.5772, 8.1935)">
<rect x="-0.0490" y="-3.6667" width="0.0980" height="4.4699" ry="0.0250" fill="currentColor"/>
</g>
<g transform="translate(57.2281, 8.1935)">
<rect x="-0.0490" y="-3.0000" width="0.0980" height="3.3033" ry="0.0250" fill="currentColor"/>
</g>
<g color="rgb(100.0000%, 100.0000%, 100.0000%)">
<g transform="translate(55.9712, 18.7398)">
<rect x="0.1110" y="-0.6446" width="1.1097" height="1.2893" ry="0.0000" fill="currentColor"/>
</g>
</g>
<g transform="scale(1.0000, 1.0000)">
<g transform="translate(56.0822, 19.3844)">
<text font-family="IPAexGothic" font-weight="bold" font-size="1.7463" text-anchor="start" fill="currentColor">
<tspan>2</tspan>
</text>
</g>
</g>
<g transform="translate(55.3864, 13.5757)">
<text font-family="IPAexGothic" font-size="2.4695" text-anchor="start" fill="currentColor">
<tspan>の</tspan>
</text>
</g>
<g transform="translate(55.9712, 8.6935)">
<path transform="scale(0.0040, -0.0040)" d="M222 135c53 0 104 -27 104 -86c0 -71 -56 -120 -103 -148c-36 -22 -76 -36 -118 -36c-53 0 -105 27 -105 86c0 71 57 120 104 148c36 22 76 36 118 36z" fill="currentColor"/>
</g>
<g transform="translate(13.7071, 7.6935)">
<path transform="scale(0.0040, -0.0040)" d="M222 135c53 0 104 -27 104 -86c0 -71 -56 -120 -103 -148c-36 -22 -76 -36 -118 -36c-53 0 -105 27 -105 86c0 71 57 120 104 148c36 22 76 36 118 36z" fill="currentColor"/>
</g>
<g transform="translate(13.7561, 8.1935)">
<rect x="-0.0490" y="-0.3033" width="0.0980" height="3.3033" ry="0.0250" fill="currentColor"/>
</g>
<g color="rgb(100.0000%, 100.0000%, 100.0000%)">
<g transform="translate(13.7071, 17.2398)">
<rect x="0.1110" y="-0.6489" width="1.1097" height="1.2978" ry="0.0000" fill="currentColor"/>
</g>
</g>
<g transform="scale(1.0000, 1.0000)">
<g transform="translate(13.8181, 17.8801)">
<text font-family="IPAexGothic" font-weight="bold" font-size="1.7463" text-anchor="start" fill="currentColor">
<tspan>0</tspan>
</text>
</g>
</g>
<g transform="translate(13.1223, 13.5757)">
<text font-family="IPAexGothic" font-size="2.4695" text-anchor="start" fill="currentColor">
<tspan>ち</tspan>
</text>
</g>
<g transform="translate(16.6974, 8.6935)">
<path transform="scale(0.0040, -0.0040)" d="M222 135c53 0 104 -27 104 -86c0 -71 -56 -120 -103 -148c-36 -22 -76 -36 -118 -36c-53 0 -105 27 -105 86c0 71 57 120 104 148c36 22 76 36 118 36z" fill="currentColor"/>
</g>
<g transform="translate(10.5624, 8.1935)">
<rect x="-0.0490" y="-1.3033" width="0.0980" height="3.3033" ry="0.0250" fill="currentColor"/>
</g>
<g color="rgb(100.0000%, 100.0000%, 100.0000%)">
<g transform="translate(10.5134, 17.2398)">
<rect x="-0.2091" y="-0.7474" width="1.7498" height="1.4948" ry="0.0000" fill="currentColor"/>
</g>
</g>
<g transform="scale(1.0000, 1.0000)">
<g transform="translate(10.3043, 17.9036)">
<text font-family="IPAexGothic" font-weight="bold" font-size="1.7463" text-anchor="start" fill="currentColor">
<tspan>♯</tspan>
</text>
</g>
</g>
<g transform="translate(22.3034, 8.1935)">
<rect x="-0.0490" y="-3.6667" width="0.0980" height="4.4699" ry="0.0250" fill="currentColor"/>
</g>
<g color="rgb(100.0000%, 100.0000%, 100.0000%)">
<g transform="translate(21.0466, 18.7398)">
<rect x="0.1110" y="-0.6489" width="1.1097" height="1.2978" ry="0.0000" fill="currentColor"/>
</g>
</g>
<g transform="scale(1.0000, 1.0000)">
<g transform="translate(21.1576, 19.3801)">
<text font-family="IPAexGothic" font-weight="bold" font-size="1.7463" text-anchor="start" fill="currentColor">
<tspan>0</tspan>
</text>
</g>
</g>
<g transform="translate(20.4618, 13.5757)">
<text font-family="IPAexGothic" font-size="2.4695" text-anchor="start" fill="currentColor">
<tspan>よ</tspan>
</text>
</g>
<g transform="translate(21.0466, 7.6935)">
<path transform="scale(0.0040, -0.0040)" d="M222 135c53 0 104 -27 104 -86c0 -71 -56 -120 -103 -148c-36 -22 -76 -36 -118 -36c-53 0 -105 27 -105 86c0 71 57 120 104 148c36 22 76 36 118 36z" fill="currentColor"/>
</g>
<g transform="translate(21.0466, 9.1935)">
<path transform="scale(0.0040, -0.0040)" d="M222 135c53 0 104 -27 104 -86c0 -71 -56 -120 -103 -148c-36 -22 -76 -36 -118 -36c-53 0 -105 27 -105 86c0 71 57 120 104 148c36 22 76 36 118 36z" fill="currentColor"/>
</g>
<g transform="translate(10.5134, 16.0293)">
<text font-family="Libertinus Serif" font-size="1.5557" text-anchor="start" fill="currentColor">
<tspan> Ⅰ</tspan>
</text>
</g>
<g transform="translate(17.9542, 8.1935)">
<rect x="-0.0490" y="-3.0000" width="0.0980" height="3.3033" ry="0.0250" fill="currentColor"/>
</g>
<g color="rgb(100.0000%, 100.0000%, 100.0000%)">
<g transform="translate(16.6974, 18.7398)">
<rect x="0.1110" y="-0.6446" width="1.1097" height="1.2893" ry="0.0000" fill="currentColor"/>
</g>
</g>
<g transform="scale(1.0000, 1.0000)">
<g transform="translate(16.8084, 19.3844)">
<text font-family="IPAexGothic" font-weight="bold" font-size="1.7463" text-anchor="start" fill="currentColor">
<tspan>2</tspan>
</text>
</g>
</g>
<g transform="translate(16.1126, 13.5757)">
<text font-family="IPAexGothic" font-size="2.4695" text-anchor="start" fill="currentColor">
<tspan>の</tspan>
</text>
</g>
<g transform="translate(4.9451, 12.7274)">
<text font-family="IPAexGothic" font-style="italic" font-size="1.3862" text-anchor="start" fill="currentColor">
<tspan>8</tspan>
</text>
</g>
<g transform="translate(4.3566, 9.1935)">
<path transform="scale(0.0040, -0.0040)" d="M374 260c5 0 10 1 15 1c154 0 254 -127 254 -259c0 -76 -33 -153 -107 -208c-22 -17 -47 -29 -73 -37c3 -36 5 -72 5 -108c0 -19 0 -37 -1 -56c-7 -120 -88 -226 -206 -226c-108 0 -195 87 -195 195c0 58 53 104 112 104c54 0 95 -48 95 -104c0 -52 -43 -95 -95 -95
c-12 0 -24 4 -35 9c26 -41 70 -70 121 -70c1 0 2 1 3 1c93 2 154 93 160 192c1 18 2 35 2 53c0 32 -2 64 -5 96c-29 -5 -58 -8 -89 -8c-188 0 -333 171 -333 372c0 178 133 306 251 440c-18 63 -35 126 -42 191c-6 51 -7 102 -7 154c0 116 55 226 150 295c5 4 11 4 16 0
c70 -84 132 -246 132 -359c0 -144 -87 -256 -183 -365c20 -69 39 -138 55 -208zM459 -205c69 24 117 96 117 166c0 92 -69 184 -179 193c25 -117 48 -235 62 -359zM71 31c0 -136 131 -251 267 -251c28 0 55 2 82 6c-15 128 -38 247 -64 367c-79 -9 -125 -62 -125 -121
c0 -44 26 -92 82 -124c4 -4 7 -9 7 -14c0 -11 -9 -21 -20 -21c-3 0 -6 1 -9 2c-80 43 -116 114 -116 184c0 88 57 173 158 196c-14 60 -30 119 -46 178c-108 -121 -216 -242 -216 -402zM411 1050c-99 -50 -161 -151 -161 -262c0 -76 15 -137 33 -200c82 97 149 198 149 325
c0 58 -4 84 -21 137z" fill="currentColor"/>
</g>
<g transform="translate(3.5360, 13.2166)">
<rect x="0.0000" y="-7.0608" width="0.1206" height="14.1217" ry="0.0377" fill="currentColor"/>
</g>
<g transform="translate(2.2860, 5.9308)">
<path transform="scale(0.0040, -0.0040)" d="M0 -56v91c0 12 10 21 22 21h43c164 0 281 136 377 272c10 14 32 -1 22 -15c-103 -145 -222 -369 -399 -369h-65z" fill="currentColor"/>
</g>
<g transform="translate(2.2860, 20.5025)">
<path transform="scale(0.0040, -0.0040)" d="M0 56h65c177 0 296 -224 399 -369c10 -14 -12 -29 -22 -15c-96 136 -213 272 -377 272h-43c-12 0 -22 9 -22 21v91z" fill="currentColor"/>
</g>
<g transform="translate(2.2860, 13.2166)">
<rect x="0.0000" y="-7.1058" width="0.4500" height="14.2117" ry="0.0000" fill="currentColor"/>
</g>
<g transform="translate(7.5287, 8.1935)">
<rect x="-0.0490" y="-2.3033" width="0.0980" height="3.3033" ry="0.0250" fill="currentColor"/>
</g>
<g transform="translate(9.9286, 13.5757)">
<text font-family="IPAexGothic" font-size="2.4695" text-anchor="start" fill="currentColor">
<tspan>っ</tspan>
</text>
</g>
<g transform="translate(10.5134, 6.6935)">
<path transform="scale(0.0040, -0.0040)" d="M222 135c53 0 104 -27 104 -86c0 -71 -56 -120 -103 -148c-36 -22 -76 -36 -118 -36c-53 0 -105 27 -105 86c0 71 57 120 104 148c36 22 76 36 118 36z" fill="currentColor"/>
</g>
<g color="rgb(100.0000%, 100.0000%, 100.0000%)">
<g transform="translate(21.0466, 17.2398)">
<rect x="0.1110" y="-0.6489" width="1.1097" height="1.2978" ry="0.0000" fill="currentColor"/>
</g>
</g>
<g transform="scale(1.0000, 1.0000)">
<g transform="translate(21.1576, 17.8801)">
<text font-family="IPAexGothic" font-weight="bold" font-size="1.7463" text-anchor="start" fill="currentColor">
<tspan>0</tspan>
</text>
</g>
</g>
<g color="rgb(100.0000%, 100.0000%, 100.0000%)">
<g transform="translate(7.4797, 17.2398)">
<rect x="0.1110" y="-0.6489" width="1.1097" height="1.2978" ry="0.0000" fill="currentColor"/>
</g>
</g>
<g transform="scale(1.0000, 1.0000)">
<g transform="translate(7.5907, 17.8801)">
<text font-family="IPAexGothic" font-weight="bold" font-size="1.7463" text-anchor="start" fill="currentColor">
<tspan>6</tspan>
</text>
</g>
</g>
<g transform="translate(7.4797, 16.1277)">
<text font-family="Libertinus Serif" font-size="1.5557" text-anchor="start" fill="currentColor">
<tspan> Ⅰ</tspan>
</text>
</g>
<g transform="translate(6.8949, 13.5757)">
<text font-family="IPAexGothic" font-size="2.4695" text-anchor="start" fill="currentColor">
<tspan>ぼ</tspan>
</text>
</g>
<g transform="translate(7.4797, 5.6935)">
<path transform="scale(0.0040, -0.0040)" d="M222 135c53 0 104 -27 104 -86c0 -71 -56 -120 -103 -148c-36 -22 -76 -36 -118 -36c-53 0 -105 27 -105 86c0 71 57 120 104 148c36 22 76 36 118 36z" fill="currentColor"/>
</g>
<g transform="translate(33.3474, 8.1935)">
<rect x="-0.0490" y="-0.3033" width="0.0980" height="3.3033" ry="0.0250" fill="currentColor"/>
</g>
<g color="rgb(100.0000%, 100.0000%, 100.0000%)">
<g transform="translate(33.2985, 17.2398)">
<rect x="0.1110" y="-0.6489" width="1.1097" height="1.2978" ry="0.0000" fill="currentColor"/>
</g>
</g>
<g transform="scale(1.0000, 1.0000)">
<g transform="translate(33.4094, 17.8801)">
<text font-family="IPAexGothic" font-weight="bold" font-size="1.7463" text-anchor="start" fill="currentColor">
<tspan>0</tspan>
</text>
</g>
</g>
<g transform="translate(32.7137, 13.5757)">
<text font-family="IPAexGothic" font-size="2.4695" text-anchor="start" fill="currentColor">
<tspan>ひ</tspan>
</text>
</g>
<g transform="translate(33.2985, 7.6935)">
<path transform="scale(0.0040, -0.0040)" d="M222 135c53 0 104 -27 104 -86c0 -71 -56 -120 -103 -148c-36 -22 -76 -36 -118 -36c-53 0 -105 27 -105 86c0 71 57 120 104 148c36 22 76 36 118 36z" fill="currentColor"/>
</g>
<g transform="translate(27.8139, 18.7398)">
<circle stroke-linejoin="round" stroke-linecap="round" fill="currentColor" stroke="currentColor" stroke-width="0" r="0.4500"/>
</g>
<g transform="translate(27.3639, 18.7398)">
<path stroke-width="0.1200" stroke-linejoin="round" stroke-linecap="square" stroke="currentColor" fill="none" d="M2 -0.6700l1 0"/>
</g>
<g transform="translate(27.3639, 8.1935)">
<path transform="scale(0.0040, -0.0040)" d="M367 0h-359c-4 0 -8 4 -8 8v140c0 4 4 8 8 8h359c4 0 8 -4 8 -8v-140c0 -4 -4 -8 -8 -8z" fill="currentColor"/>
</g>
<g transform="translate(36.5061, 8.1935)">
<rect x="-0.0490" y="-0.3033" width="0.0980" height="3.3033" ry="0.0250" fill="currentColor"/>
</g>
<g color="rgb(100.0000%, 100.0000%, 100.0000%)">
<g transform="translate(36.4571, 17.2398)">
<rect x="0.1110" y="-0.6489" width="1.1097" height="1.2978" ry="0.0000" fill="currentColor"/>
</g>
</g>
<g transform="scale(1.0000, 1.0000)">
<g transform="translate(36.5681, 17.8801)">
<text font-family="IPAexGothic" font-weight="bold" font-size="1.7463" text-anchor="start" fill="currentColor">
<tspan>0</tspan>
</text>
</g>
</g>
<g transform="translate(35.8723, 13.5757)">
<text font-family="IPAexGothic" font-size="2.4695" text-anchor="start" fill="currentColor">
<tspan>と</tspan>
</text>
</g>
<g transform="translate(36.4571, 7.6935)">
<path transform="scale(0.0040, -0.0040)" d="M222 135c53 0 104 -27 104 -86c0 -71 -56 -120 -103 -148c-36 -22 -76 -36 -118 -36c-53 0 -105 27 -105 86c0 71 57 120 104 148c36 22 76 36 118 36z" fill="currentColor"/>
</g>
<g transform="translate(25.4621, 8.1935)">
<rect x="-0.0490" y="-3.6667" width="0.0980" height="4.4699" ry="0.0250" fill="currentColor"/>
</g>
<g transform="translate(24.2053, 9.1935)">
<path transform="scale(0.0040, -0.0040)" d="M222 135c53 0 104 -27 104 -86c0 -71 -56 -120 -103 -148c-36 -22 -76 -36 -118 -36c-53 0 -105 27 -105 86c0 71 57 120 104 148c36 22 76 36 118 36z" fill="currentColor"/>
</g>
<g transform="translate(24.2053, 7.6935)">
<path transform="scale(0.0040, -0.0040)" d="M222 135c53 0 104 -27 104 -86c0 -71 -56 -120 -103 -148c-36 -22 -76 -36 -118 -36c-53 0 -105 27 -105 86c0 71 57 120 104 148c36 22 76 36 118 36z" fill="currentColor"/>
</g>
<g transform="translate(23.6205, 13.5757)">
<text font-family="IPAexGothic" font-size="2.4695" text-anchor="start" fill="currentColor">
<tspan>る</tspan>
</text>
</g>
<g color="rgb(100.0000%, 100.0000%, 100.0000%)">
<g transform="translate(24.2053, 18.7398)">
<rect x="0.1110" y="-0.6489" width="1.1097" height="1.2978" ry="0.0000" fill="currentColor"/>
</g>
</g>
<g transform="scale(1.0000, 1.0000)">
<g transform="translate(24.3162, 19.3801)">
<text font-family="IPAexGothic" font-weight="bold" font-size="1.7463" text-anchor="start" fill="currentColor">
<tspan>0</tspan>
</text>
</g>
</g>
<g color="rgb(100.0000%, 100.0000%, 100.0000%)">
<g transform="translate(24.2053, 17.2398)">
<rect x="0.1110" y="-0.6489" width="1.1097" height="1.2978" ry="0.0000" fill="currentColor"/>
</g>
</g>
<g transform="scale(1.0000, 1.0000)">
<g transform="translate(24.3162, 17.8801)">
<text font-family="IPAexGothic" font-weight="bold" font-size="1.7463" text-anchor="start" fill="currentColor">
<tspan>0</tspan>
</text>
</g>
</g>
</svg>
