<svg xmlns="http://www.w3.org/2000/svg" xmlns:xlink="http://www.w3.org/1999/xlink" version="1.2" width="210.00mm" height="297.00mm" viewBox="0 0 66.3898 93.8941">
<style type="text/css">
<![CDATA[
tspan { white-space: pre; }
]]>
</style>
<!-- Page: 2/2 -->
<g transform="translate(3.1614, 3.2049)">
<text font-family="IPAexGothic" font-size="2.2000" text-anchor="start" fill="currentColor">
<tspan>2</tspan>
</text>
</g>
<g transform="translate(3.1614, 11.0849)">
<line stroke-linejoin="round" stroke-linecap="round" stroke-width="0.0708" stroke="currentColor" x1="0.0354" y1="0" x2="60.0315" y2="0"/>
</g>
<g transform="translate(3.1614, 10.0849)">
<line stroke-linejoin="round" stroke-linecap="round" stroke-width="0.0708" stroke="currentColor" x1="0.0354" y1="0" x2="60.0315" y2="0"/>
</g>
<g transform="translate(3.1614, 9.0849)">
<line stroke-linejoin="round" stroke-linecap="round" stroke-width="0.0708" stroke="currentColor" x1="0.0354" y1="0" x2="60.0315" y2="0"/>
</g>
<g transform="translate(3.1614, 8.0849)">
<line stroke-linejoin="round" stroke-linecap="round" stroke-width="0.0708" stroke="currentColor" x1="0.0354" y1="0" x2="60.0315" y2="0"/>
</g>
<g transform="translate(3.1614, 7.0849)">
<line stroke-linejoin="round" stroke-linecap="round" stroke-width="0.0708" stroke="currentColor" x1="0.0354" y1="0" x2="60.0315" y2="0"/>
</g>
<g transform="translate(20.6815, 9.0849)">
<rect x="0.0000" y="-2.0000" width="0.1345" height="4.0354" ry="0.0000" fill="currentColor"/>
</g>
<g transform="translate(50.7831, 9.0849)">
<rect x="0.0000" y="-2.0000" width="0.1345" height="4.0354" ry="0.0000" fill="currentColor"/>
</g>
<g transform="translate(20.6815, 16.2466)">
<rect x="0.0000" y="-1.5354" width="0.1345" height="3.0354" ry="0.0000" fill="currentColor"/>
</g>
<g transform="translate(50.7831, 16.2466)">
<rect x="0.0000" y="-1.5354" width="0.1345" height="3.0354" ry="0.0000" fill="currentColor"/>
</g>
<g transform="translate(50.7831, 4.2049)">
<rect x="0.0000" y="6.9154" width="0.1345" height="3.6263" ry="0.0000" fill="currentColor"/>
</g>
<g transform="translate(20.6815, 4.2049)">
<rect x="0.0000" y="6.9154" width="0.1345" height="3.6263" ry="0.0000" fill="currentColor"/>
</g>
<g transform="translate(36.1463, 4.2049)">
<rect x="0.0000" y="6.9154" width="0.1345" height="3.6263" ry="0.0000" fill="currentColor"/>
</g>
<g transform="translate(36.1463, 16.2466)">
<rect x="0.0000" y="-1.5354" width="0.1345" height="3.0354" ry="0.0000" fill="currentColor"/>
</g>
<g transform="translate(36.1463, 9.0849)">
<rect x="0.0000" y="-2.0000" width="0.1345" height="4.0354" ry="0.0000" fill="currentColor"/>
</g>
<g transform="translate(63.0938, 9.0849)">
<rect x="0.0000" y="-2.0000" width="0.1345" height="4.0354" ry="0.0000" fill="currentColor"/>
</g>
<g transform="translate(63.0938, 16.2466)">
<rect x="0.0000" y="-1.5354" width="0.1345" height="3.0354" ry="0.0000" fill="currentColor"/>
</g>
<g transform="translate(63.0938, 4.2049)">
<rect x="0.0000" y="6.9154" width="0.1345" height="3.6263" ry="0.0000" fill="currentColor"/>
</g>
<g transform="translate(3.1614, 17.7466)">
<line stroke-linejoin="round" stroke-linecap="round" stroke-width="0.0708" stroke="currentColor" x1="0.0354" y1="0" x2="60.0315" y2="0"/>
</g>
<g transform="translate(3.1614, 16.2466)">
<line stroke-linejoin="round" stroke-linecap="round" stroke-width="0.0708" stroke="currentColor" x1="0.0354" y1="0" x2="60.0315" y2="0"/>
</g>
<g transform="translate(3.1614, 14.7466)">
<line stroke-linejoin="round" stroke-linecap="round" stroke-width="0.0708" stroke="currentColor" x1="0.0354" y1="0" x2="60.0315" y2="0"/>
</g>
<g transform="translate(3.1614, 6.0849)">
<rect x="29.3527" y="-0.0854" width="1.9587" height="0.1708" ry="0.0854" fill="currentColor"/>
</g>
<g transform="translate(3.1614, 6.0849)">
<rect x="19.4540" y="-0.0854" width="1.8073" height="0.1708" ry="0.0854" fill="currentColor"/>
</g>
<g transform="translate(40.8560, 9.0849)">
<path transform="scale(0.0040, -0.0040)" d="M-23 -113c0 26 10 40 36 40c34 0 85 -15 130 -37l-137 164c-7 8 -10 17 -10 25c0 33 49 64 86 96c26 22 39 54 39 85c0 24 -8 47 -24 67l-39 46c-2 3 -3 6 -3 9c0 7 7 14 14 14c3 0 7 -1 10 -5l152 -182c7 -8 10 -17 10 -25c0 -33 -49 -64 -86 -96
c-26 -22 -39 -54 -39 -85c0 -24 8 -47 24 -67l87 -104c2 -3 3 -5 3 -8c0 -7 -7 -14 -14 -14c-3 0 -7 1 -10 5c-19 22 -66 43 -102 43c-40 0 -52 -29 -52 -70c0 -35 11 -75 28 -96c6 -7 -4 -16 -10 -9c-46 55 -93 150 -93 204z" fill="currentColor"/>
</g>
<g transform="translate(41.3060, 16.2466)">
<circle stroke-linejoin="round" stroke-linecap="round" fill="currentColor" stroke="currentColor" stroke-width="0" r="0.4500"/>
</g>
<g transform="translate(32.8866, 9.0849)">
<rect x="-0.0460" y="-2.8033" width="0.0920" height="3.3033" ry="0.0222" fill="currentColor"/>
</g>
<g transform="translate(43.9591, 7.5849)">
<path transform="scale(0.0040, -0.0040)" d="M222 135c53 0 104 -27 104 -86c0 -71 -56 -120 -103 -148c-36 -22 -76 -36 -118 -36c-53 0 -105 27 -105 86c0 71 57 120 104 148c36 22 76 36 118 36z" fill="currentColor"/>
</g>
<g color="rgb(100.0000%, 100.0000%, 100.0000%)">
<g transform="translate(43.9591, 14.7466)">
<rect x="0.1100" y="-0.6561" width="1.1002" height="1.3122" ry="0.0000" fill="currentColor"/>
</g>
</g>
<g transform="scale(1.0000, 1.0000)">
<g transform="translate(44.0691, 15.3780)">
<text font-family="IPAexGothic" font-weight="bold" font-size="1.7462" text-anchor="start" fill="currentColor">
<tspan>#</tspan>
</text>
</g>
</g>
<g transform="translate(44.0051, 9.0849)">
<rect x="-0.0460" y="-1.3033" width="0.0920" height="3.3033" ry="0.0222" fill="currentColor"/>
</g>
<g transform="translate(37.4450, 6.5849)">
<path transform="scale(0.0040, -0.0040)" d="M222 135c53 0 104 -27 104 -86c0 -71 -56 -120 -103 -148c-36 -22 -76 -36 -118 -36c-53 0 -105 27 -105 86c0 71 57 120 104 148c36 22 76 36 118 36z" fill="currentColor"/>
</g>
<g color="rgb(100.0000%, 100.0000%, 100.0000%)">
<g transform="translate(37.4450, 14.7466)">
<rect x="0.1100" y="-0.6489" width="1.1002" height="1.2977" ry="0.0000" fill="currentColor"/>
</g>
</g>
<g transform="scale(1.0000, 1.0000)">
<g transform="translate(37.5550, 15.3870)">
<text font-family="IPAexGothic" font-weight="bold" font-size="1.7462" text-anchor="start" fill="currentColor">
<tspan>6</tspan>
</text>
</g>
</g>
<g transform="translate(37.4910, 9.0849)">
<rect x="-0.0460" y="-2.3033" width="0.0920" height="3.3033" ry="0.0222" fill="currentColor"/>
</g>
<g transform="translate(55.4819, 9.0849)">
<path transform="scale(0.0040, -0.0040)" d="M367 0h-359c-4 0 -8 4 -8 8v140c0 4 4 8 8 8h359c4 0 8 -4 8 -8v-140c0 -4 -4 -8 -8 -8z" fill="currentColor"/>
</g>
<g transform="translate(55.9319, 16.2466)">
<circle stroke-linejoin="round" stroke-linecap="round" fill="currentColor" stroke="currentColor" stroke-width="0" r="0.4500"/>
</g>
<g transform="translate(55.4819, 16.2466)">
<path stroke-width="0.1200" stroke-linejoin="round" stroke-linecap="square" stroke="currentColor" fill="none" d="M2 -0.6700l1 0"/>
</g>
<g color="rgb(100.0000%, 100.0000%, 100.0000%)">
<g transform="translate(47.4952, 14.7466)">
<rect x="0.1100" y="-0.6489" width="1.1002" height="1.2977" ry="0.0000" fill="currentColor"/>
</g>
</g>
<g transform="scale(1.0000, 1.0000)">
<g transform="translate(47.6052, 15.3870)">
<text font-family="IPAexGothic" font-weight="bold" font-size="1.7462" text-anchor="start" fill="currentColor">
<tspan>6</tspan>
</text>
</g>
</g>
<g transform="translate(47.5412, 9.0849)">
<rect x="-0.0460" y="-2.3033" width="0.0920" height="3.3033" ry="0.0222" fill="currentColor"/>
</g>
<g transform="translate(52.0708, 8.0849)">
<path transform="scale(0.0040, -0.0040)" d="M222 135c53 0 104 -27 104 -86c0 -71 -56 -120 -103 -148c-36 -22 -76 -36 -118 -36c-53 0 -105 27 -105 86c0 71 57 120 104 148c36 22 76 36 118 36z" fill="currentColor"/>
</g>
<g color="rgb(100.0000%, 100.0000%, 100.0000%)">
<g transform="translate(52.0708, 14.7466)">
<rect x="0.1100" y="-0.6446" width="1.1002" height="1.2892" ry="0.0000" fill="currentColor"/>
</g>
</g>
<g transform="scale(1.0000, 1.0000)">
<g transform="translate(52.1808, 15.3912)">
<text font-family="IPAexGothic" font-weight="bold" font-size="1.7462" text-anchor="start" fill="currentColor">
<tspan>2</tspan>
</text>
</g>
</g>
<g transform="translate(52.1168, 9.0849)">
<rect x="-0.0460" y="-0.8033" width="0.0920" height="3.3033" ry="0.0222" fill="currentColor"/>
</g>
<g transform="translate(47.4952, 6.5849)">
<path transform="scale(0.0040, -0.0040)" d="M222 135c53 0 104 -27 104 -86c0 -71 -56 -120 -103 -148c-36 -22 -76 -36 -118 -36c-53 0 -105 27 -105 86c0 71 57 120 104 148c36 22 76 36 118 36z" fill="currentColor"/>
</g>
<g color="rgb(100.0000%, 100.0000%, 100.0000%)">
<g transform="translate(13.9826, 14.7466)">
<rect x="0.1100" y="-0.6382" width="1.1002" height="1.2764" ry="0.0000" fill="currentColor"/>
</g>
</g>
<g transform="scale(1.0000, 1.0000)">
<g transform="translate(14.0926, 15.3848)">
<text font-family="IPAexGothic" font-weight="bold" font-size="1.7462" text-anchor="start" fill="currentColor">
<tspan>4</tspan>
</text>
</g>
</g>
<g transform="translate(10.5715, 7.0849)">
<path transform="scale(0.0040, -0.0040)" d="M222 135c53 0 104 -27 104 -86c0 -71 -56 -120 -103 -148c-36 -22 -76 -36 -118 -36c-53 0 -105 27 -105 86c0 71 57 120 104 148c36 22 76 36 118 36z" fill="currentColor"/>
</g>
<g color="rgb(100.0000%, 100.0000%, 100.0000%)">
<g transform="translate(10.5715, 14.7466)">
<rect x="0.1100" y="-0.6382" width="1.1002" height="1.2764" ry="0.0000" fill="currentColor"/>
</g>
</g>
<g transform="scale(1.0000, 1.0000)">
<g transform="translate(10.6815, 15.3848)">
<text font-family="IPAexGothic" font-weight="bold" font-size="1.7462" text-anchor="start" fill="currentColor">
<tspan>4</tspan>
</text>
</g>
</g>
<g transform="translate(10.6175, 9.0849)">
<rect x="-0.0460" y="-1.8033" width="0.0920" height="3.3033" ry="0.0222" fill="currentColor"/>
</g>
<g transform="translate(13.9826, 7.0849)">
<path transform="scale(0.0040, -0.0040)" d="M222 135c53 0 104 -27 104 -86c0 -71 -56 -120 -103 -148c-36 -22 -76 -36 -118 -36c-53 0 -105 27 -105 86c0 71 57 120 104 148c36 22 76 36 118 36z" fill="currentColor"/>
</g>
<g transform="translate(14.0286, 9.0849)">
<rect x="-0.0460" y="-1.8033" width="0.0920" height="3.3033" ry="0.0222" fill="currentColor"/>
</g>
<g transform="translate(17.3937, 6.5849)">
<path transform="scale(0.0040, -0.0040)" d="M222 135c53 0 104 -27 104 -86c0 -71 -56 -120 -103 -148c-36 -22 -76 -36 -118 -36c-53 0 -105 27 -105 86c0 71 57 120 104 148c36 22 76 36 118 36z" fill="currentColor"/>
</g>
<g color="rgb(100.0000%, 100.0000%, 100.0000%)">
<g transform="translate(17.3937, 14.7466)">
<rect x="0.1100" y="-0.6489" width="1.1002" height="1.2977" ry="0.0000" fill="currentColor"/>
</g>
</g>
<g transform="scale(1.0000, 1.0000)">
<g transform="translate(17.5037, 15.3870)">
<text font-family="IPAexGothic" font-weight="bold" font-size="1.7462" text-anchor="start" fill="currentColor">
<tspan>6</tspan>
</text>
</g>
</g>
<g color="rgb(100.0000%, 100.0000%, 100.0000%)">
<g transform="translate(32.8406, 14.7466)">
<rect x="0.1100" y="-0.6322" width="1.1002" height="1.2644" ry="0.0000" fill="currentColor"/>
</g>
</g>
<g transform="scale(1.0000, 1.0000)">
<g transform="translate(32.9506, 15.3789)">
<text font-family="IPAexGothic" font-weight="bold" font-size="1.7462" text-anchor="start" fill="currentColor">
<tspan>7</tspan>
</text>
</g>
</g>
<g transform="translate(1.8981, 6.8245)">
<path transform="scale(0.0040, -0.0040)" d="M0 -56v91c0 12 10 21 22 21h43c164 0 281 136 377 272c10 14 32 -1 22 -15c-103 -145 -222 -369 -399 -369h-65z" fill="currentColor"/>
</g>
<g transform="translate(1.8981, 18.0070)">
<path transform="scale(0.0040, -0.0040)" d="M0 56h65c177 0 296 -224 399 -369c10 -14 -12 -29 -22 -15c-96 136 -213 272 -377 272h-43c-12 0 -22 9 -22 21v91z" fill="currentColor"/>
</g>
<g transform="translate(1.8981, 12.4158)">
<rect x="0.0000" y="-5.4112" width="0.4500" height="10.8225" ry="0.0000" fill="currentColor"/>
</g>
<g transform="translate(3.1481, 12.4158)">
<rect x="0.0000" y="-5.3662" width="0.1133" height="10.7325" ry="0.0354" fill="currentColor"/>
</g>
<g transform="translate(3.9614, 10.0849)">
<path transform="scale(0.0040, -0.0040)" d="M374 260c5 0 10 1 15 1c154 0 254 -127 254 -259c0 -76 -33 -153 -107 -208c-22 -17 -47 -29 -73 -37c3 -36 5 -72 5 -108c0 -19 0 -37 -1 -56c-7 -120 -88 -226 -206 -226c-108 0 -195 87 -195 195c0 58 53 104 112 104c54 0 95 -48 95 -104c0 -52 -43 -95 -95 -95
c-12 0 -24 4 -35 9c26 -41 70 -70 121 -70c1 0 2 1 3 1c93 2 154 93 160 192c1 18 2 35 2 53c0 32 -2 64 -5 96c-29 -5 -58 -8 -89 -8c-188 0 -333 171 -333 372c0 178 133 306 251 440c-18 63 -35 126 -42 191c-6 51 -7 102 -7 154c0 116 55 226 150 295c5 4 11 4 16 0
c70 -84 132 -246 132 -359c0 -144 -87 -256 -183 -365c20 -69 39 -138 55 -208zM459 -205c69 24 117 96 117 166c0 92 -69 184 -179 193c25 -117 48 -235 62 -359zM71 31c0 -136 131 -251 267 -251c28 0 55 2 82 6c-15 128 -38 247 -64 367c-79 -9 -125 -62 -125 -121
c0 -44 26 -92 82 -124c4 -4 7 -9 7 -14c0 -11 -9 -21 -20 -21c-3 0 -6 1 -9 2c-80 43 -116 114 -116 184c0 88 57 173 158 196c-14 60 -30 119 -46 178c-108 -121 -216 -242 -216 -402zM411 1050c-99 -50 -161 -151 -161 -262c0 -76 15 -137 33 -200c82 97 149 198 149 325
c0 58 -4 84 -21 137z" fill="currentColor"/>
</g>
<g transform="translate(4.5511, 13.6184)">
<text font-family="IPAexGothic" font-style="italic" font-size="1.3859" text-anchor="start" fill="currentColor">
<tspan>8</tspan>
</text>
</g>
<g transform="translate(17.4397, 9.0849)">
<rect x="-0.0460" y="-2.3033" width="0.0920" height="3.3033" ry="0.0222" fill="currentColor"/>
</g>
<g transform="translate(7.1604, 7.0849)">
<path transform="scale(0.0040, -0.0040)" d="M222 135c53 0 104 -27 104 -86c0 -71 -56 -120 -103 -148c-36 -22 -76 -36 -118 -36c-53 0 -105 27 -105 86c0 71 57 120 104 148c36 22 76 36 118 36z" fill="currentColor"/>
</g>
<g color="rgb(100.0000%, 100.0000%, 100.0000%)">
<g transform="translate(7.1604, 14.7466)">
<rect x="0.1100" y="-0.6382" width="1.1002" height="1.2764" ry="0.0000" fill="currentColor"/>
</g>
</g>
<g transform="scale(1.0000, 1.0000)">
<g transform="translate(7.2704, 15.3848)">
<text font-family="IPAexGothic" font-weight="bold" font-size="1.7462" text-anchor="start" fill="currentColor">
<tspan>4</tspan>
</text>
</g>
</g>
<g transform="translate(7.2064, 9.0849)">
<rect x="-0.0460" y="-1.8033" width="0.0920" height="3.3033" ry="0.0222" fill="currentColor"/>
</g>
<g transform="translate(26.2014, 9.0849)">
<path transform="scale(0.0040, -0.0040)" d="M-23 -113c0 26 10 40 36 40c34 0 85 -15 130 -37l-137 164c-7 8 -10 17 -10 25c0 33 49 64 86 96c26 22 39 54 39 85c0 24 -8 47 -24 67l-39 46c-2 3 -3 6 -3 9c0 7 7 14 14 14c3 0 7 -1 10 -5l152 -182c7 -8 10 -17 10 -25c0 -33 -49 -64 -86 -96
c-26 -22 -39 -54 -39 -85c0 -24 8 -47 24 -67l87 -104c2 -3 3 -5 3 -8c0 -7 -7 -14 -14 -14c-3 0 -7 1 -10 5c-19 22 -66 43 -102 43c-40 0 -52 -29 -52 -70c0 -35 11 -75 28 -96c6 -7 -4 -16 -10 -9c-46 55 -93 150 -93 204z" fill="currentColor"/>
</g>
<g transform="translate(26.6514, 16.2466)">
<circle stroke-linejoin="round" stroke-linecap="round" fill="currentColor" stroke="currentColor" stroke-width="0" r="0.4500"/>
</g>
<g transform="translate(29.3045, 7.0849)">
<path transform="scale(0.0040, -0.0040)" d="M222 135c53 0 104 -27 104 -86c0 -71 -56 -120 -103 -148c-36 -22 -76 -36 -118 -36c-53 0 -105 27 -105 86c0 71 57 120 104 148c36 22 76 36 118 36z" fill="currentColor"/>
</g>
<g color="rgb(100.0000%, 100.0000%, 100.0000%)">
<g transform="translate(29.3045, 14.7466)">
<rect x="0.1100" y="-0.6382" width="1.1002" height="1.2764" ry="0.0000" fill="currentColor"/>
</g>
</g>
<g transform="scale(1.0000, 1.0000)">
<g transform="translate(29.4145, 15.3848)">
<text font-family="IPAexGothic" font-weight="bold" font-size="1.7462" text-anchor="start" fill="currentColor">
<tspan>4</tspan>
</text>
</g>
</g>
<g transform="translate(29.3505, 9.0849)">
<rect x="-0.0460" y="-1.8033" width="0.0920" height="3.3033" ry="0.0222" fill="currentColor"/>
</g>
<g transform="translate(32.8406, 6.0849)">
<path transform="scale(0.0040, -0.0040)" d="M222 135c53 0 104 -27 104 -86c0 -71 -56 -120 -103 -148c-36 -22 -76 -36 -118 -36c-53 0 -105 27 -105 86c0 71 57 120 104 148c36 22 76 36 118 36z" fill="currentColor"/>
</g>
<g transform="translate(22.7904, 6.0849)">
<path transform="scale(0.0040, -0.0040)" d="M222 135c53 0 104 -27 104 -86c0 -71 -56 -120 -103 -148c-36 -22 -76 -36 -118 -36c-53 0 -105 27 -105 86c0 71 57 120 104 148c36 22 76 36 118 36z" fill="currentColor"/>
</g>
<g color="rgb(100.0000%, 100.0000%, 100.0000%)">
<g transform="translate(22.7904, 14.7466)">
<rect x="0.1100" y="-0.6322" width="1.1002" height="1.2644" ry="0.0000" fill="currentColor"/>
</g>
</g>
<g transform="scale(1.0000, 1.0000)">
<g transform="translate(22.9004, 15.3789)">
<text font-family="IPAexGothic" font-weight="bold" font-size="1.7462" text-anchor="start" fill="currentColor">
<tspan>7</tspan>
</text>
</g>
</g>
<g transform="translate(22.8364, 9.0849)">
<rect x="-0.0460" y="-2.8033" width="0.0920" height="3.3033" ry="0.0222" fill="currentColor"/>
</g>
<g transform="translate(21.6404, 6.0849)">
<path transform="scale(0.0040, -0.0040)" d="M25 44l-1 -69c0 -4 -1 -7 -1 -11c0 -22 2 -44 4 -66c46 38 96 80 96 139c0 34 -14 69 -44 69c-31 0 -53 -29 -54 -62zM-25 463c8 4 16 7 25 7s17 -3 25 -7l-6 -349c26 19 56 30 88 30c53 0 93 -46 93 -100c0 -82 -90 -118 -153 -169c-14 -11 -22 -32 -40 -32
c-12 0 -21 9 -21 21z" fill="currentColor"/>
</g>
<g transform="translate(3.1614, 26.5700)">
<line stroke-linejoin="round" stroke-linecap="round" stroke-width="0.0708" stroke="currentColor" x1="0.0354" y1="0" x2="60.0315" y2="0"/>
</g>
<g transform="translate(3.1614, 25.5700)">
<line stroke-linejoin="round" stroke-linecap="round" stroke-width="0.0708" stroke="currentColor" x1="0.0354" y1="0" x2="60.0315" y2="0"/>
</g>
<g transform="translate(3.1614, 24.5700)">
<line stroke-linejoin="round" stroke-linecap="round" stroke-width="0.0708" stroke="currentColor" x1="0.0354" y1="0" x2="60.0315" y2="0"/>
</g>
<g transform="translate(3.1614, 23.5700)">
<line stroke-linejoin="round" stroke-linecap="round" stroke-width="0.0708" stroke="currentColor" x1="0.0354" y1="0" x2="60.0315" y2="0"/>
</g>
<g transform="translate(3.1614, 22.5700)">
<line stroke-linejoin="round" stroke-linecap="round" stroke-width="0.0708" stroke="currentColor" x1="0.0354" y1="0" x2="60.0315" y2="0"/>
</g>
<g transform="translate(22.5663, 31.7317)">
<rect x="0.0000" y="-1.5354" width="0.1345" height="3.0354" ry="0.0000" fill="currentColor"/>
</g>
<g transform="translate(22.5663, 20.7900)">
<rect x="0.0000" y="5.8154" width="0.1345" height="3.6263" ry="0.0000" fill="currentColor"/>
</g>
<g transform="translate(36.2834, 20.7900)">
<rect x="0.0000" y="5.8154" width="0.1345" height="3.6263" ry="0.0000" fill="currentColor"/>
</g>
<g transform="translate(22.5663, 24.5700)">
<rect x="0.0000" y="-2.0000" width="0.1345" height="4.0354" ry="0.0000" fill="currentColor"/>
</g>
<g transform="translate(36.2834, 31.7317)">
<rect x="0.0000" y="-1.5354" width="0.1345" height="3.0354" ry="0.0000" fill="currentColor"/>
</g>
<g transform="translate(49.3767, 20.7900)">
<rect x="0.0000" y="5.8154" width="0.1345" height="3.6263" ry="0.0000" fill="currentColor"/>
</g>
<g transform="translate(49.3767, 31.7317)">
<rect x="0.0000" y="-1.5354" width="0.1345" height="3.0354" ry="0.0000" fill="currentColor"/>
</g>
<g transform="translate(36.2834, 24.5700)">
<rect x="0.0000" y="-2.0000" width="0.1345" height="4.0354" ry="0.0000" fill="currentColor"/>
</g>
<g transform="translate(63.0938, 24.5700)">
<rect x="0.0000" y="-2.0000" width="0.1345" height="4.0354" ry="0.0000" fill="currentColor"/>
</g>
<g transform="translate(63.0938, 31.7317)">
<rect x="0.0000" y="-1.5354" width="0.1345" height="3.0354" ry="0.0000" fill="currentColor"/>
</g>
<g transform="translate(49.3767, 24.5700)">
<rect x="0.0000" y="-2.0000" width="0.1345" height="4.0354" ry="0.0000" fill="currentColor"/>
</g>
<g transform="translate(63.0938, 20.7900)">
<rect x="0.0000" y="5.8154" width="0.1345" height="3.6263" ry="0.0000" fill="currentColor"/>
</g>
<g transform="translate(3.1614, 33.2317)">
<line stroke-linejoin="round" stroke-linecap="round" stroke-width="0.0708" stroke="currentColor" x1="0.0354" y1="0" x2="60.0315" y2="0"/>
</g>
<g transform="translate(3.1614, 31.7317)">
<line stroke-linejoin="round" stroke-linecap="round" stroke-width="0.0708" stroke="currentColor" x1="0.0354" y1="0" x2="60.0315" y2="0"/>
</g>
<g transform="translate(3.1614, 30.2317)">
<line stroke-linejoin="round" stroke-linecap="round" stroke-width="0.0708" stroke="currentColor" x1="0.0354" y1="0" x2="60.0315" y2="0"/>
</g>
<g transform="translate(43.8861, 31.7317)">
<circle stroke-linejoin="round" stroke-linecap="round" fill="currentColor" stroke="currentColor" stroke-width="0" r="0.4500"/>
</g>
<g transform="translate(43.4361, 24.5700)">
<path transform="scale(0.0040, -0.0040)" d="M-23 -113c0 26 10 40 36 40c34 0 85 -15 130 -37l-137 164c-7 8 -10 17 -10 25c0 33 49 64 86 96c26 22 39 54 39 85c0 24 -8 47 -24 67l-39 46c-2 3 -3 6 -3 9c0 7 7 14 14 14c3 0 7 -1 10 -5l152 -182c7 -8 10 -17 10 -25c0 -33 -49 -64 -86 -96
c-26 -22 -39 -54 -39 -85c0 -24 8 -47 24 -67l87 -104c2 -3 3 -5 3 -8c0 -7 -7 -14 -14 -14c-3 0 -7 1 -10 5c-19 22 -66 43 -102 43c-40 0 -52 -29 -52 -70c0 -35 11 -75 28 -96c6 -7 -4 -16 -10 -9c-46 55 -93 150 -93 204z" fill="currentColor"/>
</g>
<g transform="translate(40.2991, 24.5700)">
<rect x="-0.0460" y="-0.3033" width="0.0920" height="3.3033" ry="0.0222" fill="currentColor"/>
</g>
<g transform="translate(46.3111, 23.5700)">
<path transform="scale(0.0040, -0.0040)" d="M222 135c53 0 104 -27 104 -86c0 -71 -56 -120 -103 -148c-36 -22 -76 -36 -118 -36c-53 0 -105 27 -105 86c0 71 57 120 104 148c36 22 76 36 118 36z" fill="currentColor"/>
</g>
<g color="rgb(100.0000%, 100.0000%, 100.0000%)">
<g transform="translate(46.3111, 30.2317)">
<rect x="0.1100" y="-0.6446" width="1.1002" height="1.2892" ry="0.0000" fill="currentColor"/>
</g>
</g>
<g transform="scale(1.0000, 1.0000)">
<g transform="translate(46.4212, 30.8763)">
<text font-family="IPAexGothic" font-weight="bold" font-size="1.7462" text-anchor="start" fill="currentColor">
<tspan>2</tspan>
</text>
</g>
</g>
<g transform="translate(46.3572, 24.5700)">
<rect x="-0.0460" y="-0.8033" width="0.0920" height="3.3033" ry="0.0222" fill="currentColor"/>
</g>
<g transform="translate(37.3781, 24.5700)">
<path transform="scale(0.0040, -0.0040)" d="M-23 -113c0 26 10 40 36 40c34 0 85 -15 130 -37l-137 164c-7 8 -10 17 -10 25c0 33 49 64 86 96c26 22 39 54 39 85c0 24 -8 47 -24 67l-39 46c-2 3 -3 6 -3 9c0 7 7 14 14 14c3 0 7 -1 10 -5l152 -182c7 -8 10 -17 10 -25c0 -33 -49 -64 -86 -96
c-26 -22 -39 -54 -39 -85c0 -24 8 -47 24 -67l87 -104c2 -3 3 -5 3 -8c0 -7 -7 -14 -14 -14c-3 0 -7 1 -10 5c-19 22 -66 43 -102 43c-40 0 -52 -29 -52 -70c0 -35 11 -75 28 -96c6 -7 -4 -16 -10 -9c-46 55 -93 150 -93 204z" fill="currentColor"/>
</g>
<g transform="translate(37.8281, 31.7317)">
<circle stroke-linejoin="round" stroke-linecap="round" fill="currentColor" stroke="currentColor" stroke-width="0" r="0.4500"/>
</g>
<g color="rgb(100.0000%, 100.0000%, 100.0000%)">
<g transform="translate(40.2531, 30.2317)">
<rect x="0.1100" y="-0.6489" width="1.1002" height="1.2977" ry="0.0000" fill="currentColor"/>
</g>
</g>
<g transform="scale(1.0000, 1.0000)">
<g transform="translate(40.3631, 30.8720)">
<text font-family="IPAexGothic" font-weight="bold" font-size="1.7462" text-anchor="start" fill="currentColor">
<tspan>0</tspan>
</text>
</g>
</g>
<g transform="translate(40.2531, 24.0700)">
<path transform="scale(0.0040, -0.0040)" d="M222 135c53 0 104 -27 104 -86c0 -71 -56 -120 -103 -148c-36 -22 -76 -36 -118 -36c-53 0 -105 27 -105 86c0 71 57 120 104 148c36 22 76 36 118 36z" fill="currentColor"/>
</g>
<g transform="translate(61.1034, 24.5700)">
<rect x="-0.0460" y="-3.0000" width="0.0920" height="3.3033" ry="0.0222" fill="currentColor"/>
</g>
<g color="rgb(100.0000%, 100.0000%, 100.0000%)">
<g transform="translate(59.8436, 31.7317)">
<rect x="0.1100" y="-0.6446" width="1.1002" height="1.2892" ry="0.0000" fill="currentColor"/>
</g>
</g>
<g transform="scale(1.0000, 1.0000)">
<g transform="translate(59.9536, 32.3763)">
<text font-family="IPAexGothic" font-weight="bold" font-size="1.7462" text-anchor="start" fill="currentColor">
<tspan>2</tspan>
</text>
</g>
</g>
<g transform="translate(59.8436, 25.0700)">
<path transform="scale(0.0040, -0.0040)" d="M222 135c53 0 104 -27 104 -86c0 -71 -56 -120 -103 -148c-36 -22 -76 -36 -118 -36c-53 0 -105 27 -105 86c0 71 57 120 104 148c36 22 76 36 118 36z" fill="currentColor"/>
</g>
<g transform="translate(57.9203, 24.5700)">
<rect x="-0.0460" y="-2.5000" width="0.0920" height="3.3033" ry="0.0222" fill="currentColor"/>
</g>
<g color="rgb(100.0000%, 100.0000%, 100.0000%)">
<g transform="translate(56.6605, 31.7317)">
<rect x="0.1100" y="-0.6489" width="1.1002" height="1.2977" ry="0.0000" fill="currentColor"/>
</g>
</g>
<g transform="scale(1.0000, 1.0000)">
<g transform="translate(56.7706, 32.3720)">
<text font-family="IPAexGothic" font-weight="bold" font-size="1.7462" text-anchor="start" fill="currentColor">
<tspan>0</tspan>
</text>
</g>
</g>
<g transform="translate(56.6605, 25.5700)">
<path transform="scale(0.0040, -0.0040)" d="M222 135c53 0 104 -27 104 -86c0 -71 -56 -120 -103 -148c-36 -22 -76 -36 -118 -36c-53 0 -105 27 -105 86c0 71 57 120 104 148c36 22 76 36 118 36z" fill="currentColor"/>
</g>
<g transform="translate(50.6696, 24.5700)">
<rect x="-0.0460" y="-1.3033" width="0.0920" height="3.3033" ry="0.0222" fill="currentColor"/>
</g>
<g color="rgb(100.0000%, 100.0000%, 100.0000%)">
<g transform="translate(50.6236, 30.2317)">
<rect x="0.1100" y="-0.6561" width="1.1002" height="1.3122" ry="0.0000" fill="currentColor"/>
</g>
</g>
<g transform="scale(1.0000, 1.0000)">
<g transform="translate(50.7336, 30.8631)">
<text font-family="IPAexGothic" font-weight="bold" font-size="1.7462" text-anchor="start" fill="currentColor">
<tspan>#</tspan>
</text>
</g>
</g>
<g transform="translate(50.6236, 23.0700)">
<path transform="scale(0.0040, -0.0040)" d="M222 135c53 0 104 -27 104 -86c0 -71 -56 -120 -103 -148c-36 -22 -76 -36 -118 -36c-53 0 -105 27 -105 86c0 71 57 120 104 148c36 22 76 36 118 36z" fill="currentColor"/>
</g>
<g transform="translate(53.6816, 24.0700)">
<path transform="scale(0.0040, -0.0040)" d="M222 135c53 0 104 -27 104 -86c0 -71 -56 -120 -103 -148c-36 -22 -76 -36 -118 -36c-53 0 -105 27 -105 86c0 71 57 120 104 148c36 22 76 36 118 36z" fill="currentColor"/>
</g>
<g color="rgb(100.0000%, 100.0000%, 100.0000%)">
<g transform="translate(53.6816, 30.2317)">
<rect x="0.1100" y="-0.6489" width="1.1002" height="1.2977" ry="0.0000" fill="currentColor"/>
</g>
</g>
<g transform="scale(1.0000, 1.0000)">
<g transform="translate(53.7916, 30.8720)">
<text font-family="IPAexGothic" font-weight="bold" font-size="1.7462" text-anchor="start" fill="currentColor">
<tspan>0</tspan>
</text>
</g>
</g>
<g transform="translate(53.7276, 24.5700)">
<rect x="-0.0460" y="-0.3033" width="0.0920" height="3.3033" ry="0.0222" fill="currentColor"/>
</g>
<g transform="translate(13.1973, 24.5700)">
<rect x="-0.0460" y="-0.3033" width="0.0920" height="3.3033" ry="0.0222" fill="currentColor"/>
</g>
<g color="rgb(100.0000%, 100.0000%, 100.0000%)">
<g transform="translate(13.1513, 30.2317)">
<rect x="0.1100" y="-0.6489" width="1.1002" height="1.2977" ry="0.0000" fill="currentColor"/>
</g>
</g>
<g transform="scale(1.0000, 1.0000)">
<g transform="translate(13.2613, 30.8720)">
<text font-family="IPAexGothic" font-weight="bold" font-size="1.7462" text-anchor="start" fill="currentColor">
<tspan>0</tspan>
</text>
</g>
</g>
<g transform="translate(13.1513, 24.0700)">
<path transform="scale(0.0040, -0.0040)" d="M222 135c53 0 104 -27 104 -86c0 -71 -56 -120 -103 -148c-36 -22 -76 -36 -118 -36c-53 0 -105 27 -105 86c0 71 57 120 104 148c36 22 76 36 118 36z" fill="currentColor"/>
</g>
<g transform="translate(10.0143, 24.5700)">
<rect x="-0.0460" y="-0.3033" width="0.0920" height="3.3033" ry="0.0222" fill="currentColor"/>
</g>
<g color="rgb(100.0000%, 100.0000%, 100.0000%)">
<g transform="translate(9.9683, 30.2317)">
<rect x="0.1100" y="-0.6489" width="1.1002" height="1.2977" ry="0.0000" fill="currentColor"/>
</g>
</g>
<g transform="scale(1.0000, 1.0000)">
<g transform="translate(10.0783, 30.8720)">
<text font-family="IPAexGothic" font-weight="bold" font-size="1.7462" text-anchor="start" fill="currentColor">
<tspan>0</tspan>
</text>
</g>
</g>
<g transform="translate(9.9683, 24.0700)">
<path transform="scale(0.0040, -0.0040)" d="M222 135c53 0 104 -27 104 -86c0 -71 -56 -120 -103 -148c-36 -22 -76 -36 -118 -36c-53 0 -105 27 -105 86c0 71 57 120 104 148c36 22 76 36 118 36z" fill="currentColor"/>
</g>
<g transform="translate(16.3803, 24.5700)">
<rect x="-0.0460" y="-0.8033" width="0.0920" height="3.3033" ry="0.0222" fill="currentColor"/>
</g>
<g transform="translate(19.5173, 23.0700)">
<path transform="scale(0.0040, -0.0040)" d="M222 135c53 0 104 -27 104 -86c0 -71 -56 -120 -103 -148c-36 -22 -76 -36 -118 -36c-53 0 -105 27 -105 86c0 71 57 120 104 148c36 22 76 36 118 36z" fill="currentColor"/>
</g>
<g transform="translate(34.2929, 24.5700)">
<rect x="-0.0460" y="-3.0000" width="0.0920" height="3.3033" ry="0.0222" fill="currentColor"/>
</g>
<g color="rgb(100.0000%, 100.0000%, 100.0000%)">
<g transform="translate(16.3343, 30.2317)">
<rect x="0.1100" y="-0.6446" width="1.1002" height="1.2892" ry="0.0000" fill="currentColor"/>
</g>
</g>
<g transform="scale(1.0000, 1.0000)">
<g transform="translate(16.4443, 30.8763)">
<text font-family="IPAexGothic" font-weight="bold" font-size="1.7462" text-anchor="start" fill="currentColor">
<tspan>2</tspan>
</text>
</g>
</g>
<g transform="translate(16.3343, 23.5700)">
<path transform="scale(0.0040, -0.0040)" d="M222 135c53 0 104 -27 104 -86c0 -71 -56 -120 -103 -148c-36 -22 -76 -36 -118 -36c-53 0 -105 27 -105 86c0 71 57 120 104 148c36 22 76 36 118 36z" fill="currentColor"/>
</g>
<g transform="translate(4.5511, 29.1035)">
<text font-family="IPAexGothic" font-style="italic" font-size="1.3859" text-anchor="start" fill="currentColor">
<tspan>8</tspan>
</text>
</g>
<g transform="translate(3.9614, 25.5700)">
<path transform="scale(0.0040, -0.0040)" d="M374 260c5 0 10 1 15 1c154 0 254 -127 254 -259c0 -76 -33 -153 -107 -208c-22 -17 -47 -29 -73 -37c3 -36 5 -72 5 -108c0 -19 0 -37 -1 -56c-7 -120 -88 -226 -206 -226c-108 0 -195 87 -195 195c0 58 53 104 112 104c54 0 95 -48 95 -104c0 -52 -43 -95 -95 -95
c-12 0 -24 4 -35 9c26 -41 70 -70 121 -70c1 0 2 1 3 1c93 2 154 93 160 192c1 18 2 35 2 53c0 32 -2 64 -5 96c-29 -5 -58 -8 -89 -8c-188 0 -333 171 -333 372c0 178 133 306 251 440c-18 63 -35 126 -42 191c-6 51 -7 102 -7 154c0 116 55 226 150 295c5 4 11 4 16 0
c70 -84 132 -246 132 -359c0 -144 -87 -256 -183 -365c20 -69 39 -138 55 -208zM459 -205c69 24 117 96 117 166c0 92 -69 184 -179 193c25 -117 48 -235 62 -359zM71 31c0 -136 131 -251 267 -251c28 0 55 2 82 6c-15 128 -38 247 -64 367c-79 -9 -125 -62 -125 -121
c0 -44 26 -92 82 -124c4 -4 7 -9 7 -14c0 -11 -9 -21 -20 -21c-3 0 -6 1 -9 2c-80 43 -116 114 -116 184c0 88 57 173 158 196c-14 60 -30 119 -46 178c-108 -121 -216 -242 -216 -402zM411 1050c-99 -50 -161 -151 -161 -262c0 -76 15 -137 33 -200c82 97 149 198 149 325
c0 58 -4 84 -21 137z" fill="currentColor"/>
</g>
<g transform="translate(3.1481, 27.9009)">
<rect x="0.0000" y="-5.3662" width="0.1133" height="10.7325" ry="0.0354" fill="currentColor"/>
</g>
<g transform="translate(1.8981, 22.3096)">
<path transform="scale(0.0040, -0.0040)" d="M0 -56v91c0 12 10 21 22 21h43c164 0 281 136 377 272c10 14 32 -1 22 -15c-103 -145 -222 -369 -399 -369h-65z" fill="currentColor"/>
</g>
<g transform="translate(1.8981, 33.4921)">
<path transform="scale(0.0040, -0.0040)" d="M0 56h65c177 0 296 -224 399 -369c10 -14 -12 -29 -22 -15c-96 136 -213 272 -377 272h-43c-12 0 -22 9 -22 21v91z" fill="currentColor"/>
</g>
<g transform="translate(1.8981, 27.9009)">
<rect x="0.0000" y="-5.4112" width="0.4500" height="10.8225" ry="0.0000" fill="currentColor"/>
</g>
<g transform="translate(7.5433, 31.7317)">
<circle stroke-linejoin="round" stroke-linecap="round" fill="currentColor" stroke="currentColor" stroke-width="0" r="0.4500"/>
</g>
<g transform="translate(7.0933, 24.5700)">
<path transform="scale(0.0040, -0.0040)" d="M-23 -113c0 26 10 40 36 40c34 0 85 -15 130 -37l-137 164c-7 8 -10 17 -10 25c0 33 49 64 86 96c26 22 39 54 39 85c0 24 -8 47 -24 67l-39 46c-2 3 -3 6 -3 9c0 7 7 14 14 14c3 0 7 -1 10 -5l152 -182c7 -8 10 -17 10 -25c0 -33 -49 -64 -86 -96
c-26 -22 -39 -54 -39 -85c0 -24 8 -47 24 -67l87 -104c2 -3 3 -5 3 -8c0 -7 -7 -14 -14 -14c-3 0 -7 1 -10 5c-19 22 -66 43 -102 43c-40 0 -52 -29 -52 -70c0 -35 11 -75 28 -96c6 -7 -4 -16 -10 -9c-46 55 -93 150 -93 204z" fill="currentColor"/>
</g>
<g transform="translate(26.9172, 24.5700)">
<rect x="-0.0460" y="-0.3033" width="0.0920" height="3.3033" ry="0.0222" fill="currentColor"/>
</g>
<g color="rgb(100.0000%, 100.0000%, 100.0000%)">
<g transform="translate(26.8712, 30.2317)">
<rect x="0.1100" y="-0.6489" width="1.1002" height="1.2977" ry="0.0000" fill="currentColor"/>
</g>
</g>
<g transform="scale(1.0000, 1.0000)">
<g transform="translate(26.9812, 30.8720)">
<text font-family="IPAexGothic" font-weight="bold" font-size="1.7462" text-anchor="start" fill="currentColor">
<tspan>0</tspan>
</text>
</g>
</g>
<g transform="translate(26.8712, 24.0700)">
<path transform="scale(0.0040, -0.0040)" d="M222 135c53 0 104 -27 104 -86c0 -71 -56 -120 -103 -148c-36 -22 -76 -36 -118 -36c-53 0 -105 27 -105 86c0 71 57 120 104 148c36 22 76 36 118 36z" fill="currentColor"/>
</g>
<g color="rgb(100.0000%, 100.0000%, 100.0000%)">
<g transform="translate(19.5173, 30.2317)">
<rect x="0.1100" y="-0.6561" width="1.1002" height="1.3122" ry="0.0000" fill="currentColor"/>
</g>
</g>
<g transform="scale(1.0000, 1.0000)">
<g transform="translate(19.6273, 30.8631)">
<text font-family="IPAexGothic" font-weight="bold" font-size="1.7462" text-anchor="start" fill="currentColor">
<tspan>#</tspan>
</text>
</g>
</g>
<g color="rgb(100.0000%, 100.0000%, 100.0000%)">
<g transform="translate(33.0332, 31.7317)">
<rect x="0.1100" y="-0.6446" width="1.1002" height="1.2892" ry="0.0000" fill="currentColor"/>
</g>
</g>
<g transform="scale(1.0000, 1.0000)">
<g transform="translate(33.1432, 32.3763)">
<text font-family="IPAexGothic" font-weight="bold" font-size="1.7462" text-anchor="start" fill="currentColor">
<tspan>2</tspan>
</text>
</g>
</g>
<g transform="translate(33.0332, 25.0700)">
<path transform="scale(0.0040, -0.0040)" d="M222 135c53 0 104 -27 104 -86c0 -71 -56 -120 -103 -148c-36 -22 -76 -36 -118 -36c-53 0 -105 27 -105 86c0 71 57 120 104 148c36 22 76 36 118 36z" fill="currentColor"/>
</g>
<g transform="translate(31.1099, 24.5700)">
<rect x="-0.0460" y="-2.5000" width="0.0920" height="3.3033" ry="0.0222" fill="currentColor"/>
</g>
<g color="rgb(100.0000%, 100.0000%, 100.0000%)">
<g transform="translate(29.8501, 31.7317)">
<rect x="0.1100" y="-0.6489" width="1.1002" height="1.2977" ry="0.0000" fill="currentColor"/>
</g>
</g>
<g transform="scale(1.0000, 1.0000)">
<g transform="translate(29.9602, 32.3720)">
<text font-family="IPAexGothic" font-weight="bold" font-size="1.7462" text-anchor="start" fill="currentColor">
<tspan>0</tspan>
</text>
</g>
</g>
<g transform="translate(29.8501, 25.5700)">
<path transform="scale(0.0040, -0.0040)" d="M222 135c53 0 104 -27 104 -86c0 -71 -56 -120 -103 -148c-36 -22 -76 -36 -118 -36c-53 0 -105 27 -105 86c0 71 57 120 104 148c36 22 76 36 118 36z" fill="currentColor"/>
</g>
<g transform="translate(19.5633, 24.5700)">
<rect x="-0.0460" y="-1.3033" width="0.0920" height="3.3033" ry="0.0222" fill="currentColor"/>
</g>
<g transform="translate(23.8132, 23.0700)">
<path transform="scale(0.0040, -0.0040)" d="M222 135c53 0 104 -27 104 -86c0 -71 -56 -120 -103 -148c-36 -22 -76 -36 -118 -36c-53 0 -105 27 -105 86c0 71 57 120 104 148c36 22 76 36 118 36z" fill="currentColor"/>
</g>
<g color="rgb(100.0000%, 100.0000%, 100.0000%)">
<g transform="translate(23.8132, 30.2317)">
<rect x="0.1100" y="-0.6561" width="1.1002" height="1.3122" ry="0.0000" fill="currentColor"/>
</g>
</g>
<g transform="scale(1.0000, 1.0000)">
<g transform="translate(23.9232, 30.8631)">
<text font-family="IPAexGothic" font-weight="bold" font-size="1.7462" text-anchor="start" fill="currentColor">
<tspan>#</tspan>
</text>
</g>
</g>
<g transform="translate(23.8592, 24.5700)">
<rect x="-0.0460" y="-1.3033" width="0.0920" height="3.3033" ry="0.0222" fill="currentColor"/>
</g>
<g transform="translate(3.1614, 42.0551)">
<line stroke-linejoin="round" stroke-linecap="round" stroke-width="0.0708" stroke="currentColor" x1="0.0354" y1="0" x2="60.0315" y2="0"/>
</g>
<g transform="translate(3.1614, 41.0551)">
<line stroke-linejoin="round" stroke-linecap="round" stroke-width="0.0708" stroke="currentColor" x1="0.0354" y1="0" x2="60.0315" y2="0"/>
</g>
<g transform="translate(3.1614, 40.0551)">
<line stroke-linejoin="round" stroke-linecap="round" stroke-width="0.0708" stroke="currentColor" x1="0.0354" y1="0" x2="60.0315" y2="0"/>
</g>
<g transform="translate(3.1614, 39.0551)">
<line stroke-linejoin="round" stroke-linecap="round" stroke-width="0.0708" stroke="currentColor" x1="0.0354" y1="0" x2="60.0315" y2="0"/>
</g>
<g transform="translate(3.1614, 38.0551)">
<line stroke-linejoin="round" stroke-linecap="round" stroke-width="0.0708" stroke="currentColor" x1="0.0354" y1="0" x2="60.0315" y2="0"/>
</g>
<g transform="translate(32.8974, 40.0551)">
<rect x="0.0000" y="-2.0000" width="0.1345" height="4.0354" ry="0.0000" fill="currentColor"/>
</g>
<g transform="translate(32.8974, 47.2168)">
<rect x="0.0000" y="-1.5354" width="0.1345" height="3.0354" ry="0.0000" fill="currentColor"/>
</g>
<g transform="translate(32.8974, 36.2751)">
<rect x="0.0000" y="5.8154" width="0.1345" height="3.6263" ry="0.0000" fill="currentColor"/>
</g>
<g transform="translate(19.3115, 36.2751)">
<rect x="0.0000" y="5.8154" width="0.1345" height="3.6263" ry="0.0000" fill="currentColor"/>
</g>
<g transform="translate(19.3115, 47.2168)">
<rect x="0.0000" y="-1.5354" width="0.1345" height="3.0354" ry="0.0000" fill="currentColor"/>
</g>
<g transform="translate(19.3115, 40.0551)">
<rect x="0.0000" y="-2.0000" width="0.1345" height="4.0354" ry="0.0000" fill="currentColor"/>
</g>
<g transform="translate(46.3200, 40.0551)">
<rect x="0.0000" y="-2.0000" width="0.1345" height="4.0354" ry="0.0000" fill="currentColor"/>
</g>
<g transform="translate(46.3200, 47.2168)">
<rect x="0.0000" y="-1.5354" width="0.1345" height="3.0354" ry="0.0000" fill="currentColor"/>
</g>
<g transform="translate(46.3200, 36.2751)">
<rect x="0.0000" y="5.8154" width="0.1345" height="3.6263" ry="0.0000" fill="currentColor"/>
</g>
<g transform="translate(63.0938, 40.0551)">
<rect x="0.0000" y="-2.0000" width="0.1345" height="4.0354" ry="0.0000" fill="currentColor"/>
</g>
<g transform="translate(63.0938, 47.2168)">
<rect x="0.0000" y="-1.5354" width="0.1345" height="3.0354" ry="0.0000" fill="currentColor"/>
</g>
<g transform="translate(3.1614, 48.7168)">
<line stroke-linejoin="round" stroke-linecap="round" stroke-width="0.0708" stroke="currentColor" x1="0.0354" y1="0" x2="60.0315" y2="0"/>
</g>
<g transform="translate(3.1614, 47.2168)">
<line stroke-linejoin="round" stroke-linecap="round" stroke-width="0.0708" stroke="currentColor" x1="0.0354" y1="0" x2="60.0315" y2="0"/>
</g>
<g transform="translate(3.1614, 45.7168)">
<line stroke-linejoin="round" stroke-linecap="round" stroke-width="0.0708" stroke="currentColor" x1="0.0354" y1="0" x2="60.0315" y2="0"/>
</g>
<g transform="translate(63.0938, 36.2751)">
<rect x="0.0000" y="5.8154" width="0.1345" height="3.6263" ry="0.0000" fill="currentColor"/>
</g>
<g transform="translate(3.1614, 37.0551)">
<rect x="44.0363" y="-0.0854" width="1.9587" height="0.1708" ry="0.0854" fill="currentColor"/>
</g>
<g transform="translate(3.1614, 37.0551)">
<rect x="36.6305" y="-0.0854" width="1.9587" height="0.1708" ry="0.0854" fill="currentColor"/>
</g>
<g transform="translate(3.1614, 37.0551)">
<rect x="30.6136" y="-0.0854" width="1.9587" height="0.1708" ry="0.0854" fill="currentColor"/>
</g>
<g color="rgb(100.0000%, 100.0000%, 100.0000%)">
<g transform="translate(43.2808, 45.7168)">
<rect x="0.1100" y="-0.6489" width="1.1002" height="1.2977" ry="0.0000" fill="currentColor"/>
</g>
</g>
<g transform="scale(1.0000, 1.0000)">
<g transform="translate(43.3908, 46.3571)">
<text font-family="IPAexGothic" font-weight="bold" font-size="1.7462" text-anchor="start" fill="currentColor">
<tspan>6</tspan>
</text>
</g>
</g>
<g transform="translate(43.3268, 40.0551)">
<rect x="-0.0460" y="-2.3033" width="0.0920" height="3.3033" ry="0.0222" fill="currentColor"/>
</g>
<g transform="translate(43.2808, 37.5551)">
<path transform="scale(0.0040, -0.0040)" d="M222 135c53 0 104 -27 104 -86c0 -71 -56 -120 -103 -148c-36 -22 -76 -36 -118 -36c-53 0 -105 27 -105 86c0 71 57 120 104 148c36 22 76 36 118 36z" fill="currentColor"/>
</g>
<g color="rgb(100.0000%, 100.0000%, 100.0000%)">
<g transform="translate(40.1184, 45.7168)">
<rect x="0.1100" y="-0.6565" width="1.1002" height="1.3131" ry="0.0000" fill="currentColor"/>
</g>
</g>
<g transform="scale(1.0000, 1.0000)">
<g transform="translate(40.2284, 46.3580)">
<text font-family="IPAexGothic" font-weight="bold" font-size="1.7462" text-anchor="start" fill="currentColor">
<tspan>8</tspan>
</text>
</g>
</g>
<g transform="translate(47.5242, 37.0551)">
<path transform="scale(0.0040, -0.0040)" d="M222 135c53 0 104 -27 104 -86c0 -71 -56 -120 -103 -148c-36 -22 -76 -36 -118 -36c-53 0 -105 27 -105 86c0 71 57 120 104 148c36 22 76 36 118 36z" fill="currentColor"/>
</g>
<g color="rgb(100.0000%, 100.0000%, 100.0000%)">
<g transform="translate(47.5242, 45.7168)">
<rect x="0.1100" y="-0.6565" width="1.1002" height="1.3131" ry="0.0000" fill="currentColor"/>
</g>
</g>
<g transform="scale(1.0000, 1.0000)">
<g transform="translate(47.6342, 46.3580)">
<text font-family="IPAexGothic" font-weight="bold" font-size="1.7462" text-anchor="start" fill="currentColor">
<tspan>8</tspan>
</text>
</g>
</g>
<g transform="translate(47.5702, 40.0551)">
<rect x="-0.0460" y="-2.8033" width="0.0920" height="3.3033" ry="0.0222" fill="currentColor"/>
</g>
<g transform="translate(40.1644, 40.0551)">
<rect x="-0.0460" y="-2.8033" width="0.0920" height="3.3033" ry="0.0222" fill="currentColor"/>
</g>
<g transform="translate(37.2639, 40.0551)">
<path transform="scale(0.0040, -0.0040)" d="M-23 -113c0 26 10 40 36 40c34 0 85 -15 130 -37l-137 164c-7 8 -10 17 -10 25c0 33 49 64 86 96c26 22 39 54 39 85c0 24 -8 47 -24 67l-39 46c-2 3 -3 6 -3 9c0 7 7 14 14 14c3 0 7 -1 10 -5l152 -182c7 -8 10 -17 10 -25c0 -33 -49 -64 -86 -96
c-26 -22 -39 -54 -39 -85c0 -24 8 -47 24 -67l87 -104c2 -3 3 -5 3 -8c0 -7 -7 -14 -14 -14c-3 0 -7 1 -10 5c-19 22 -66 43 -102 43c-40 0 -52 -29 -52 -70c0 -35 11 -75 28 -96c6 -7 -4 -16 -10 -9c-46 55 -93 150 -93 204z" fill="currentColor"/>
</g>
<g transform="translate(37.7139, 47.2168)">
<circle stroke-linejoin="round" stroke-linecap="round" fill="currentColor" stroke="currentColor" stroke-width="0" r="0.4500"/>
</g>
<g transform="translate(40.1184, 37.0551)">
<path transform="scale(0.0040, -0.0040)" d="M222 135c53 0 104 -27 104 -86c0 -71 -56 -120 -103 -148c-36 -22 -76 -36 -118 -36c-53 0 -105 27 -105 86c0 71 57 120 104 148c36 22 76 36 118 36z" fill="currentColor"/>
</g>
<g transform="translate(56.9325, 40.0551)">
<rect x="-0.0460" y="-0.8033" width="0.0920" height="3.3033" ry="0.0222" fill="currentColor"/>
</g>
<g transform="translate(60.0489, 39.0551)">
<path transform="scale(0.0040, -0.0040)" d="M222 135c53 0 104 -27 104 -86c0 -71 -56 -120 -103 -148c-36 -22 -76 -36 -118 -36c-53 0 -105 27 -105 86c0 71 57 120 104 148c36 22 76 36 118 36z" fill="currentColor"/>
</g>
<g transform="translate(60.7055, 47.9668)">
<path stroke-width="0.1200" stroke-linejoin="miter" stroke-linecap="square" stroke="currentColor" fill="none" d="M-0.4120 -0.4220L0.2280 -0.4270L0.2680 -0.3860C0.1100 0.0460 -0.1310 0.2760 -0.4870 0.4570M0.4940 0.4340C0.3790 0.3130 0.2470 0.1870 0.0440 0.0360"/>
</g>
<g color="rgb(100.0000%, 100.0000%, 100.0000%)">
<g transform="translate(56.8864, 45.7168)">
<rect x="0.1100" y="-0.6446" width="1.1002" height="1.2892" ry="0.0000" fill="currentColor"/>
</g>
</g>
<g transform="scale(1.0000, 1.0000)">
<g transform="translate(56.9965, 46.3614)">
<text font-family="IPAexGothic" font-weight="bold" font-size="1.7462" text-anchor="start" fill="currentColor">
<tspan>2</tspan>
</text>
</g>
</g>
<g transform="translate(56.8864, 39.0551)">
<path transform="scale(0.0040, -0.0040)" d="M222 135c53 0 104 -27 104 -86c0 -71 -56 -120 -103 -148c-36 -22 -76 -36 -118 -36c-53 0 -105 27 -105 86c0 71 57 120 104 148c36 22 76 36 118 36z" fill="currentColor"/>
</g>
<g color="rgb(100.0000%, 100.0000%, 100.0000%)">
<g transform="translate(60.0489, 45.7168)">
<rect x="0.1100" y="-0.6446" width="1.1002" height="1.2892" ry="0.0000" fill="currentColor"/>
</g>
</g>
<g transform="scale(1.0000, 1.0000)">
<g transform="translate(60.1589, 46.3614)">
<text font-family="IPAexGothic" font-weight="bold" font-size="1.7462" text-anchor="start" fill="currentColor">
<tspan>2</tspan>
</text>
</g>
</g>
<g transform="translate(60.0949, 40.0551)">
<rect x="-0.0460" y="-0.8033" width="0.0920" height="3.3033" ry="0.0222" fill="currentColor"/>
</g>
<g transform="translate(50.6866, 37.5551)">
<path transform="scale(0.0040, -0.0040)" d="M222 135c53 0 104 -27 104 -86c0 -71 -56 -120 -103 -148c-36 -22 -76 -36 -118 -36c-53 0 -105 27 -105 86c0 71 57 120 104 148c36 22 76 36 118 36z" fill="currentColor"/>
</g>
<g color="rgb(100.0000%, 100.0000%, 100.0000%)">
<g transform="translate(50.6866, 45.7168)">
<rect x="0.1100" y="-0.6489" width="1.1002" height="1.2977" ry="0.0000" fill="currentColor"/>
</g>
</g>
<g transform="scale(1.0000, 1.0000)">
<g transform="translate(50.7966, 46.3571)">
<text font-family="IPAexGothic" font-weight="bold" font-size="1.7462" text-anchor="start" fill="currentColor">
<tspan>6</tspan>
</text>
</g>
</g>
<g transform="translate(50.7326, 40.0551)">
<rect x="-0.0460" y="-2.3033" width="0.0920" height="3.3033" ry="0.0222" fill="currentColor"/>
</g>
<g transform="translate(53.7240, 38.5551)">
<path transform="scale(0.0040, -0.0040)" d="M222 135c53 0 104 -27 104 -86c0 -71 -56 -120 -103 -148c-36 -22 -76 -36 -118 -36c-53 0 -105 27 -105 86c0 71 57 120 104 148c36 22 76 36 118 36z" fill="currentColor"/>
</g>
<g color="rgb(100.0000%, 100.0000%, 100.0000%)">
<g transform="translate(53.7240, 45.7168)">
<rect x="0.1100" y="-0.6561" width="1.1002" height="1.3122" ry="0.0000" fill="currentColor"/>
</g>
</g>
<g transform="scale(1.0000, 1.0000)">
<g transform="translate(53.8340, 46.3482)">
<text font-family="IPAexGothic" font-weight="bold" font-size="1.7462" text-anchor="start" fill="currentColor">
<tspan>#</tspan>
</text>
</g>
</g>
<g transform="translate(53.7700, 40.0551)">
<rect x="-0.0460" y="-1.3033" width="0.0920" height="3.3033" ry="0.0222" fill="currentColor"/>
</g>
<g transform="translate(13.1501, 40.0551)">
<rect x="-0.0460" y="-0.3033" width="0.0920" height="3.3033" ry="0.0222" fill="currentColor"/>
</g>
<g color="rgb(100.0000%, 100.0000%, 100.0000%)">
<g transform="translate(13.1041, 45.7168)">
<rect x="0.1100" y="-0.6489" width="1.1002" height="1.2977" ry="0.0000" fill="currentColor"/>
</g>
</g>
<g transform="scale(1.0000, 1.0000)">
<g transform="translate(13.2141, 46.3571)">
<text font-family="IPAexGothic" font-weight="bold" font-size="1.7462" text-anchor="start" fill="currentColor">
<tspan>0</tspan>
</text>
</g>
</g>
<g transform="translate(13.1041, 39.5551)">
<path transform="scale(0.0040, -0.0040)" d="M222 135c53 0 104 -27 104 -86c0 -71 -56 -120 -103 -148c-36 -22 -76 -36 -118 -36c-53 0 -105 27 -105 86c0 71 57 120 104 148c36 22 76 36 118 36z" fill="currentColor"/>
</g>
<g transform="translate(9.9876, 40.0551)">
<rect x="-0.0460" y="-0.3033" width="0.0920" height="3.3033" ry="0.0222" fill="currentColor"/>
</g>
<g color="rgb(100.0000%, 100.0000%, 100.0000%)">
<g transform="translate(9.9416, 45.7168)">
<rect x="0.1100" y="-0.6489" width="1.1002" height="1.2977" ry="0.0000" fill="currentColor"/>
</g>
</g>
<g transform="scale(1.0000, 1.0000)">
<g transform="translate(10.0516, 46.3571)">
<text font-family="IPAexGothic" font-weight="bold" font-size="1.7462" text-anchor="start" fill="currentColor">
<tspan>0</tspan>
</text>
</g>
</g>
<g transform="translate(9.9416, 39.5551)">
<path transform="scale(0.0040, -0.0040)" d="M222 135c53 0 104 -27 104 -86c0 -71 -56 -120 -103 -148c-36 -22 -76 -36 -118 -36c-53 0 -105 27 -105 86c0 71 57 120 104 148c36 22 76 36 118 36z" fill="currentColor"/>
</g>
<g color="rgb(100.0000%, 100.0000%, 100.0000%)">
<g transform="translate(20.5539, 47.2168)">
<rect x="0.1100" y="-0.6489" width="1.1002" height="1.2977" ry="0.0000" fill="currentColor"/>
</g>
</g>
<g transform="scale(1.0000, 1.0000)">
<g transform="translate(20.6639, 47.8571)">
<text font-family="IPAexGothic" font-weight="bold" font-size="1.7462" text-anchor="start" fill="currentColor">
<tspan>0</tspan>
</text>
</g>
</g>
<g transform="translate(20.5539, 38.5551)">
<path transform="scale(0.0040, -0.0040)" d="M222 135c53 0 104 -27 104 -86c0 -71 -56 -120 -103 -148c-36 -22 -76 -36 -118 -36c-53 0 -105 27 -105 86c0 71 57 120 104 148c36 22 76 36 118 36z" fill="currentColor"/>
</g>
<g transform="translate(20.5539, 41.0551)">
<path transform="scale(0.0040, -0.0040)" d="M222 135c53 0 104 -27 104 -86c0 -71 -56 -120 -103 -148c-36 -22 -76 -36 -118 -36c-53 0 -105 27 -105 86c0 71 57 120 104 148c36 22 76 36 118 36z" fill="currentColor"/>
</g>
<g transform="translate(16.3125, 40.0551)">
<rect x="-0.0460" y="-0.8033" width="0.0920" height="3.3033" ry="0.0222" fill="currentColor"/>
</g>
<g color="rgb(100.0000%, 100.0000%, 100.0000%)">
<g transform="translate(16.2665, 45.7168)">
<rect x="0.1100" y="-0.6446" width="1.1002" height="1.2892" ry="0.0000" fill="currentColor"/>
</g>
</g>
<g transform="scale(1.0000, 1.0000)">
<g transform="translate(16.3765, 46.3614)">
<text font-family="IPAexGothic" font-weight="bold" font-size="1.7462" text-anchor="start" fill="currentColor">
<tspan>2</tspan>
</text>
</g>
</g>
<g transform="translate(16.2665, 39.0551)">
<path transform="scale(0.0040, -0.0040)" d="M222 135c53 0 104 -27 104 -86c0 -71 -56 -120 -103 -148c-36 -22 -76 -36 -118 -36c-53 0 -105 27 -105 86c0 71 57 120 104 148c36 22 76 36 118 36z" fill="currentColor"/>
</g>
<g transform="translate(4.5511, 44.5886)">
<text font-family="IPAexGothic" font-style="italic" font-size="1.3859" text-anchor="start" fill="currentColor">
<tspan>8</tspan>
</text>
</g>
<g transform="translate(3.9614, 41.0551)">
<path transform="scale(0.0040, -0.0040)" d="M374 260c5 0 10 1 15 1c154 0 254 -127 254 -259c0 -76 -33 -153 -107 -208c-22 -17 -47 -29 -73 -37c3 -36 5 -72 5 -108c0 -19 0 -37 -1 -56c-7 -120 -88 -226 -206 -226c-108 0 -195 87 -195 195c0 58 53 104 112 104c54 0 95 -48 95 -104c0 -52 -43 -95 -95 -95
c-12 0 -24 4 -35 9c26 -41 70 -70 121 -70c1 0 2 1 3 1c93 2 154 93 160 192c1 18 2 35 2 53c0 32 -2 64 -5 96c-29 -5 -58 -8 -89 -8c-188 0 -333 171 -333 372c0 178 133 306 251 440c-18 63 -35 126 -42 191c-6 51 -7 102 -7 154c0 116 55 226 150 295c5 4 11 4 16 0
c70 -84 132 -246 132 -359c0 -144 -87 -256 -183 -365c20 -69 39 -138 55 -208zM459 -205c69 24 117 96 117 166c0 92 -69 184 -179 193c25 -117 48 -235 62 -359zM71 31c0 -136 131 -251 267 -251c28 0 55 2 82 6c-15 128 -38 247 -64 367c-79 -9 -125 -62 -125 -121
c0 -44 26 -92 82 -124c4 -4 7 -9 7 -14c0 -11 -9 -21 -20 -21c-3 0 -6 1 -9 2c-80 43 -116 114 -116 184c0 88 57 173 158 196c-14 60 -30 119 -46 178c-108 -121 -216 -242 -216 -402zM411 1050c-99 -50 -161 -151 -161 -262c0 -76 15 -137 33 -200c82 97 149 198 149 325
c0 58 -4 84 -21 137z" fill="currentColor"/>
</g>
<g transform="translate(3.1481, 43.3860)">
<rect x="0.0000" y="-5.3662" width="0.1133" height="10.7325" ry="0.0354" fill="currentColor"/>
</g>
<g transform="translate(1.8981, 37.7947)">
<path transform="scale(0.0040, -0.0040)" d="M0 -56v91c0 12 10 21 22 21h43c164 0 281 136 377 272c10 14 32 -1 22 -15c-103 -145 -222 -369 -399 -369h-65z" fill="currentColor"/>
</g>
<g transform="translate(1.8981, 48.9772)">
<path transform="scale(0.0040, -0.0040)" d="M0 56h65c177 0 296 -224 399 -369c10 -14 -12 -29 -22 -15c-96 136 -213 272 -377 272h-43c-12 0 -22 9 -22 21v91z" fill="currentColor"/>
</g>
<g transform="translate(1.8981, 43.3860)">
<rect x="0.0000" y="-5.4112" width="0.4500" height="10.8225" ry="0.0000" fill="currentColor"/>
</g>
<g transform="translate(7.0872, 40.0551)">
<path transform="scale(0.0040, -0.0040)" d="M-23 -113c0 26 10 40 36 40c34 0 85 -15 130 -37l-137 164c-7 8 -10 17 -10 25c0 33 49 64 86 96c26 22 39 54 39 85c0 24 -8 47 -24 67l-39 46c-2 3 -3 6 -3 9c0 7 7 14 14 14c3 0 7 -1 10 -5l152 -182c7 -8 10 -17 10 -25c0 -33 -49 -64 -86 -96
c-26 -22 -39 -54 -39 -85c0 -24 8 -47 24 -67l87 -104c2 -3 3 -5 3 -8c0 -7 -7 -14 -14 -14c-3 0 -7 1 -10 5c-19 22 -66 43 -102 43c-40 0 -52 -29 -52 -70c0 -35 11 -75 28 -96c6 -7 -4 -16 -10 -9c-46 55 -93 150 -93 204z" fill="currentColor"/>
</g>
<g transform="translate(7.5372, 47.2168)">
<circle stroke-linejoin="round" stroke-linecap="round" fill="currentColor" stroke="currentColor" stroke-width="0" r="0.4500"/>
</g>
<g transform="translate(26.6167, 40.0551)">
<rect x="-0.0460" y="-1.3033" width="0.0920" height="3.3033" ry="0.0222" fill="currentColor"/>
</g>
<g color="rgb(100.0000%, 100.0000%, 100.0000%)">
<g transform="translate(26.5707, 45.7168)">
<rect x="0.1100" y="-0.6561" width="1.1002" height="1.3122" ry="0.0000" fill="currentColor"/>
</g>
</g>
<g transform="scale(1.0000, 1.0000)">
<g transform="translate(26.6807, 46.3482)">
<text font-family="IPAexGothic" font-weight="bold" font-size="1.7462" text-anchor="start" fill="currentColor">
<tspan>#</tspan>
</text>
</g>
</g>
<g transform="translate(26.5707, 38.5551)">
<path transform="scale(0.0040, -0.0040)" d="M222 135c53 0 104 -27 104 -86c0 -71 -56 -120 -103 -148c-36 -22 -76 -36 -118 -36c-53 0 -105 27 -105 86c0 71 57 120 104 148c36 22 76 36 118 36z" fill="currentColor"/>
</g>
<g transform="translate(34.1475, 40.0551)">
<rect x="-0.0460" y="-2.8033" width="0.0920" height="3.3033" ry="0.0222" fill="currentColor"/>
</g>
<g color="rgb(100.0000%, 100.0000%, 100.0000%)">
<g transform="translate(34.1015, 45.7168)">
<rect x="0.1100" y="-0.6565" width="1.1002" height="1.3131" ry="0.0000" fill="currentColor"/>
</g>
</g>
<g transform="scale(1.0000, 1.0000)">
<g transform="translate(34.2115, 46.3580)">
<text font-family="IPAexGothic" font-weight="bold" font-size="1.7462" text-anchor="start" fill="currentColor">
<tspan>8</tspan>
</text>
</g>
</g>
<g transform="translate(34.1015, 37.0551)">
<path transform="scale(0.0040, -0.0040)" d="M222 135c53 0 104 -27 104 -86c0 -71 -56 -120 -103 -148c-36 -22 -76 -36 -118 -36c-53 0 -105 27 -105 86c0 71 57 120 104 148c36 22 76 36 118 36z" fill="currentColor"/>
</g>
<g transform="translate(20.5999, 40.0551)">
<rect x="-0.0460" y="-1.3033" width="0.0920" height="5.3033" ry="0.0222" fill="currentColor"/>
</g>
<g transform="translate(29.9042, 40.0551)">
<rect x="-0.0460" y="-2.3033" width="0.0920" height="3.3033" ry="0.0222" fill="currentColor"/>
</g>
<g color="rgb(100.0000%, 100.0000%, 100.0000%)">
<g transform="translate(29.8581, 45.7168)">
<rect x="0.1100" y="-0.6489" width="1.1002" height="1.2977" ry="0.0000" fill="currentColor"/>
</g>
</g>
<g transform="scale(1.0000, 1.0000)">
<g transform="translate(29.9682, 46.3571)">
<text font-family="IPAexGothic" font-weight="bold" font-size="1.7462" text-anchor="start" fill="currentColor">
<tspan>6</tspan>
</text>
</g>
</g>
<g transform="translate(29.8581, 37.5551)">
<path transform="scale(0.0040, -0.0040)" d="M222 135c53 0 104 -27 104 -86c0 -71 -56 -120 -103 -148c-36 -22 -76 -36 -118 -36c-53 0 -105 27 -105 86c0 71 57 120 104 148c36 22 76 36 118 36z" fill="currentColor"/>
</g>
<g transform="translate(23.7163, 40.0551)">
<path transform="scale(0.0040, -0.0040)" d="M-23 -113c0 26 10 40 36 40c34 0 85 -15 130 -37l-137 164c-7 8 -10 17 -10 25c0 33 49 64 86 96c26 22 39 54 39 85c0 24 -8 47 -24 67l-39 46c-2 3 -3 6 -3 9c0 7 7 14 14 14c3 0 7 -1 10 -5l152 -182c7 -8 10 -17 10 -25c0 -33 -49 -64 -86 -96
c-26 -22 -39 -54 -39 -85c0 -24 8 -47 24 -67l87 -104c2 -3 3 -5 3 -8c0 -7 -7 -14 -14 -14c-3 0 -7 1 -10 5c-19 22 -66 43 -102 43c-40 0 -52 -29 -52 -70c0 -35 11 -75 28 -96c6 -7 -4 -16 -10 -9c-46 55 -93 150 -93 204z" fill="currentColor"/>
</g>
<g color="rgb(100.0000%, 100.0000%, 100.0000%)">
<g transform="translate(20.5539, 45.7168)">
<rect x="0.1100" y="-0.6561" width="1.1002" height="1.3122" ry="0.0000" fill="currentColor"/>
</g>
</g>
<g transform="scale(1.0000, 1.0000)">
<g transform="translate(20.6639, 46.3482)">
<text font-family="IPAexGothic" font-weight="bold" font-size="1.7462" text-anchor="start" fill="currentColor">
<tspan>#</tspan>
</text>
</g>
</g>
<g transform="translate(24.1663, 47.2168)">
<circle stroke-linejoin="round" stroke-linecap="round" fill="currentColor" stroke="currentColor" stroke-width="0" r="0.4500"/>
</g>
<g transform="translate(3.1614, 57.5402)">
<line stroke-linejoin="round" stroke-linecap="round" stroke-width="0.0708" stroke="currentColor" x1="0.0354" y1="0" x2="60.0315" y2="0"/>
</g>
<g transform="translate(3.1614, 56.5402)">
<line stroke-linejoin="round" stroke-linecap="round" stroke-width="0.0708" stroke="currentColor" x1="0.0354" y1="0" x2="60.0315" y2="0"/>
</g>
<g transform="translate(3.1614, 55.5402)">
<line stroke-linejoin="round" stroke-linecap="round" stroke-width="0.0708" stroke="currentColor" x1="0.0354" y1="0" x2="60.0315" y2="0"/>
</g>
<g transform="translate(3.1614, 54.5402)">
<line stroke-linejoin="round" stroke-linecap="round" stroke-width="0.0708" stroke="currentColor" x1="0.0354" y1="0" x2="60.0315" y2="0"/>
</g>
<g transform="translate(3.1614, 53.5402)">
<line stroke-linejoin="round" stroke-linecap="round" stroke-width="0.0708" stroke="currentColor" x1="0.0354" y1="0" x2="60.0315" y2="0"/>
</g>
<g transform="translate(41.7105, 55.5402)">
<rect x="0.0000" y="-2.0000" width="0.1345" height="4.0354" ry="0.0000" fill="currentColor"/>
</g>
<g transform="translate(20.3124, 51.7602)">
<rect x="0.0000" y="5.8154" width="0.1345" height="3.6263" ry="0.0000" fill="currentColor"/>
</g>
<g transform="translate(20.3124, 62.7019)">
<rect x="0.0000" y="-1.5354" width="0.1345" height="3.0354" ry="0.0000" fill="currentColor"/>
</g>
<g transform="translate(51.4701, 51.7602)">
<rect x="0.0000" y="5.8154" width="0.1345" height="3.6263" ry="0.0000" fill="currentColor"/>
</g>
<g transform="translate(51.4701, 62.7019)">
<rect x="0.0000" y="-1.5354" width="0.1345" height="3.0354" ry="0.0000" fill="currentColor"/>
</g>
<g transform="translate(41.7105, 62.7019)">
<rect x="0.0000" y="-1.5354" width="0.1345" height="3.0354" ry="0.0000" fill="currentColor"/>
</g>
<g transform="translate(20.3124, 55.5402)">
<rect x="0.0000" y="-2.0000" width="0.1345" height="4.0354" ry="0.0000" fill="currentColor"/>
</g>
<g transform="translate(30.0525, 55.5402)">
<rect x="0.0000" y="-2.0000" width="0.1345" height="4.0354" ry="0.0000" fill="currentColor"/>
</g>
<g transform="translate(41.7105, 51.7602)">
<rect x="0.0000" y="5.8154" width="0.1345" height="3.6263" ry="0.0000" fill="currentColor"/>
</g>
<g transform="translate(51.4701, 55.5402)">
<rect x="0.0000" y="-2.0000" width="0.1345" height="4.0354" ry="0.0000" fill="currentColor"/>
</g>
<g transform="translate(63.0938, 55.5402)">
<rect x="0.0000" y="-2.0000" width="0.1345" height="4.0354" ry="0.0000" fill="currentColor"/>
</g>
<g transform="translate(63.0938, 62.7019)">
<rect x="0.0000" y="-1.5354" width="0.1345" height="3.0354" ry="0.0000" fill="currentColor"/>
</g>
<g transform="translate(30.0525, 62.7019)">
<rect x="0.0000" y="-1.5354" width="0.1345" height="3.0354" ry="0.0000" fill="currentColor"/>
</g>
<g transform="translate(3.1614, 64.2019)">
<line stroke-linejoin="round" stroke-linecap="round" stroke-width="0.0708" stroke="currentColor" x1="0.0354" y1="0" x2="60.0315" y2="0"/>
</g>
<g transform="translate(3.1614, 62.7019)">
<line stroke-linejoin="round" stroke-linecap="round" stroke-width="0.0708" stroke="currentColor" x1="0.0354" y1="0" x2="60.0315" y2="0"/>
</g>
<g transform="translate(3.1614, 61.2019)">
<line stroke-linejoin="round" stroke-linecap="round" stroke-width="0.0708" stroke="currentColor" x1="0.0354" y1="0" x2="60.0315" y2="0"/>
</g>
<g transform="translate(63.0938, 51.7602)">
<rect x="0.0000" y="5.8154" width="0.1345" height="3.6263" ry="0.0000" fill="currentColor"/>
</g>
<g transform="translate(3.1614, 52.5402)">
<rect x="56.9723" y="-0.0854" width="1.9587" height="0.1708" ry="0.0854" fill="currentColor"/>
</g>
<g transform="translate(30.0525, 51.7602)">
<rect x="0.0000" y="5.8154" width="0.1345" height="3.6263" ry="0.0000" fill="currentColor"/>
</g>
<g transform="translate(42.8857, 55.5402)">
<rect x="-0.0460" y="-1.3033" width="0.0920" height="3.3033" ry="0.0222" fill="currentColor"/>
</g>
<g transform="translate(46.0287, 62.7019)">
<circle stroke-linejoin="round" stroke-linecap="round" fill="currentColor" stroke="currentColor" stroke-width="0" r="0.4500"/>
</g>
<g transform="translate(45.5787, 62.7019)">
<path stroke-width="0.1200" stroke-linejoin="round" stroke-linecap="square" stroke="currentColor" fill="none" d="M2 -0.6700l1 0"/>
</g>
<g transform="translate(45.5787, 55.5402)">
<path transform="scale(0.0040, -0.0040)" d="M367 0h-359c-4 0 -8 4 -8 8v140c0 4 4 8 8 8h359c4 0 8 -4 8 -8v-140c0 -4 -4 -8 -8 -8z" fill="currentColor"/>
</g>
<g transform="translate(36.3781, 55.5402)">
<rect x="-0.0460" y="-0.8033" width="0.0920" height="3.3033" ry="0.0222" fill="currentColor"/>
</g>
<g color="rgb(100.0000%, 100.0000%, 100.0000%)">
<g transform="translate(36.3321, 61.2019)">
<rect x="0.1100" y="-0.6446" width="1.1002" height="1.2892" ry="0.0000" fill="currentColor"/>
</g>
</g>
<g transform="scale(1.0000, 1.0000)">
<g transform="translate(36.4421, 61.8465)">
<text font-family="IPAexGothic" font-weight="bold" font-size="1.7462" text-anchor="start" fill="currentColor">
<tspan>2</tspan>
</text>
</g>
</g>
<g transform="translate(36.3321, 54.5402)">
<path transform="scale(0.0040, -0.0040)" d="M222 135c53 0 104 -27 104 -86c0 -71 -56 -120 -103 -148c-36 -22 -76 -36 -118 -36c-53 0 -105 27 -105 86c0 71 57 120 104 148c36 22 76 36 118 36z" fill="currentColor"/>
</g>
<g transform="translate(34.3511, 62.7019)">
<circle stroke-linejoin="round" stroke-linecap="round" fill="currentColor" stroke="currentColor" stroke-width="0" r="0.4500"/>
</g>
<g transform="translate(33.9011, 55.5402)">
<path transform="scale(0.0040, -0.0040)" d="M-23 -113c0 26 10 40 36 40c34 0 85 -15 130 -37l-137 164c-7 8 -10 17 -10 25c0 33 49 64 86 96c26 22 39 54 39 85c0 24 -8 47 -24 67l-39 46c-2 3 -3 6 -3 9c0 7 7 14 14 14c3 0 7 -1 10 -5l152 -182c7 -8 10 -17 10 -25c0 -33 -49 -64 -86 -96
c-26 -22 -39 -54 -39 -85c0 -24 8 -47 24 -67l87 -104c2 -3 3 -5 3 -8c0 -7 -7 -14 -14 -14c-3 0 -7 1 -10 5c-19 22 -66 43 -102 43c-40 0 -52 -29 -52 -70c0 -35 11 -75 28 -96c6 -7 -4 -16 -10 -9c-46 55 -93 150 -93 204z" fill="currentColor"/>
</g>
<g transform="translate(39.1171, 55.5402)">
<rect x="-0.0460" y="-0.3033" width="0.0920" height="3.3033" ry="0.0222" fill="currentColor"/>
</g>
<g transform="translate(42.8397, 54.0402)">
<path transform="scale(0.0040, -0.0040)" d="M222 135c53 0 104 -27 104 -86c0 -71 -56 -120 -103 -148c-36 -22 -76 -36 -118 -36c-53 0 -105 27 -105 86c0 71 57 120 104 148c36 22 76 36 118 36z" fill="currentColor"/>
</g>
<g color="rgb(100.0000%, 100.0000%, 100.0000%)">
<g transform="translate(42.8397, 61.2019)">
<rect x="0.1100" y="-0.6561" width="1.1002" height="1.3122" ry="0.0000" fill="currentColor"/>
</g>
</g>
<g transform="scale(1.0000, 1.0000)">
<g transform="translate(42.9497, 61.8332)">
<text font-family="IPAexGothic" font-weight="bold" font-size="1.7462" text-anchor="start" fill="currentColor">
<tspan>#</tspan>
</text>
</g>
</g>
<g color="rgb(100.0000%, 100.0000%, 100.0000%)">
<g transform="translate(39.0711, 61.2019)">
<rect x="0.1100" y="-0.6489" width="1.1002" height="1.2977" ry="0.0000" fill="currentColor"/>
</g>
</g>
<g transform="scale(1.0000, 1.0000)">
<g transform="translate(39.1811, 61.8422)">
<text font-family="IPAexGothic" font-weight="bold" font-size="1.7462" text-anchor="start" fill="currentColor">
<tspan>0</tspan>
</text>
</g>
</g>
<g transform="translate(39.0711, 55.0402)">
<path transform="scale(0.0040, -0.0040)" d="M222 135c53 0 104 -27 104 -86c0 -71 -56 -120 -103 -148c-36 -22 -76 -36 -118 -36c-53 0 -105 27 -105 86c0 71 57 120 104 148c36 22 76 36 118 36z" fill="currentColor"/>
</g>
<g transform="translate(60.5062, 55.5402)">
<rect x="-0.0460" y="-2.8033" width="0.0920" height="3.3033" ry="0.0222" fill="currentColor"/>
</g>
<g color="rgb(100.0000%, 100.0000%, 100.0000%)">
<g transform="translate(60.4602, 61.2019)">
<rect x="0.1100" y="-0.6565" width="1.1002" height="1.3131" ry="0.0000" fill="currentColor"/>
</g>
</g>
<g transform="scale(1.0000, 1.0000)">
<g transform="translate(60.5702, 61.8430)">
<text font-family="IPAexGothic" font-weight="bold" font-size="1.7462" text-anchor="start" fill="currentColor">
<tspan>8</tspan>
</text>
</g>
</g>
<g transform="translate(60.4602, 52.5402)">
<path transform="scale(0.0040, -0.0040)" d="M222 135c53 0 104 -27 104 -86c0 -71 -56 -120 -103 -148c-36 -22 -76 -36 -118 -36c-53 0 -105 27 -105 86c0 71 57 120 104 148c36 22 76 36 118 36z" fill="currentColor"/>
</g>
<g transform="translate(58.4792, 62.7019)">
<circle stroke-linejoin="round" stroke-linecap="round" fill="currentColor" stroke="currentColor" stroke-width="0" r="0.4500"/>
</g>
<g transform="translate(58.0292, 55.5402)">
<path transform="scale(0.0040, -0.0040)" d="M-23 -113c0 26 10 40 36 40c34 0 85 -15 130 -37l-137 164c-7 8 -10 17 -10 25c0 33 49 64 86 96c26 22 39 54 39 85c0 24 -8 47 -24 67l-39 46c-2 3 -3 6 -3 9c0 7 7 14 14 14c3 0 7 -1 10 -5l152 -182c7 -8 10 -17 10 -25c0 -33 -49 -64 -86 -96
c-26 -22 -39 -54 -39 -85c0 -24 8 -47 24 -67l87 -104c2 -3 3 -5 3 -8c0 -7 -7 -14 -14 -14c-3 0 -7 1 -10 5c-19 22 -66 43 -102 43c-40 0 -52 -29 -52 -70c0 -35 11 -75 28 -96c6 -7 -4 -16 -10 -9c-46 55 -93 150 -93 204z" fill="currentColor"/>
</g>
<g transform="translate(52.5972, 55.5402)">
<rect x="-0.0460" y="-0.3033" width="0.0920" height="3.3033" ry="0.0222" fill="currentColor"/>
</g>
<g color="rgb(100.0000%, 100.0000%, 100.0000%)">
<g transform="translate(52.5512, 61.2019)">
<rect x="0.1100" y="-0.6489" width="1.1002" height="1.2977" ry="0.0000" fill="currentColor"/>
</g>
</g>
<g transform="scale(1.0000, 1.0000)">
<g transform="translate(52.6612, 61.8422)">
<text font-family="IPAexGothic" font-weight="bold" font-size="1.7462" text-anchor="start" fill="currentColor">
<tspan>0</tspan>
</text>
</g>
</g>
<g transform="translate(52.5512, 55.0402)">
<path transform="scale(0.0040, -0.0040)" d="M222 135c53 0 104 -27 104 -86c0 -71 -56 -120 -103 -148c-36 -22 -76 -36 -118 -36c-53 0 -105 27 -105 86c0 71 57 120 104 148c36 22 76 36 118 36z" fill="currentColor"/>
</g>
<g transform="translate(55.3362, 55.5402)">
<rect x="-0.0460" y="-0.3033" width="0.0920" height="3.3033" ry="0.0222" fill="currentColor"/>
</g>
<g color="rgb(100.0000%, 100.0000%, 100.0000%)">
<g transform="translate(55.2902, 61.2019)">
<rect x="0.1100" y="-0.6489" width="1.1002" height="1.2977" ry="0.0000" fill="currentColor"/>
</g>
</g>
<g transform="scale(1.0000, 1.0000)">
<g transform="translate(55.4002, 61.8422)">
<text font-family="IPAexGothic" font-weight="bold" font-size="1.7462" text-anchor="start" fill="currentColor">
<tspan>0</tspan>
</text>
</g>
</g>
<g transform="translate(55.2902, 55.0402)">
<path transform="scale(0.0040, -0.0040)" d="M222 135c53 0 104 -27 104 -86c0 -71 -56 -120 -103 -148c-36 -22 -76 -36 -118 -36c-53 0 -105 27 -105 86c0 71 57 120 104 148c36 22 76 36 118 36z" fill="currentColor"/>
</g>
<g transform="translate(12.1964, 55.0402)">
<path transform="scale(0.0040, -0.0040)" d="M222 135c53 0 104 -27 104 -86c0 -71 -56 -120 -103 -148c-36 -22 -76 -36 -118 -36c-53 0 -105 27 -105 86c0 71 57 120 104 148c36 22 76 36 118 36z" fill="currentColor"/>
</g>
<g transform="translate(12.2425, 55.5402)">
<rect x="-0.0460" y="-0.3033" width="0.0920" height="3.3033" ry="0.0222" fill="currentColor"/>
</g>
<g color="rgb(100.0000%, 100.0000%, 100.0000%)">
<g transform="translate(12.1964, 61.2019)">
<rect x="0.1100" y="-0.6489" width="1.1002" height="1.2977" ry="0.0000" fill="currentColor"/>
</g>
</g>
<g transform="scale(1.0000, 1.0000)">
<g transform="translate(12.3065, 61.8422)">
<text font-family="IPAexGothic" font-weight="bold" font-size="1.7462" text-anchor="start" fill="currentColor">
<tspan>0</tspan>
</text>
</g>
</g>
<g transform="translate(12.8530, 63.4519)">
<path stroke-width="0.1200" stroke-linejoin="miter" stroke-linecap="square" stroke="currentColor" fill="none" d="M-0.4120 -0.4220L0.2280 -0.4270L0.2680 -0.3860C0.1100 0.0460 -0.1310 0.2760 -0.4870 0.4570M0.4940 0.4340C0.3790 0.3130 0.2470 0.1870 0.0440 0.0360"/>
</g>
<g transform="translate(9.5035, 55.5402)">
<rect x="-0.0460" y="-0.3033" width="0.0920" height="3.3033" ry="0.0222" fill="currentColor"/>
</g>
<g transform="translate(18.7659, 55.5402)">
<rect x="-0.0460" y="-3.0000" width="0.0920" height="3.3033" ry="0.0222" fill="currentColor"/>
</g>
<g color="rgb(100.0000%, 100.0000%, 100.0000%)">
<g transform="translate(17.5061, 62.7019)">
<rect x="0.1100" y="-0.6446" width="1.1002" height="1.2892" ry="0.0000" fill="currentColor"/>
</g>
</g>
<g transform="scale(1.0000, 1.0000)">
<g transform="translate(17.6161, 63.3465)">
<text font-family="IPAexGothic" font-weight="bold" font-size="1.7462" text-anchor="start" fill="currentColor">
<tspan>2</tspan>
</text>
</g>
</g>
<g transform="translate(17.5061, 56.0402)">
<path transform="scale(0.0040, -0.0040)" d="M222 135c53 0 104 -27 104 -86c0 -71 -56 -120 -103 -148c-36 -22 -76 -36 -118 -36c-53 0 -105 27 -105 86c0 71 57 120 104 148c36 22 76 36 118 36z" fill="currentColor"/>
</g>
<g color="rgb(100.0000%, 100.0000%, 100.0000%)">
<g transform="translate(9.4574, 61.2019)">
<rect x="0.1100" y="-0.6489" width="1.1002" height="1.2977" ry="0.0000" fill="currentColor"/>
</g>
</g>
<g transform="scale(1.0000, 1.0000)">
<g transform="translate(9.5675, 61.8422)">
<text font-family="IPAexGothic" font-weight="bold" font-size="1.7462" text-anchor="start" fill="currentColor">
<tspan>0</tspan>
</text>
</g>
</g>
<g transform="translate(14.9815, 55.5402)">
<rect x="-0.0460" y="-0.3033" width="0.0920" height="3.3033" ry="0.0222" fill="currentColor"/>
</g>
<g color="rgb(100.0000%, 100.0000%, 100.0000%)">
<g transform="translate(14.9354, 61.2019)">
<rect x="0.1100" y="-0.6489" width="1.1002" height="1.2977" ry="0.0000" fill="currentColor"/>
</g>
</g>
<g transform="scale(1.0000, 1.0000)">
<g transform="translate(15.0455, 61.8422)">
<text font-family="IPAexGothic" font-weight="bold" font-size="1.7462" text-anchor="start" fill="currentColor">
<tspan>0</tspan>
</text>
</g>
</g>
<g transform="translate(14.9354, 55.0402)">
<path transform="scale(0.0040, -0.0040)" d="M222 135c53 0 104 -27 104 -86c0 -71 -56 -120 -103 -148c-36 -22 -76 -36 -118 -36c-53 0 -105 27 -105 86c0 71 57 120 104 148c36 22 76 36 118 36z" fill="currentColor"/>
</g>
<g transform="translate(4.5511, 60.0737)">
<text font-family="IPAexGothic" font-style="italic" font-size="1.3859" text-anchor="start" fill="currentColor">
<tspan>8</tspan>
</text>
</g>
<g transform="translate(3.9614, 56.5402)">
<path transform="scale(0.0040, -0.0040)" d="M374 260c5 0 10 1 15 1c154 0 254 -127 254 -259c0 -76 -33 -153 -107 -208c-22 -17 -47 -29 -73 -37c3 -36 5 -72 5 -108c0 -19 0 -37 -1 -56c-7 -120 -88 -226 -206 -226c-108 0 -195 87 -195 195c0 58 53 104 112 104c54 0 95 -48 95 -104c0 -52 -43 -95 -95 -95
c-12 0 -24 4 -35 9c26 -41 70 -70 121 -70c1 0 2 1 3 1c93 2 154 93 160 192c1 18 2 35 2 53c0 32 -2 64 -5 96c-29 -5 -58 -8 -89 -8c-188 0 -333 171 -333 372c0 178 133 306 251 440c-18 63 -35 126 -42 191c-6 51 -7 102 -7 154c0 116 55 226 150 295c5 4 11 4 16 0
c70 -84 132 -246 132 -359c0 -144 -87 -256 -183 -365c20 -69 39 -138 55 -208zM459 -205c69 24 117 96 117 166c0 92 -69 184 -179 193c25 -117 48 -235 62 -359zM71 31c0 -136 131 -251 267 -251c28 0 55 2 82 6c-15 128 -38 247 -64 367c-79 -9 -125 -62 -125 -121
c0 -44 26 -92 82 -124c4 -4 7 -9 7 -14c0 -11 -9 -21 -20 -21c-3 0 -6 1 -9 2c-80 43 -116 114 -116 184c0 88 57 173 158 196c-14 60 -30 119 -46 178c-108 -121 -216 -242 -216 -402zM411 1050c-99 -50 -161 -151 -161 -262c0 -76 15 -137 33 -200c82 97 149 198 149 325
c0 58 -4 84 -21 137z" fill="currentColor"/>
</g>
<g transform="translate(3.1481, 58.8710)">
<rect x="0.0000" y="-5.3662" width="0.1133" height="10.7325" ry="0.0354" fill="currentColor"/>
</g>
<g transform="translate(1.8981, 53.2798)">
<path transform="scale(0.0040, -0.0040)" d="M0 -56v91c0 12 10 21 22 21h43c164 0 281 136 377 272c10 14 32 -1 22 -15c-103 -145 -222 -369 -399 -369h-65z" fill="currentColor"/>
</g>
<g transform="translate(1.8981, 64.4623)">
<path transform="scale(0.0040, -0.0040)" d="M0 56h65c177 0 296 -224 399 -369c10 -14 -12 -29 -22 -15c-96 136 -213 272 -377 272h-43c-12 0 -22 9 -22 21v91z" fill="currentColor"/>
</g>
<g transform="translate(1.8981, 58.8710)">
<rect x="0.0000" y="-5.4112" width="0.4500" height="10.8225" ry="0.0000" fill="currentColor"/>
</g>
<g transform="translate(9.4574, 55.0402)">
<path transform="scale(0.0040, -0.0040)" d="M222 135c53 0 104 -27 104 -86c0 -71 -56 -120 -103 -148c-36 -22 -76 -36 -118 -36c-53 0 -105 27 -105 86c0 71 57 120 104 148c36 22 76 36 118 36z" fill="currentColor"/>
</g>
<g transform="translate(7.4764, 62.7019)">
<circle stroke-linejoin="round" stroke-linecap="round" fill="currentColor" stroke="currentColor" stroke-width="0" r="0.4500"/>
</g>
<g transform="translate(7.0264, 55.5402)">
<path transform="scale(0.0040, -0.0040)" d="M-23 -113c0 26 10 40 36 40c34 0 85 -15 130 -37l-137 164c-7 8 -10 17 -10 25c0 33 49 64 86 96c26 22 39 54 39 85c0 24 -8 47 -24 67l-39 46c-2 3 -3 6 -3 9c0 7 7 14 14 14c3 0 7 -1 10 -5l152 -182c7 -8 10 -17 10 -25c0 -33 -49 -64 -86 -96
c-26 -22 -39 -54 -39 -85c0 -24 8 -47 24 -67l87 -104c2 -3 3 -5 3 -8c0 -7 -7 -14 -14 -14c-3 0 -7 1 -10 5c-19 22 -66 43 -102 43c-40 0 -52 -29 -52 -70c0 -35 11 -75 28 -96c6 -7 -4 -16 -10 -9c-46 55 -93 150 -93 204z" fill="currentColor"/>
</g>
<g color="rgb(100.0000%, 100.0000%, 100.0000%)">
<g transform="translate(31.1621, 61.2019)">
<rect x="0.1100" y="-0.6446" width="1.1002" height="1.2892" ry="0.0000" fill="currentColor"/>
</g>
</g>
<g transform="scale(1.0000, 1.0000)">
<g transform="translate(31.2721, 61.8465)">
<text font-family="IPAexGothic" font-weight="bold" font-size="1.7462" text-anchor="start" fill="currentColor">
<tspan>2</tspan>
</text>
</g>
</g>
<g transform="translate(31.1621, 54.5402)">
<path transform="scale(0.0040, -0.0040)" d="M222 135c53 0 104 -27 104 -86c0 -71 -56 -120 -103 -148c-36 -22 -76 -36 -118 -36c-53 0 -105 27 -105 86c0 71 57 120 104 148c36 22 76 36 118 36z" fill="currentColor"/>
</g>
<g transform="translate(31.2081, 55.5402)">
<rect x="-0.0460" y="-0.8033" width="0.0920" height="3.3033" ry="0.0222" fill="currentColor"/>
</g>
<g transform="translate(24.6110, 62.7019)">
<circle stroke-linejoin="round" stroke-linecap="round" fill="currentColor" stroke="currentColor" stroke-width="0" r="0.4500"/>
</g>
<g transform="translate(24.1610, 62.7019)">
<path stroke-width="0.1200" stroke-linejoin="round" stroke-linecap="square" stroke="currentColor" fill="none" d="M2 -0.6700l1 0"/>
</g>
<g transform="translate(24.1610, 55.5402)">
<path transform="scale(0.0040, -0.0040)" d="M367 0h-359c-4 0 -8 4 -8 8v140c0 4 4 8 8 8h359c4 0 8 -4 8 -8v-140c0 -4 -4 -8 -8 -8z" fill="currentColor"/>
</g>
<g transform="translate(21.4220, 54.5402)">
<path transform="scale(0.0040, -0.0040)" d="M222 135c53 0 104 -27 104 -86c0 -71 -56 -120 -103 -148c-36 -22 -76 -36 -118 -36c-53 0 -105 27 -105 86c0 71 57 120 104 148c36 22 76 36 118 36z" fill="currentColor"/>
</g>
<g color="rgb(100.0000%, 100.0000%, 100.0000%)">
<g transform="translate(21.4220, 61.2019)">
<rect x="0.1100" y="-0.6446" width="1.1002" height="1.2892" ry="0.0000" fill="currentColor"/>
</g>
</g>
<g transform="scale(1.0000, 1.0000)">
<g transform="translate(21.5320, 61.8465)">
<text font-family="IPAexGothic" font-weight="bold" font-size="1.7462" text-anchor="start" fill="currentColor">
<tspan>2</tspan>
</text>
</g>
</g>
<g transform="translate(21.4680, 55.5402)">
<rect x="-0.0460" y="-0.8033" width="0.0920" height="3.3033" ry="0.0222" fill="currentColor"/>
</g>
<g transform="translate(3.1614, 73.0253)">
<line stroke-linejoin="round" stroke-linecap="round" stroke-width="0.0708" stroke="currentColor" x1="0.0354" y1="0" x2="60.0315" y2="0"/>
</g>
<g transform="translate(3.1614, 72.0253)">
<line stroke-linejoin="round" stroke-linecap="round" stroke-width="0.0708" stroke="currentColor" x1="0.0354" y1="0" x2="60.0315" y2="0"/>
</g>
<g transform="translate(3.1614, 71.0253)">
<line stroke-linejoin="round" stroke-linecap="round" stroke-width="0.0708" stroke="currentColor" x1="0.0354" y1="0" x2="60.0315" y2="0"/>
</g>
<g transform="translate(3.1614, 70.0253)">
<line stroke-linejoin="round" stroke-linecap="round" stroke-width="0.0708" stroke="currentColor" x1="0.0354" y1="0" x2="60.0315" y2="0"/>
</g>
<g transform="translate(3.1614, 69.0253)">
<line stroke-linejoin="round" stroke-linecap="round" stroke-width="0.0708" stroke="currentColor" x1="0.0354" y1="0" x2="60.0315" y2="0"/>
</g>
<g transform="translate(18.0446, 71.0253)">
<rect x="0.0000" y="-2.0000" width="0.1345" height="4.0354" ry="0.0000" fill="currentColor"/>
</g>
<g transform="translate(18.0446, 78.1870)">
<rect x="0.0000" y="-1.5354" width="0.1345" height="3.0354" ry="0.0000" fill="currentColor"/>
</g>
<g transform="translate(18.0446, 67.2453)">
<rect x="0.0000" y="5.8154" width="0.1345" height="3.6263" ry="0.0000" fill="currentColor"/>
</g>
<g transform="translate(41.0266, 67.2453)">
<rect x="0.0000" y="5.8154" width="0.1345" height="3.6263" ry="0.0000" fill="currentColor"/>
</g>
<g transform="translate(41.0266, 78.1870)">
<rect x="0.0000" y="-1.5354" width="0.1345" height="3.0354" ry="0.0000" fill="currentColor"/>
</g>
<g transform="translate(53.1927, 71.0253)">
<rect x="0.0000" y="-2.0000" width="0.1345" height="4.0354" ry="0.0000" fill="currentColor"/>
</g>
<g transform="translate(41.0266, 71.0253)">
<rect x="0.0000" y="-2.0000" width="0.1345" height="4.0354" ry="0.0000" fill="currentColor"/>
</g>
<g transform="translate(53.1927, 78.1870)">
<rect x="0.0000" y="-1.5354" width="0.1345" height="3.0354" ry="0.0000" fill="currentColor"/>
</g>
<g transform="translate(53.1927, 67.2453)">
<rect x="0.0000" y="5.8154" width="0.1345" height="3.6263" ry="0.0000" fill="currentColor"/>
</g>
<g transform="translate(28.9623, 71.0253)">
<rect x="0.0000" y="-2.0000" width="0.1345" height="4.0354" ry="0.0000" fill="currentColor"/>
</g>
<g transform="translate(63.0938, 71.0253)">
<rect x="0.0000" y="-2.0000" width="0.1345" height="4.0354" ry="0.0000" fill="currentColor"/>
</g>
<g transform="translate(28.9623, 78.1870)">
<rect x="0.0000" y="-1.5354" width="0.1345" height="3.0354" ry="0.0000" fill="currentColor"/>
</g>
<g transform="translate(63.0938, 78.1870)">
<rect x="0.0000" y="-1.5354" width="0.1345" height="3.0354" ry="0.0000" fill="currentColor"/>
</g>
<g transform="translate(28.9623, 67.2453)">
<rect x="0.0000" y="5.8154" width="0.1345" height="3.6263" ry="0.0000" fill="currentColor"/>
</g>
<g transform="translate(3.1614, 79.6870)">
<line stroke-linejoin="round" stroke-linecap="round" stroke-width="0.0708" stroke="currentColor" x1="0.0354" y1="0" x2="60.0315" y2="0"/>
</g>
<g transform="translate(3.1614, 78.1870)">
<line stroke-linejoin="round" stroke-linecap="round" stroke-width="0.0708" stroke="currentColor" x1="0.0354" y1="0" x2="60.0315" y2="0"/>
</g>
<g transform="translate(3.1614, 76.6870)">
<line stroke-linejoin="round" stroke-linecap="round" stroke-width="0.0708" stroke="currentColor" x1="0.0354" y1="0" x2="60.0315" y2="0"/>
</g>
<g transform="translate(63.0938, 67.2453)">
<rect x="0.0000" y="5.8154" width="0.1345" height="3.6263" ry="0.0000" fill="currentColor"/>
</g>
<g transform="translate(3.1614, 68.0253)">
<rect x="34.8018" y="-0.0854" width="1.9587" height="0.1708" ry="0.0854" fill="currentColor"/>
</g>
<g transform="translate(32.9130, 70.5253)">
<path transform="scale(0.0040, -0.0040)" d="M222 135c53 0 104 -27 104 -86c0 -71 -56 -120 -103 -148c-36 -22 -76 -36 -118 -36c-53 0 -105 27 -105 86c0 71 57 120 104 148c36 22 76 36 118 36z" fill="currentColor"/>
</g>
<g color="rgb(100.0000%, 100.0000%, 100.0000%)">
<g transform="translate(32.9130, 76.6870)">
<rect x="0.1100" y="-0.6489" width="1.1002" height="1.2977" ry="0.0000" fill="currentColor"/>
</g>
</g>
<g transform="scale(1.0000, 1.0000)">
<g transform="translate(33.0230, 77.3273)">
<text font-family="IPAexGothic" font-weight="bold" font-size="1.7462" text-anchor="start" fill="currentColor">
<tspan>0</tspan>
</text>
</g>
</g>
<g transform="translate(44.8918, 69.5253)">
<path transform="scale(0.0040, -0.0040)" d="M222 135c53 0 104 -27 104 -86c0 -71 -56 -120 -103 -148c-36 -22 -76 -36 -118 -36c-53 0 -105 27 -105 86c0 71 57 120 104 148c36 22 76 36 118 36z" fill="currentColor"/>
</g>
<g color="rgb(100.0000%, 100.0000%, 100.0000%)">
<g transform="translate(44.8918, 76.6870)">
<rect x="0.1100" y="-0.6561" width="1.1002" height="1.3122" ry="0.0000" fill="currentColor"/>
</g>
</g>
<g transform="scale(1.0000, 1.0000)">
<g transform="translate(45.0019, 77.3183)">
<text font-family="IPAexGothic" font-weight="bold" font-size="1.7462" text-anchor="start" fill="currentColor">
<tspan>#</tspan>
</text>
</g>
</g>
<g transform="translate(44.9379, 71.0253)">
<rect x="-0.0460" y="-1.3033" width="0.0920" height="3.3033" ry="0.0222" fill="currentColor"/>
</g>
<g transform="translate(38.2897, 68.0253)">
<path transform="scale(0.0040, -0.0040)" d="M222 135c53 0 104 -27 104 -86c0 -71 -56 -120 -103 -148c-36 -22 -76 -36 -118 -36c-53 0 -105 27 -105 86c0 71 57 120 104 148c36 22 76 36 118 36z" fill="currentColor"/>
</g>
<g color="rgb(100.0000%, 100.0000%, 100.0000%)">
<g transform="translate(38.2897, 76.6870)">
<rect x="0.1100" y="-0.6565" width="1.1002" height="1.3131" ry="0.0000" fill="currentColor"/>
</g>
</g>
<g transform="scale(1.0000, 1.0000)">
<g transform="translate(38.3997, 77.3281)">
<text font-family="IPAexGothic" font-weight="bold" font-size="1.7462" text-anchor="start" fill="currentColor">
<tspan>8</tspan>
</text>
</g>
</g>
<g transform="translate(36.2053, 78.1870)">
<circle stroke-linejoin="round" stroke-linecap="round" fill="currentColor" stroke="currentColor" stroke-width="0" r="0.4500"/>
</g>
<g transform="translate(35.7553, 71.0253)">
<path transform="scale(0.0040, -0.0040)" d="M-23 -113c0 26 10 40 36 40c34 0 85 -15 130 -37l-137 164c-7 8 -10 17 -10 25c0 33 49 64 86 96c26 22 39 54 39 85c0 24 -8 47 -24 67l-39 46c-2 3 -3 6 -3 9c0 7 7 14 14 14c3 0 7 -1 10 -5l152 -182c7 -8 10 -17 10 -25c0 -33 -49 -64 -86 -96
c-26 -22 -39 -54 -39 -85c0 -24 8 -47 24 -67l87 -104c2 -3 3 -5 3 -8c0 -7 -7 -14 -14 -14c-3 0 -7 1 -10 5c-19 22 -66 43 -102 43c-40 0 -52 -29 -52 -70c0 -35 11 -75 28 -96c6 -7 -4 -16 -10 -9c-46 55 -93 150 -93 204z" fill="currentColor"/>
</g>
<g transform="translate(38.3357, 71.0253)">
<rect x="-0.0460" y="-2.8033" width="0.0920" height="3.3033" ry="0.0222" fill="currentColor"/>
</g>
<g transform="translate(32.9590, 71.0253)">
<rect x="-0.0460" y="-0.3033" width="0.0920" height="3.3033" ry="0.0222" fill="currentColor"/>
</g>
<g transform="translate(42.1745, 68.5253)">
<path transform="scale(0.0040, -0.0040)" d="M222 135c53 0 104 -27 104 -86c0 -71 -56 -120 -103 -148c-36 -22 -76 -36 -118 -36c-53 0 -105 27 -105 86c0 71 57 120 104 148c36 22 76 36 118 36z" fill="currentColor"/>
</g>
<g color="rgb(100.0000%, 100.0000%, 100.0000%)">
<g transform="translate(42.1745, 76.6870)">
<rect x="0.1100" y="-0.6489" width="1.1002" height="1.2977" ry="0.0000" fill="currentColor"/>
</g>
</g>
<g transform="scale(1.0000, 1.0000)">
<g transform="translate(42.2845, 77.3273)">
<text font-family="IPAexGothic" font-weight="bold" font-size="1.7462" text-anchor="start" fill="currentColor">
<tspan>6</tspan>
</text>
</g>
</g>
<g transform="translate(42.2205, 71.0253)">
<rect x="-0.0460" y="-2.3033" width="0.0920" height="3.3033" ry="0.0222" fill="currentColor"/>
</g>
<g transform="translate(58.3901, 71.0253)">
<rect x="-0.0460" y="-3.6667" width="0.0920" height="4.3983" ry="0.0222" fill="currentColor"/>
</g>
<g color="rgb(100.0000%, 100.0000%, 100.0000%)">
<g transform="translate(57.0641, 76.6870)">
<rect x="0.1100" y="-0.6489" width="1.1002" height="1.2977" ry="0.0000" fill="currentColor"/>
</g>
</g>
<g transform="scale(1.0000, 1.0000)">
<g transform="translate(57.1741, 77.3273)">
<text font-family="IPAexGothic" font-weight="bold" font-size="1.7462" text-anchor="start" fill="currentColor">
<tspan>0</tspan>
</text>
</g>
</g>
<g color="rgb(100.0000%, 100.0000%, 100.0000%)">
<g transform="translate(57.0641, 78.1870)">
<rect x="0.1100" y="-0.6489" width="1.1002" height="1.2977" ry="0.0000" fill="currentColor"/>
</g>
</g>
<g transform="scale(1.0000, 1.0000)">
<g transform="translate(57.1741, 78.8273)">
<text font-family="IPAexGothic" font-weight="bold" font-size="1.7462" text-anchor="start" fill="currentColor">
<tspan>0</tspan>
</text>
</g>
</g>
<g transform="translate(57.0641, 70.5253)">
<path transform="scale(0.0040, -0.0040)" d="M316 67c0 25 -20 42 -42 42c-4 0 -9 -1 -13 -2c-31 -9 -79 -41 -117 -65s-86 -55 -107 -80c-7 -8 -10 -19 -10 -29c0 -25 20 -42 42 -42c4 0 9 1 13 2c31 9 79 41 117 65s86 55 107 80c7 8 10 19 10 29zM265 135c44 0 78 -21 78 -68c0 -19 -5 -39 -11 -57
c-12 -37 -33 -71 -65 -93c-53 -36 -114 -52 -189 -52c-44 0 -78 21 -78 68c0 19 5 39 11 57c12 37 33 71 65 93c53 36 114 52 189 52z" fill="currentColor"/>
</g>
<g transform="translate(57.0641, 72.0253)">
<path transform="scale(0.0040, -0.0040)" d="M316 67c0 25 -20 42 -42 42c-4 0 -9 -1 -13 -2c-31 -9 -79 -41 -117 -65s-86 -55 -107 -80c-7 -8 -10 -19 -10 -29c0 -25 20 -42 42 -42c4 0 9 1 13 2c31 9 79 41 117 65s86 55 107 80c7 8 10 19 10 29zM265 135c44 0 78 -21 78 -68c0 -19 -5 -39 -11 -57
c-12 -37 -33 -71 -65 -93c-53 -36 -114 -52 -189 -52c-44 0 -78 21 -78 68c0 19 5 39 11 57c12 37 33 71 65 93c53 36 114 52 189 52z" fill="currentColor"/>
</g>
<g transform="translate(57.7242, 78.1870)">
<path stroke-width="0.1200" stroke-linejoin="round" stroke-linecap="square" stroke="currentColor" fill="none" d="M2 -0.6700l1 0"/>
</g>
<g transform="translate(51.5429, 71.0253)">
<rect x="-0.0460" y="-3.0000" width="0.0920" height="3.3033" ry="0.0222" fill="currentColor"/>
</g>
<g color="rgb(100.0000%, 100.0000%, 100.0000%)">
<g transform="translate(50.2832, 78.1870)">
<rect x="0.1100" y="-0.6446" width="1.1002" height="1.2892" ry="0.0000" fill="currentColor"/>
</g>
</g>
<g transform="scale(1.0000, 1.0000)">
<g transform="translate(50.3932, 78.8316)">
<text font-family="IPAexGothic" font-weight="bold" font-size="1.7462" text-anchor="start" fill="currentColor">
<tspan>2</tspan>
</text>
</g>
</g>
<g transform="translate(50.2832, 71.5253)">
<path transform="scale(0.0040, -0.0040)" d="M222 135c53 0 104 -27 104 -86c0 -71 -56 -120 -103 -148c-36 -22 -76 -36 -118 -36c-53 0 -105 27 -105 86c0 71 57 120 104 148c36 22 76 36 118 36z" fill="currentColor"/>
</g>
<g transform="translate(47.6552, 71.0253)">
<rect x="-0.0460" y="-0.3033" width="0.0920" height="3.3033" ry="0.0222" fill="currentColor"/>
</g>
<g color="rgb(100.0000%, 100.0000%, 100.0000%)">
<g transform="translate(47.6092, 76.6870)">
<rect x="0.1100" y="-0.6489" width="1.1002" height="1.2977" ry="0.0000" fill="currentColor"/>
</g>
</g>
<g transform="scale(1.0000, 1.0000)">
<g transform="translate(47.7192, 77.3273)">
<text font-family="IPAexGothic" font-weight="bold" font-size="1.7462" text-anchor="start" fill="currentColor">
<tspan>0</tspan>
</text>
</g>
</g>
<g transform="translate(47.6092, 70.5253)">
<path transform="scale(0.0040, -0.0040)" d="M222 135c53 0 104 -27 104 -86c0 -71 -56 -120 -103 -148c-36 -22 -76 -36 -118 -36c-53 0 -105 27 -105 86c0 71 57 120 104 148c36 22 76 36 118 36z" fill="currentColor"/>
</g>
<g transform="translate(55.4816, 71.0253)">
<rect x="-0.0460" y="-3.6667" width="0.0920" height="4.4699" ry="0.0222" fill="currentColor"/>
</g>
<g color="rgb(100.0000%, 100.0000%, 100.0000%)">
<g transform="translate(54.2218, 76.6870)">
<rect x="0.1100" y="-0.6489" width="1.1002" height="1.2977" ry="0.0000" fill="currentColor"/>
</g>
</g>
<g transform="scale(1.0000, 1.0000)">
<g transform="translate(54.3318, 77.3273)">
<text font-family="IPAexGothic" font-weight="bold" font-size="1.7462" text-anchor="start" fill="currentColor">
<tspan>0</tspan>
</text>
</g>
</g>
<g color="rgb(100.0000%, 100.0000%, 100.0000%)">
<g transform="translate(54.2218, 78.1870)">
<rect x="0.1100" y="-0.6489" width="1.1002" height="1.2977" ry="0.0000" fill="currentColor"/>
</g>
</g>
<g transform="scale(1.0000, 1.0000)">
<g transform="translate(54.3318, 78.8273)">
<text font-family="IPAexGothic" font-weight="bold" font-size="1.7462" text-anchor="start" fill="currentColor">
<tspan>0</tspan>
</text>
</g>
</g>
<g transform="translate(54.2218, 70.5253)">
<path transform="scale(0.0040, -0.0040)" d="M222 135c53 0 104 -27 104 -86c0 -71 -56 -120 -103 -148c-36 -22 -76 -36 -118 -36c-53 0 -105 27 -105 86c0 71 57 120 104 148c36 22 76 36 118 36z" fill="currentColor"/>
</g>
<g transform="translate(54.2218, 72.0253)">
<path transform="scale(0.0040, -0.0040)" d="M222 135c53 0 104 -27 104 -86c0 -71 -56 -120 -103 -148c-36 -22 -76 -36 -118 -36c-53 0 -105 27 -105 86c0 71 57 120 104 148c36 22 76 36 118 36z" fill="currentColor"/>
</g>
<g transform="translate(12.4611, 70.5253)">
<path transform="scale(0.0040, -0.0040)" d="M222 135c53 0 104 -27 104 -86c0 -71 -56 -120 -103 -148c-36 -22 -76 -36 -118 -36c-53 0 -105 27 -105 86c0 71 57 120 104 148c36 22 76 36 118 36z" fill="currentColor"/>
</g>
<g transform="translate(12.5071, 71.0253)">
<rect x="-0.0460" y="-0.3033" width="0.0920" height="3.3033" ry="0.0222" fill="currentColor"/>
</g>
<g color="rgb(100.0000%, 100.0000%, 100.0000%)">
<g transform="translate(12.4611, 76.6870)">
<rect x="0.1100" y="-0.6489" width="1.1002" height="1.2977" ry="0.0000" fill="currentColor"/>
</g>
</g>
<g transform="scale(1.0000, 1.0000)">
<g transform="translate(12.5711, 77.3273)">
<text font-family="IPAexGothic" font-weight="bold" font-size="1.7462" text-anchor="start" fill="currentColor">
<tspan>0</tspan>
</text>
</g>
</g>
<g transform="translate(9.7898, 71.0253)">
<rect x="-0.0460" y="-1.3033" width="0.0920" height="3.3033" ry="0.0222" fill="currentColor"/>
</g>
<g transform="translate(20.3335, 71.0253)">
<rect x="-0.0460" y="-3.6667" width="0.0920" height="4.4699" ry="0.0222" fill="currentColor"/>
</g>
<g color="rgb(100.0000%, 100.0000%, 100.0000%)">
<g transform="translate(19.0737, 76.6870)">
<rect x="0.1100" y="-0.6489" width="1.1002" height="1.2977" ry="0.0000" fill="currentColor"/>
</g>
</g>
<g transform="scale(1.0000, 1.0000)">
<g transform="translate(19.1837, 77.3273)">
<text font-family="IPAexGothic" font-weight="bold" font-size="1.7462" text-anchor="start" fill="currentColor">
<tspan>0</tspan>
</text>
</g>
</g>
<g transform="translate(19.0737, 70.5253)">
<path transform="scale(0.0040, -0.0040)" d="M222 135c53 0 104 -27 104 -86c0 -71 -56 -120 -103 -148c-36 -22 -76 -36 -118 -36c-53 0 -105 27 -105 86c0 71 57 120 104 148c36 22 76 36 118 36z" fill="currentColor"/>
</g>
<g transform="translate(19.0737, 72.0253)">
<path transform="scale(0.0040, -0.0040)" d="M222 135c53 0 104 -27 104 -86c0 -71 -56 -120 -103 -148c-36 -22 -76 -36 -118 -36c-53 0 -105 27 -105 86c0 71 57 120 104 148c36 22 76 36 118 36z" fill="currentColor"/>
</g>
<g color="rgb(100.0000%, 100.0000%, 100.0000%)">
<g transform="translate(9.7438, 76.6870)">
<rect x="0.1100" y="-0.6561" width="1.1002" height="1.3122" ry="0.0000" fill="currentColor"/>
</g>
</g>
<g transform="scale(1.0000, 1.0000)">
<g transform="translate(9.8538, 77.3183)">
<text font-family="IPAexGothic" font-weight="bold" font-size="1.7462" text-anchor="start" fill="currentColor">
<tspan>#</tspan>
</text>
</g>
</g>
<g transform="translate(16.3949, 71.0253)">
<rect x="-0.0460" y="-3.0000" width="0.0920" height="3.3033" ry="0.0222" fill="currentColor"/>
</g>
<g color="rgb(100.0000%, 100.0000%, 100.0000%)">
<g transform="translate(15.1351, 78.1870)">
<rect x="0.1100" y="-0.6446" width="1.1002" height="1.2892" ry="0.0000" fill="currentColor"/>
</g>
</g>
<g transform="scale(1.0000, 1.0000)">
<g transform="translate(15.2451, 78.8316)">
<text font-family="IPAexGothic" font-weight="bold" font-size="1.7462" text-anchor="start" fill="currentColor">
<tspan>2</tspan>
</text>
</g>
</g>
<g transform="translate(15.1351, 71.5253)">
<path transform="scale(0.0040, -0.0040)" d="M222 135c53 0 104 -27 104 -86c0 -71 -56 -120 -103 -148c-36 -22 -76 -36 -118 -36c-53 0 -105 27 -105 86c0 71 57 120 104 148c36 22 76 36 118 36z" fill="currentColor"/>
</g>
<g transform="translate(4.5511, 75.5588)">
<text font-family="IPAexGothic" font-style="italic" font-size="1.3859" text-anchor="start" fill="currentColor">
<tspan>8</tspan>
</text>
</g>
<g transform="translate(3.9614, 72.0253)">
<path transform="scale(0.0040, -0.0040)" d="M374 260c5 0 10 1 15 1c154 0 254 -127 254 -259c0 -76 -33 -153 -107 -208c-22 -17 -47 -29 -73 -37c3 -36 5 -72 5 -108c0 -19 0 -37 -1 -56c-7 -120 -88 -226 -206 -226c-108 0 -195 87 -195 195c0 58 53 104 112 104c54 0 95 -48 95 -104c0 -52 -43 -95 -95 -95
c-12 0 -24 4 -35 9c26 -41 70 -70 121 -70c1 0 2 1 3 1c93 2 154 93 160 192c1 18 2 35 2 53c0 32 -2 64 -5 96c-29 -5 -58 -8 -89 -8c-188 0 -333 171 -333 372c0 178 133 306 251 440c-18 63 -35 126 -42 191c-6 51 -7 102 -7 154c0 116 55 226 150 295c5 4 11 4 16 0
c70 -84 132 -246 132 -359c0 -144 -87 -256 -183 -365c20 -69 39 -138 55 -208zM459 -205c69 24 117 96 117 166c0 92 -69 184 -179 193c25 -117 48 -235 62 -359zM71 31c0 -136 131 -251 267 -251c28 0 55 2 82 6c-15 128 -38 247 -64 367c-79 -9 -125 -62 -125 -121
c0 -44 26 -92 82 -124c4 -4 7 -9 7 -14c0 -11 -9 -21 -20 -21c-3 0 -6 1 -9 2c-80 43 -116 114 -116 184c0 88 57 173 158 196c-14 60 -30 119 -46 178c-108 -121 -216 -242 -216 -402zM411 1050c-99 -50 -161 -151 -161 -262c0 -76 15 -137 33 -200c82 97 149 198 149 325
c0 58 -4 84 -21 137z" fill="currentColor"/>
</g>
<g transform="translate(3.1481, 74.3561)">
<rect x="0.0000" y="-5.3662" width="0.1133" height="10.7325" ry="0.0354" fill="currentColor"/>
</g>
<g transform="translate(1.8981, 68.7649)">
<path transform="scale(0.0040, -0.0040)" d="M0 -56v91c0 12 10 21 22 21h43c164 0 281 136 377 272c10 14 32 -1 22 -15c-103 -145 -222 -369 -399 -369h-65z" fill="currentColor"/>
</g>
<g transform="translate(1.8981, 79.9474)">
<path transform="scale(0.0040, -0.0040)" d="M0 56h65c177 0 296 -224 399 -369c10 -14 -12 -29 -22 -15c-96 136 -213 272 -377 272h-43c-12 0 -22 9 -22 21v91z" fill="currentColor"/>
</g>
<g transform="translate(1.8981, 74.3561)">
<rect x="0.0000" y="-5.4112" width="0.4500" height="10.8225" ry="0.0000" fill="currentColor"/>
</g>
<g transform="translate(7.0725, 71.0253)">
<rect x="-0.0460" y="-2.3033" width="0.0920" height="3.3033" ry="0.0222" fill="currentColor"/>
</g>
<g transform="translate(9.7438, 69.5253)">
<path transform="scale(0.0040, -0.0040)" d="M222 135c53 0 104 -27 104 -86c0 -71 -56 -120 -103 -148c-36 -22 -76 -36 -118 -36c-53 0 -105 27 -105 86c0 71 57 120 104 148c36 22 76 36 118 36z" fill="currentColor"/>
</g>
<g color="rgb(100.0000%, 100.0000%, 100.0000%)">
<g transform="translate(19.0737, 78.1870)">
<rect x="0.1100" y="-0.6489" width="1.1002" height="1.2977" ry="0.0000" fill="currentColor"/>
</g>
</g>
<g transform="scale(1.0000, 1.0000)">
<g transform="translate(19.1837, 78.8273)">
<text font-family="IPAexGothic" font-weight="bold" font-size="1.7462" text-anchor="start" fill="currentColor">
<tspan>0</tspan>
</text>
</g>
</g>
<g color="rgb(100.0000%, 100.0000%, 100.0000%)">
<g transform="translate(7.0264, 76.6870)">
<rect x="0.1100" y="-0.6489" width="1.1002" height="1.2977" ry="0.0000" fill="currentColor"/>
</g>
</g>
<g transform="scale(1.0000, 1.0000)">
<g transform="translate(7.1365, 77.3273)">
<text font-family="IPAexGothic" font-weight="bold" font-size="1.7462" text-anchor="start" fill="currentColor">
<tspan>6</tspan>
</text>
</g>
</g>
<g transform="translate(7.0264, 68.5253)">
<path transform="scale(0.0040, -0.0040)" d="M222 135c53 0 104 -27 104 -86c0 -71 -56 -120 -103 -148c-36 -22 -76 -36 -118 -36c-53 0 -105 27 -105 86c0 71 57 120 104 148c36 22 76 36 118 36z" fill="currentColor"/>
</g>
<g transform="translate(30.1167, 71.0253)">
<rect x="-0.0460" y="-0.3033" width="0.0920" height="3.3033" ry="0.0222" fill="currentColor"/>
</g>
<g color="rgb(100.0000%, 100.0000%, 100.0000%)">
<g transform="translate(30.0707, 76.6870)">
<rect x="0.1100" y="-0.6489" width="1.1002" height="1.2977" ry="0.0000" fill="currentColor"/>
</g>
</g>
<g transform="scale(1.0000, 1.0000)">
<g transform="translate(30.1807, 77.3273)">
<text font-family="IPAexGothic" font-weight="bold" font-size="1.7462" text-anchor="start" fill="currentColor">
<tspan>0</tspan>
</text>
</g>
</g>
<g transform="translate(30.0707, 70.5253)">
<path transform="scale(0.0040, -0.0040)" d="M222 135c53 0 104 -27 104 -86c0 -71 -56 -120 -103 -148c-36 -22 -76 -36 -118 -36c-53 0 -105 27 -105 86c0 71 57 120 104 148c36 22 76 36 118 36z" fill="currentColor"/>
</g>
<g transform="translate(25.2083, 78.1870)">
<circle stroke-linejoin="round" stroke-linecap="round" fill="currentColor" stroke="currentColor" stroke-width="0" r="0.4500"/>
</g>
<g transform="translate(24.7583, 78.1870)">
<path stroke-width="0.1200" stroke-linejoin="round" stroke-linecap="square" stroke="currentColor" fill="none" d="M2 -0.6700l1 0"/>
</g>
<g transform="translate(24.7583, 71.0253)">
<path transform="scale(0.0040, -0.0040)" d="M367 0h-359c-4 0 -8 4 -8 8v140c0 4 4 8 8 8h359c4 0 8 -4 8 -8v-140c0 -4 -4 -8 -8 -8z" fill="currentColor"/>
</g>
<g color="rgb(100.0000%, 100.0000%, 100.0000%)">
<g transform="translate(21.9160, 78.1870)">
<rect x="0.1100" y="-0.6489" width="1.1002" height="1.2977" ry="0.0000" fill="currentColor"/>
</g>
</g>
<g transform="scale(1.0000, 1.0000)">
<g transform="translate(22.0260, 78.8273)">
<text font-family="IPAexGothic" font-weight="bold" font-size="1.7462" text-anchor="start" fill="currentColor">
<tspan>0</tspan>
</text>
</g>
</g>
<g transform="translate(23.1758, 71.0253)">
<rect x="-0.0460" y="-3.6667" width="0.0920" height="4.4699" ry="0.0222" fill="currentColor"/>
</g>
<g color="rgb(100.0000%, 100.0000%, 100.0000%)">
<g transform="translate(21.9160, 76.6870)">
<rect x="0.1100" y="-0.6489" width="1.1002" height="1.2977" ry="0.0000" fill="currentColor"/>
</g>
</g>
<g transform="scale(1.0000, 1.0000)">
<g transform="translate(22.0260, 77.3273)">
<text font-family="IPAexGothic" font-weight="bold" font-size="1.7462" text-anchor="start" fill="currentColor">
<tspan>0</tspan>
</text>
</g>
</g>
<g transform="translate(21.9160, 72.0253)">
<path transform="scale(0.0040, -0.0040)" d="M222 135c53 0 104 -27 104 -86c0 -71 -56 -120 -103 -148c-36 -22 -76 -36 -118 -36c-53 0 -105 27 -105 86c0 71 57 120 104 148c36 22 76 36 118 36z" fill="currentColor"/>
</g>
<g transform="translate(21.9160, 70.5253)">
<path transform="scale(0.0040, -0.0040)" d="M222 135c53 0 104 -27 104 -86c0 -71 -56 -120 -103 -148c-36 -22 -76 -36 -118 -36c-53 0 -105 27 -105 86c0 71 57 120 104 148c36 22 76 36 118 36z" fill="currentColor"/>
</g>
</svg>
